<svg  viewBox="0 0 100 32" fill="none" xmlns="http://www.w3.org/2000/svg">
<g clip-path="url(#clip0)">
<path d="M21.5827 0C21.984 0 22.1871 0.0820513 22.1871 0.661237V7.54872C22.1871 7.92036 21.9463 8.04585 21.7007 8.04585C21.4174 8.04585 21.0964 7.83831 21.0964 7.51011C21.0964 4.95204 19.3635 1.28386 15.3265 1.28386H13.5134C11.9411 1.28386 10.3688 1.4914 9.72189 2.22986V14.3541H13.6361C15.4115 14.3541 17.5882 13.7364 18.0745 10.3529C18.1548 9.85581 18.4381 9.60965 18.6411 9.60965C18.8441 9.60965 19.0047 9.8172 19.0047 10.2275C19.0047 11.6272 18.7214 12.7035 18.7214 15.1747C18.7214 17.9354 19.0047 18.7222 19.0047 19.7116C19.0047 20.1219 18.8441 20.3294 18.6411 20.3294C18.4381 20.3294 18.1548 20.0833 18.0745 19.5861C17.5882 16.4103 15.4918 15.749 13.6361 15.749H9.72189V20.0784C9.72189 23.0081 9.84466 26.3867 9.9627 27.5403C10.1657 29.3551 10.9306 30.3011 15.2887 30.3011C18.7167 30.3011 21.866 27.4582 23.155 23.0033C23.2778 22.5496 23.5564 22.3421 23.8019 22.3421C24.0852 22.3421 24.2882 22.5496 24.2882 22.8778C24.2882 23.6211 22.6734 30.0115 22.4326 30.7934C22.3098 31.2471 21.9085 31.5367 21.4647 31.5367H0.604372C0.203031 31.5463 0 31.2953 0 31.0492C0 30.7596 0.240805 30.4314 0.764909 30.4314C3.90953 30.4314 4.51391 29.4419 4.71694 27.0094C4.7972 25.8558 4.95774 22.9261 4.95774 17.2356V14.5134C4.95774 8.86637 4.7972 5.5264 4.71694 4.36802C4.51863 1.97888 3.99452 1.11493 0.96794 1.11493C0.481609 1.11493 0.240805 0.825339 0.240805 0.535747C0.240805 0.289593 0.443836 0 0.845177 0H21.5827Z" fill="white"/>
<path d="M41.1065 9.77363C41.1065 12.0421 39.3736 12.9061 37.2347 12.9061C37.2347 11.6705 37.0742 7.62582 33.566 7.62582C31.5073 7.62582 30.2986 9.23306 30.2986 10.9658C30.2986 13.1522 31.1438 14.1417 34.6945 16.4101C39.1706 19.253 41.9941 20.9471 41.9941 25.1944C41.9941 30.0596 36.9136 31.9564 32.5555 31.9564C28.2777 31.9564 25.2559 30.3878 25.2559 27.545C25.2559 25.1944 27.2342 24.3305 29.6517 24.3305C29.4912 24.9917 29.3684 25.7736 29.3684 26.7631C29.3684 28.6599 30.0153 30.7208 33.0796 30.7208C35.6199 30.7208 37.9193 29.4032 37.9193 26.4735C37.9193 24.5766 36.9089 22.926 32.3525 20.2472C29.1654 18.3938 26.2191 16.6177 26.2191 12.6213C26.2191 7.92024 30.7755 6.39505 34.4489 6.39505C37.1497 6.39022 41.1065 6.96941 41.1065 9.77363Z" fill="white"/>
<path d="M50.3422 7.13357C52.0373 7.13357 54.417 6.80536 55.7485 6.80536C56.4331 6.80536 56.8392 7.25906 56.8392 7.71275C56.8392 8.16645 56.4379 8.62014 55.5077 8.62014H50.3422V26.0198C50.3422 28.5345 51.1071 29.4853 52.5992 29.4853C54.214 29.4853 55.3424 28.2063 55.6257 26.4349C55.706 25.9812 55.9468 25.7351 56.1498 25.7351C56.3906 25.7351 56.6362 26.0247 56.6362 26.517C56.6362 30.2286 54.0959 31.9999 51.3101 31.9999C47.3581 31.9999 45.5828 29.9776 45.5828 26.2708C45.5828 22.0669 45.8661 12.6214 45.8661 8.66358H43.8877C43.5666 8.66358 43.4014 8.53809 43.4014 8.29194C43.4014 8.0844 43.5241 7.88168 43.8452 7.54865L48.9682 2.3939C49.3318 2.0657 49.5726 1.85815 49.8134 1.85815C50.1345 1.85815 50.3375 2.10431 50.3375 2.68349V7.13357H50.3422Z" fill="white"/>
<path d="M68.498 31.9563C62.4873 31.9563 58.252 27.9986 58.252 19.9141C58.252 12.2882 61.9207 6.39014 69.3431 6.39014C72.6908 6.39014 77.0866 8.24353 77.0866 14.4312C77.0866 15.9177 76.3595 16.4535 74.6267 16.4535H62.9689C62.9689 24.287 65.7499 28.7805 70.1883 28.7805C72.9316 28.7805 74.825 27.9165 76.3217 24.7407C76.4445 24.4945 76.605 24.4125 76.7656 24.4125C77.0064 24.4125 77.0866 24.62 77.0866 24.9096C77.0866 27.4628 74.6692 31.9563 68.498 31.9563ZM63.0492 15.382L70.4716 14.8462C71.8031 14.7642 72.0439 14.2284 72.0439 13.3211C72.0439 9.52739 70.8729 7.71261 68.5357 7.71261C65.1456 7.71261 63.5355 11.3373 63.0492 15.382Z" fill="white"/>
<path d="M91.6466 16.1639C91.6466 11.0091 90.6361 7.63056 87.2885 7.63056C84.7057 7.63056 84.0211 10.1066 84.0211 12.1241C84.0211 12.8239 84.1013 13.4852 84.2241 13.9775C83.7 14.103 83.2562 14.1416 82.8548 14.1416C80.9189 14.1416 79.9085 12.9446 79.9085 11.2553C79.9085 8.32558 83.2184 6.39014 88.2989 6.39014C93.0583 6.39014 96.1652 8.16148 96.1652 13.2342C96.1652 14.7208 95.9244 18.5965 95.9244 24.7407C95.9244 27.8731 95.9244 29.3162 97.5392 29.3162C99.0312 29.3162 99.0737 27.3373 99.6356 27.3373C99.9189 27.3373 99.9992 27.5449 99.9992 27.9986C99.9992 29.9389 98.7479 31.9563 95.8063 31.9563C93.3463 31.9563 92.1376 30.4312 91.6135 29.1135C89.9609 30.9283 87.5812 31.9563 85.2817 31.9563C81.6933 31.9563 79.0303 29.8954 79.0303 26.3479C79.0303 20.1651 84.9182 18.804 89.8004 18.804C90.4472 18.804 91.0516 18.8475 91.656 18.8861V16.1639H91.6466ZM87.6567 29.2342C89.0685 29.2342 90.1592 28.9446 91.4482 27.9986C91.6513 26.6375 91.6513 22.2646 91.6513 20.083H90.7636C86.6888 20.083 83.7425 21.7337 83.7425 25.5274C83.7425 27.9986 85.277 29.2342 87.6567 29.2342Z" fill="white"/>
</g>
<defs>
<clipPath id="clip0">
<rect width="100" height="32" fill="white"/>
</clipPath>
</defs>
</svg>
