<svg width="1123" height="353" viewBox="0 0 1123 353" fill="none" xmlns="http://www.w3.org/2000/svg">
<path d="M107.728 121.746H143.232V146.725L143.89 147.383C149.579 137.971 157.033 130.577 166.242 125.199C175.444 119.83 185.625 117.146 196.801 117.146C215.432 117.146 230.11 121.966 240.849 131.615C251.585 141.262 256.954 155.722 256.954 174.995V291.68H219.491V184.863C219.043 171.5 216.199 161.8 210.941 155.774C205.682 149.746 197.467 146.725 186.291 146.725C179.926 146.725 174.237 147.88 169.19 150.186C164.158 152.481 159.878 155.663 156.375 159.708C152.871 163.767 150.128 168.537 148.162 174.006C146.195 179.493 145.207 185.293 145.207 191.43V291.68H107.728V121.746Z" fill="white"/>
<path d="M392.76 121.743L351.346 252.239H350.696L307.629 121.743H266.882L328.672 291.677H370.745L431.548 121.743H392.76Z" fill="white"/>
<path d="M467.474 216.411C467.474 222.987 468.395 229.342 470.26 235.471C472.125 241.616 474.911 246.986 478.643 251.586C482.365 256.187 487.075 259.85 492.782 262.593C498.479 265.337 505.268 266.696 513.16 266.696C524.116 266.696 532.929 264.349 539.615 259.63C546.3 254.929 551.28 247.855 554.573 238.434H590.068C588.093 247.636 584.692 255.856 579.881 263.083C575.061 270.317 569.253 276.395 562.457 281.325C555.662 286.255 548.048 289.985 539.615 292.509C531.174 295.017 522.361 296.283 513.16 296.283C499.789 296.283 487.953 294.088 477.654 289.708C467.348 285.326 458.645 279.197 451.52 271.297C444.405 263.412 439.036 254 435.423 243.034C431.802 232.078 429.995 220.024 429.995 206.88C429.995 194.835 431.919 183.379 435.752 172.524C439.585 161.684 445.062 152.154 452.187 143.941C459.303 135.719 467.906 129.193 477.985 124.382C488.064 119.562 499.46 117.148 512.171 117.148C525.535 117.148 537.531 119.942 548.166 125.531C558.786 131.119 567.607 138.513 574.621 147.715C581.628 156.916 586.727 167.492 589.9 179.437C593.083 191.374 593.901 203.707 592.364 216.411H467.474ZM554.894 191.762C554.456 185.835 553.198 180.146 551.12 174.667C549.036 169.19 546.191 164.428 542.57 160.377C538.957 156.316 534.567 153.032 529.417 150.518C524.277 147.992 518.528 146.726 512.171 146.726C505.597 146.726 499.628 147.875 494.26 150.179C488.882 152.475 484.282 155.658 480.457 159.709C476.616 163.77 473.544 168.54 471.248 174.009C468.944 179.496 467.686 185.405 467.474 191.762H554.894Z" fill="white"/>
<path d="M616.419 121.746H651.594V154.625H652.244C653.341 150.017 655.478 145.525 658.66 141.137C661.833 136.763 665.666 132.762 670.157 129.149C674.648 125.527 679.638 122.633 685.125 120.438C690.594 118.251 696.182 117.146 701.879 117.146C706.261 117.146 709.274 117.263 710.92 117.475C712.558 117.695 714.256 117.923 716.019 118.133V154.288C713.386 153.856 710.702 153.468 707.959 153.139C705.223 152.81 702.547 152.65 699.904 152.65C693.557 152.65 687.581 153.908 681.993 156.424C676.413 158.955 671.534 162.669 667.372 167.6C663.202 172.53 659.918 178.608 657.513 185.842C655.098 193.076 653.89 201.408 653.89 210.819V291.68H616.419V121.746Z" fill="white"/>
<path d="M889.141 291.68H853.645V268.669H852.978C847.938 278.528 840.603 285.602 830.954 289.865C821.315 294.146 811.125 296.281 800.396 296.281C787.025 296.281 775.36 293.926 765.382 289.215C755.42 284.513 747.148 278.098 740.571 269.985C733.996 261.881 729.066 252.301 725.784 241.234C722.499 230.167 720.845 218.273 720.845 205.562C720.845 190.232 722.929 176.969 727.099 165.793C731.261 154.625 736.799 145.416 743.695 138.181C750.592 130.947 758.485 125.638 767.357 122.235C776.237 118.842 785.27 117.146 794.479 117.146C799.729 117.146 805.099 117.635 810.586 118.622C816.055 119.61 821.315 121.197 826.362 123.392C831.402 125.579 836.053 128.382 840.333 131.775C844.604 135.176 848.158 139.17 851.003 143.77H851.67V57H889.141V291.68ZM758.324 208.523C758.324 215.758 759.253 222.875 761.111 229.881C762.975 236.904 765.83 243.142 769.661 248.621C773.494 254.098 778.373 258.48 784.29 261.772C790.208 265.056 797.213 266.702 805.317 266.702C813.649 266.702 820.816 264.945 826.851 261.443C832.879 257.939 837.8 253.339 841.641 247.632C845.482 241.935 848.326 235.527 850.192 228.412C852.041 221.296 852.978 214.002 852.978 206.548C852.978 187.708 848.756 173.019 840.333 162.509C831.891 151.982 820.445 146.725 805.985 146.725C797.213 146.725 789.811 148.539 783.792 152.153C777.765 155.774 772.836 160.484 769.003 166.283C765.162 172.09 762.436 178.667 760.78 186.01C759.144 193.346 758.324 200.851 758.324 208.523Z" fill="white"/>
<path d="M949.581 216.411C949.581 222.987 950.51 229.342 952.374 235.471C954.232 241.616 957.025 246.986 960.749 251.586C964.471 256.187 969.19 259.85 974.888 262.593C980.586 265.337 987.372 266.696 995.266 266.696C1006.22 266.696 1015.04 264.349 1021.72 259.63C1028.41 254.929 1033.39 247.855 1036.68 238.434H1072.17C1070.21 247.636 1066.8 255.856 1061.99 263.083C1057.17 270.317 1051.36 276.395 1044.56 281.325C1037.77 286.255 1030.15 289.985 1021.72 292.509C1013.28 295.017 1004.47 296.283 995.266 296.283C981.895 296.283 970.059 294.088 959.761 289.708C949.462 285.326 940.752 279.197 933.634 271.297C926.511 263.412 921.141 254 917.528 243.034C913.916 232.078 912.1 220.024 912.1 206.88C912.1 194.835 914.025 183.379 917.858 172.524C921.69 161.684 927.169 152.154 934.294 143.941C941.409 135.719 950.011 129.193 960.089 124.382C970.17 119.562 981.564 117.148 994.278 117.148C1007.64 117.148 1019.64 119.942 1030.27 125.531C1040.89 131.119 1049.71 138.513 1056.73 147.715C1063.73 156.916 1068.83 167.492 1072.01 179.437C1075.19 191.374 1076.01 203.707 1074.47 216.411H949.581ZM1037 191.762C1036.56 185.835 1035.3 180.146 1033.23 174.667C1031.14 169.19 1028.3 164.428 1024.67 160.377C1021.06 156.316 1016.67 153.032 1011.52 150.518C1006.38 147.992 1000.63 146.726 994.278 146.726C987.701 146.726 981.734 147.875 976.365 150.179C970.988 152.475 966.387 155.658 962.563 159.709C958.722 163.77 955.65 168.54 953.354 174.009C951.05 179.496 949.791 185.405 949.581 191.762H1037Z" fill="white"/>
<path d="M46.0017 291.681H83.4245V122.659H46.0017V291.681Z" fill="white"/>
<path d="M46 68.4203H83.4356V89.6225C83.4356 98.5879 76.166 105.854 67.2006 105.854H46V68.4203Z" fill="white"/>
</svg>
