<?xml version="1.0" encoding="UTF-8" standalone="no"?>
<!DOCTYPE svg PUBLIC "-//W3C//DTD SVG 1.1//EN" "http://www.w3.org/Graphics/SVG/1.1/DTD/svg11.dtd">
<svg viewBox="0 0 589 288" version="1.1" xmlns="http://www.w3.org/2000/svg" xmlns:xlink="http://www.w3.org/1999/xlink" xml:space="preserve"  style="fill-rule:evenodd;clip-rule:evenodd;stroke-linejoin:round;stroke-miterlimit:1.41421;"><rect id="Artboard1" x="0" y="0" width="588.49" height="287.356" style="fill:none;"/><g><path d="M48.419,183.126c17.109,16.374 40.312,26.433 65.863,26.433c36.568,0 69.407,-20.781 85.388,-52.957l17.022,8.455c-19.161,38.58 -58.555,63.508 -102.41,63.508c-24.49,0 -47.181,-7.703 -65.782,-20.819c-0.034,-0.025 -0.062,-8.231 -0.081,-24.62Zm-29.65,-6.07c-11.865,-18.016 -18.769,-39.588 -18.769,-62.774c0,-63.116 51.166,-114.282 114.282,-114.282c43.776,0 83.112,24.839 102.312,63.312l-17.006,8.487c-16.014,-32.087 -48.803,-52.793 -85.306,-52.793c-52.619,0 -95.276,42.657 -95.276,95.276l-0.237,62.774Z" style="fill:#fff;fill-rule:nonzero;"/><path d="M24.495,119.231c-0.087,-1.619 -0.131,-3.251 -0.131,-4.892c0,-49.525 40.147,-89.672 89.671,-89.672c49.524,0 89.672,40.147 89.672,89.672c0,49.524 -40.148,89.671 -89.672,89.671c-28.669,0 -54.196,-13.454 -70.611,-34.393l0,115.76l-18.929,0l0,-166.146Zm18.929,-2.116c1.457,37.74 32.513,67.889 70.611,67.889c39.027,0 70.665,-31.638 70.665,-70.665c0,-39.028 -31.638,-70.665 -70.665,-70.665c-38.205,0 -69.329,30.319 -70.623,68.208l0.012,0l0,5.233Z" style="fill:#fff;"/><g><path d="M219.783,109.007l0,11.755l-8.353,0l0,-34.647l13.826,0c2.649,0 4.993,0.488 7.032,1.464c2.038,0.975 3.617,2.363 4.735,4.164c1.119,1.801 1.678,3.843 1.678,6.127c0,3.38 -1.21,6.08 -3.629,8.103c-2.419,2.023 -5.739,3.034 -9.959,3.034l-5.33,0Zm0,-6.449l5.473,0c1.618,0 2.852,-0.404 3.7,-1.213c0.849,-0.809 1.273,-1.952 1.273,-3.427c0,-1.618 -0.436,-2.911 -1.308,-3.879c-0.873,-0.967 -2.063,-1.459 -3.57,-1.475l-5.568,0l0,9.994Z" style="fill:#fff;fill-rule:nonzero;"/><path d="M256.024,108.531l-4.521,0l0,12.231l-8.352,0l0,-34.647l13.635,0c4.109,0 7.321,0.912 9.637,2.737c2.316,1.824 3.475,4.402 3.475,7.733c0,2.412 -0.488,4.411 -1.464,5.997c-0.976,1.587 -2.502,2.872 -4.581,3.855l7.234,13.968l0,0.357l-8.947,0l-6.116,-12.231Zm-4.521,-6.449l5.283,0c1.586,0 2.78,-0.416 3.581,-1.249c0.801,-0.833 1.202,-1.995 1.202,-3.486c0,-1.491 -0.405,-2.661 -1.214,-3.51c-0.809,-0.849 -1.999,-1.273 -3.569,-1.273l-5.283,0l0,9.518Z" style="fill:#fff;fill-rule:nonzero;"/><rect x="275.513" y="86.115" width="8.329" height="34.647" style="fill:#fff;"/><path d="M303.093,111.339l6.901,-25.224l9.328,0l-11.66,34.647l-9.138,0l-11.565,-34.647l9.257,0l6.877,25.224Z" style="fill:#fff;fill-rule:nonzero;"/><path d="M339.739,114.29l-11.446,0l-1.999,6.472l-8.923,0l12.707,-34.647l7.853,0l12.802,34.647l-8.971,0l-2.023,-6.472Zm-9.447,-6.449l7.448,0l-3.736,-12.017l-3.712,12.017Z" style="fill:#fff;fill-rule:nonzero;"/><path d="M377.599,92.564l-10.399,0l0,28.198l-8.352,0l0,-28.198l-10.209,0l0,-6.449l28.96,0l0,6.449Z" style="fill:#fff;fill-rule:nonzero;"/><path d="M407.426,109.769c-0.429,3.664 -1.781,6.492 -4.058,8.483c-2.276,1.991 -5.302,2.986 -9.078,2.986c-4.093,0 -7.373,-1.467 -9.84,-4.402c-2.466,-2.935 -3.7,-6.861 -3.7,-11.779l0,-3.332c0,-3.22 0.575,-6.052 1.725,-8.495c1.151,-2.443 2.781,-4.319 4.89,-5.628c2.11,-1.308 4.553,-1.963 7.33,-1.963c3.68,0 6.631,1.027 8.852,3.082c2.221,2.054 3.514,4.898 3.879,8.531l-4.593,0c-0.397,-2.761 -1.257,-4.759 -2.582,-5.997c-1.325,-1.237 -3.177,-1.856 -5.556,-1.856c-2.919,0 -5.208,1.079 -6.865,3.236c-1.658,2.158 -2.487,5.228 -2.487,9.209l0,3.356c0,3.759 0.785,6.75 2.356,8.971c1.57,2.221 3.767,3.331 6.591,3.331c2.538,0 4.486,-0.575 5.842,-1.725c1.357,-1.15 2.257,-3.153 2.701,-6.008l4.593,0Z" style="fill:#fff;fill-rule:nonzero;"/><path d="M440.312,104.557c0,3.395 -0.571,6.358 -1.713,8.888c-1.143,2.53 -2.761,4.462 -4.855,5.794c-2.094,1.333 -4.537,1.999 -7.329,1.999c-2.729,0 -5.148,-0.67 -7.258,-2.01c-2.11,-1.341 -3.748,-3.253 -4.914,-5.735c-1.166,-2.483 -1.765,-5.358 -1.796,-8.626l0,-2.499c0,-3.332 0.579,-6.274 1.737,-8.828c1.158,-2.555 2.796,-4.51 4.914,-5.866c2.118,-1.357 4.541,-2.035 7.269,-2.035c2.777,0 5.224,0.67 7.342,2.011c2.117,1.341 3.747,3.284 4.89,5.83c1.142,2.546 1.713,5.509 1.713,8.888l0,2.189Zm-4.545,-2.237c0,-4.108 -0.825,-7.261 -2.475,-9.459c-1.65,-2.197 -3.958,-3.295 -6.925,-3.295c-2.887,0 -5.159,1.098 -6.817,3.295c-1.658,2.198 -2.511,5.247 -2.558,9.15l0,2.546c0,3.982 0.837,7.111 2.51,9.388c1.674,2.276 3.978,3.415 6.913,3.415c2.951,0 5.235,-1.075 6.853,-3.225c1.618,-2.149 2.451,-5.231 2.499,-9.245l0,-2.57Z" style="fill:#fff;fill-rule:nonzero;"/><path d="M473.793,120.762l-4.593,0l-17.442,-26.699l0,26.699l-4.593,0l0,-34.647l4.593,0l17.49,26.818l0,-26.818l4.545,0l0,34.647Z" style="fill:#fff;fill-rule:nonzero;"/><path d="M492.116,105.319c-3.918,-1.127 -6.77,-2.511 -8.555,-4.153c-1.784,-1.642 -2.677,-3.668 -2.677,-6.08c0,-2.728 1.091,-4.985 3.272,-6.77c2.182,-1.784 5.017,-2.677 8.508,-2.677c2.379,0 4.501,0.46 6.365,1.38c1.864,0.921 3.308,2.19 4.331,3.808c1.023,1.618 1.535,3.387 1.535,5.306l-4.593,0c0,-2.094 -0.666,-3.74 -1.999,-4.937c-1.332,-1.198 -3.212,-1.797 -5.639,-1.797c-2.253,0 -4.01,0.496 -5.271,1.487c-1.262,0.992 -1.892,2.368 -1.892,4.129c0,1.412 0.599,2.606 1.796,3.581c1.198,0.976 3.237,1.868 6.116,2.677c2.879,0.809 5.132,1.702 6.758,2.677c1.626,0.976 2.832,2.114 3.617,3.415c0.785,1.301 1.178,2.832 1.178,4.593c0,2.808 -1.094,5.056 -3.284,6.746c-2.189,1.69 -5.116,2.534 -8.781,2.534c-2.379,0 -4.6,-0.456 -6.662,-1.368c-2.063,-0.912 -3.653,-2.161 -4.772,-3.748c-1.118,-1.586 -1.677,-3.387 -1.677,-5.402l4.592,0c0,2.094 0.774,3.748 2.321,4.962c1.546,1.213 3.613,1.82 6.198,1.82c2.412,0 4.26,-0.491 5.545,-1.475c1.285,-0.984 1.927,-2.324 1.927,-4.022c0,-1.697 -0.594,-3.01 -1.784,-3.938c-1.19,-0.928 -3.348,-1.844 -6.473,-2.748Z" style="fill:#fff;fill-rule:nonzero;"/><path d="M535.211,86.115l0,23.558c-0.016,3.268 -1.043,5.941 -3.082,8.02c-2.038,2.078 -4.802,3.244 -8.293,3.498l-1.213,0.047c-3.792,0 -6.814,-1.023 -9.066,-3.069c-2.253,-2.047 -3.395,-4.863 -3.427,-8.448l0,-23.606l4.521,0l0,23.463c0,2.507 0.69,4.454 2.07,5.842c1.381,1.388 3.348,2.082 5.902,2.082c2.586,0 4.565,-0.69 5.937,-2.07c1.372,-1.38 2.058,-3.323 2.058,-5.83l0,-23.487l4.593,0Z" style="fill:#fff;fill-rule:nonzero;"/><path d="M547.014,117.026l16.419,0l0,3.736l-21.012,0l0,-34.647l4.593,0l0,30.911Z" style="fill:#fff;fill-rule:nonzero;"/><path d="M586.04,89.875l-11.137,0l0,30.887l-4.545,0l0,-30.887l-11.113,0l0,-3.76l26.795,0l0,3.76Z" style="fill:#fff;fill-rule:nonzero;"/></g><g><path d="M218.995,141.608l4.95,-14.289l2.498,0l-6.425,17.323l-2.022,0l-6.413,-17.323l2.486,0l4.926,14.289Z" style="fill:#fff;fill-rule:nonzero;"/><path d="M238.556,136.635l-7.508,0l0,6.139l8.721,0l0,1.868l-11.005,0l0,-17.323l10.886,0l0,1.88l-8.602,0l0,5.568l7.508,0l0,1.868Z" style="fill:#fff;fill-rule:nonzero;"/><path d="M248.966,137.634l-4.069,0l0,7.008l-2.296,0l0,-17.323l5.735,0c1.951,0 3.452,0.444 4.503,1.332c1.051,0.889 1.577,2.182 1.577,3.879c0,1.079 -0.292,2.019 -0.875,2.82c-0.583,0.801 -1.394,1.4 -2.433,1.797l4.069,7.353l0,0.142l-2.451,0l-3.76,-7.008Zm-4.069,-1.868l3.51,0c1.135,0 2.037,-0.293 2.707,-0.88c0.67,-0.587 1.005,-1.372 1.005,-2.356c0,-1.071 -0.319,-1.892 -0.957,-2.463c-0.639,-0.571 -1.561,-0.86 -2.767,-0.868l-3.498,0l0,6.567Z" style="fill:#fff;fill-rule:nonzero;"/><path d="M260.567,127.319l5.664,14.135l5.663,-14.135l2.963,0l0,17.323l-2.285,0l0,-6.746l0.214,-7.282l-5.687,14.028l-1.749,0l-5.675,-13.992l0.226,7.246l0,6.746l-2.285,0l0,-17.323l2.951,0Z" style="fill:#fff;fill-rule:nonzero;"/><path d="M292.216,136.54c0,1.697 -0.286,3.178 -0.857,4.444c-0.571,1.265 -1.38,2.231 -2.427,2.897c-1.047,0.666 -2.268,0.999 -3.665,0.999c-1.364,0 -2.573,-0.335 -3.628,-1.005c-1.055,-0.67 -1.874,-1.626 -2.457,-2.868c-0.583,-1.241 -0.883,-2.679 -0.899,-4.313l0,-1.249c0,-1.666 0.29,-3.137 0.869,-4.414c0.579,-1.277 1.398,-2.255 2.457,-2.933c1.059,-0.678 2.27,-1.017 3.635,-1.017c1.388,0 2.611,0.335 3.67,1.005c1.059,0.67 1.874,1.642 2.445,2.915c0.571,1.273 0.857,2.755 0.857,4.444l0,1.095Zm-2.273,-1.119c0,-2.054 -0.412,-3.631 -1.237,-4.729c-0.825,-1.099 -1.979,-1.648 -3.462,-1.648c-1.444,0 -2.58,0.549 -3.409,1.648c-0.829,1.098 -1.255,2.623 -1.279,4.575l0,1.273c0,1.991 0.418,3.555 1.255,4.693c0.837,1.139 1.989,1.708 3.456,1.708c1.476,0 2.618,-0.538 3.427,-1.612c0.809,-1.075 1.226,-2.616 1.249,-4.623l0,-1.285Zm-8.483,-10.803c0,-0.357 0.109,-0.657 0.327,-0.898c0.218,-0.242 0.542,-0.363 0.97,-0.363c0.428,0 0.754,0.121 0.976,0.363c0.222,0.241 0.333,0.541 0.333,0.898c0,0.357 -0.111,0.654 -0.333,0.892c-0.222,0.238 -0.548,0.357 -0.976,0.357c-0.428,0 -0.752,-0.119 -0.97,-0.357c-0.218,-0.238 -0.327,-0.535 -0.327,-0.892Zm5.116,0.024c0,-0.357 0.109,-0.659 0.327,-0.905c0.219,-0.246 0.542,-0.368 0.97,-0.368c0.429,0 0.754,0.122 0.976,0.368c0.222,0.246 0.333,0.548 0.333,0.905c0,0.357 -0.111,0.654 -0.333,0.892c-0.222,0.238 -0.547,0.357 -0.976,0.357c-0.428,0 -0.751,-0.119 -0.97,-0.357c-0.218,-0.238 -0.327,-0.535 -0.327,-0.892Z" style="fill:#fff;fill-rule:nonzero;"/><path d="M308.433,142.37c-0.587,0.841 -1.406,1.469 -2.457,1.886c-1.051,0.416 -2.274,0.624 -3.67,0.624c-1.412,0 -2.666,-0.331 -3.76,-0.993c-1.095,-0.663 -1.942,-1.604 -2.54,-2.826c-0.599,-1.222 -0.907,-2.637 -0.923,-4.248l0,-1.511c0,-2.609 0.609,-4.632 1.827,-6.068c1.217,-1.435 2.929,-2.153 5.134,-2.153c1.808,0 3.264,0.462 4.366,1.386c1.103,0.924 1.777,2.235 2.023,3.932l-2.284,0c-0.429,-2.292 -1.793,-3.438 -4.093,-3.438c-1.531,0 -2.691,0.537 -3.481,1.612c-0.789,1.075 -1.187,2.631 -1.195,4.67l0,1.416c0,1.943 0.444,3.488 1.332,4.634c0.889,1.146 2.09,1.719 3.605,1.719c0.857,0 1.607,-0.095 2.249,-0.285c0.643,-0.191 1.174,-0.512 1.595,-0.964l0,-3.891l-4.01,0l0,-1.856l6.282,0l0,6.354Z" style="fill:#fff;fill-rule:nonzero;"/><path d="M322.033,136.635l-7.508,0l0,6.139l8.721,0l0,1.868l-11.006,0l0,-17.323l10.887,0l0,1.88l-8.602,0l0,5.568l7.508,0l0,1.868Z" style="fill:#fff;fill-rule:nonzero;"/><path d="M339.404,144.642l-2.297,0l-8.721,-13.349l0,13.349l-2.296,0l0,-17.323l2.296,0l8.745,13.409l0,-13.409l2.273,0l0,17.323Z" style="fill:#fff;fill-rule:nonzero;"/><path d="M348.565,136.92c-1.959,-0.563 -3.385,-1.255 -4.277,-2.076c-0.892,-0.821 -1.339,-1.834 -1.339,-3.04c0,-1.364 0.546,-2.492 1.636,-3.385c1.091,-0.892 2.509,-1.338 4.254,-1.338c1.19,0 2.251,0.23 3.183,0.69c0.932,0.46 1.654,1.094 2.165,1.904c0.512,0.809 0.768,1.693 0.768,2.653l-2.297,0c0,-1.047 -0.333,-1.87 -0.999,-2.469c-0.667,-0.599 -1.606,-0.898 -2.82,-0.898c-1.126,0 -2.005,0.248 -2.635,0.743c-0.631,0.496 -0.946,1.184 -0.946,2.065c0,0.706 0.299,1.302 0.898,1.79c0.599,0.488 1.618,0.934 3.058,1.339c1.439,0.404 2.566,0.85 3.379,1.338c0.813,0.488 1.416,1.057 1.808,1.708c0.393,0.65 0.589,1.416 0.589,2.296c0,1.404 -0.547,2.528 -1.642,3.373c-1.094,0.845 -2.558,1.267 -4.39,1.267c-1.19,0 -2.3,-0.228 -3.332,-0.684c-1.031,-0.456 -1.826,-1.081 -2.385,-1.874c-0.559,-0.793 -0.839,-1.693 -0.839,-2.701l2.296,0c0,1.047 0.387,1.874 1.16,2.481c0.774,0.607 1.807,0.91 3.1,0.91c1.206,0 2.13,-0.246 2.772,-0.737c0.643,-0.492 0.964,-1.162 0.964,-2.011c0,-0.849 -0.298,-1.505 -0.892,-1.969c-0.595,-0.464 -1.674,-0.922 -3.237,-1.375Z" style="fill:#fff;fill-rule:nonzero;"/><path d="M363.652,141.608l4.95,-14.289l2.498,0l-6.425,17.323l-2.022,0l-6.413,-17.323l2.486,0l4.926,14.289Z" style="fill:#fff;fill-rule:nonzero;"/><path d="M383.212,136.635l-7.507,0l0,6.139l8.721,0l0,1.868l-11.006,0l0,-17.323l10.887,0l0,1.88l-8.602,0l0,5.568l7.507,0l0,1.868Z" style="fill:#fff;fill-rule:nonzero;"/><path d="M393.623,137.634l-4.069,0l0,7.008l-2.296,0l0,-17.323l5.735,0c1.951,0 3.452,0.444 4.503,1.332c1.051,0.889 1.577,2.182 1.577,3.879c0,1.079 -0.292,2.019 -0.875,2.82c-0.583,0.801 -1.394,1.4 -2.433,1.797l4.069,7.353l0,0.142l-2.451,0l-3.76,-7.008Zm-4.069,-1.868l3.51,0c1.134,0 2.037,-0.293 2.707,-0.88c0.67,-0.587 1.005,-1.372 1.005,-2.356c0,-1.071 -0.319,-1.892 -0.957,-2.463c-0.639,-0.571 -1.561,-0.86 -2.767,-0.868l-3.498,0l0,6.567Z" style="fill:#fff;fill-rule:nonzero;"/><path d="M406.009,139.181l0.333,2.285l0.488,-2.059l3.427,-12.088l1.927,0l3.344,12.088l0.476,2.094l0.368,-2.332l2.689,-11.85l2.297,0l-4.2,17.323l-2.082,0l-3.57,-12.624l-0.274,-1.32l-0.273,1.32l-3.7,12.624l-2.083,0l-4.188,-17.323l2.285,0l2.736,11.862Z" style="fill:#fff;fill-rule:nonzero;"/><path d="M432.946,140.121l-7.257,0l-1.63,4.521l-2.356,0l6.615,-17.323l1.999,0l6.627,17.323l-2.344,0l-1.654,-4.521Zm-6.567,-1.88l5.889,0l-2.95,-8.102l-2.939,8.102Z" style="fill:#fff;fill-rule:nonzero;"/><path d="M441.573,142.774l8.209,0l0,1.868l-10.506,0l0,-17.323l2.297,0l0,15.455Z" style="fill:#fff;fill-rule:nonzero;"/><path d="M461.085,129.199l-5.568,0l0,15.443l-2.272,0l0,-15.443l-5.557,0l0,-1.88l13.397,0l0,1.88Z" style="fill:#fff;fill-rule:nonzero;"/><path d="M475.851,127.319l0,11.779c-0.008,1.634 -0.522,2.97 -1.541,4.009c-1.019,1.04 -2.401,1.623 -4.146,1.749l-0.607,0.024c-1.896,0 -3.407,-0.511 -4.533,-1.535c-1.127,-1.023 -1.698,-2.431 -1.714,-4.223l0,-11.803l2.261,0l0,11.731c0,1.253 0.345,2.227 1.035,2.921c0.69,0.694 1.674,1.041 2.951,1.041c1.293,0 2.282,-0.345 2.968,-1.035c0.687,-0.69 1.03,-1.662 1.03,-2.915l0,-11.743l2.296,0Z" style="fill:#fff;fill-rule:nonzero;"/><path d="M492.77,144.642l-2.296,0l-8.722,-13.349l0,13.349l-2.296,0l0,-17.323l2.296,0l8.745,13.409l0,-13.409l2.273,0l0,17.323Z" style="fill:#fff;fill-rule:nonzero;"/><path d="M509.618,142.37c-0.587,0.841 -1.406,1.469 -2.457,1.886c-1.051,0.416 -2.275,0.624 -3.671,0.624c-1.412,0 -2.665,-0.331 -3.76,-0.993c-1.094,-0.663 -1.941,-1.604 -2.54,-2.826c-0.599,-1.222 -0.906,-2.637 -0.922,-4.248l0,-1.511c0,-2.609 0.609,-4.632 1.826,-6.068c1.218,-1.435 2.929,-2.153 5.134,-2.153c1.809,0 3.264,0.462 4.367,1.386c1.103,0.924 1.777,2.235 2.023,3.932l-2.285,0c-0.428,-2.292 -1.792,-3.438 -4.093,-3.438c-1.531,0 -2.691,0.537 -3.48,1.612c-0.789,1.075 -1.188,2.631 -1.196,4.67l0,1.416c0,1.943 0.445,3.488 1.333,4.634c0.888,1.146 2.09,1.719 3.605,1.719c0.857,0 1.606,-0.095 2.249,-0.285c0.642,-0.191 1.174,-0.512 1.594,-0.964l0,-3.891l-4.009,0l0,-1.856l6.282,0l0,6.354Z" style="fill:#fff;fill-rule:nonzero;"/><path d="M532.248,142.37c-0.587,0.841 -1.406,1.469 -2.457,1.886c-1.051,0.416 -2.275,0.624 -3.671,0.624c-1.412,0 -2.665,-0.331 -3.759,-0.993c-1.095,-0.663 -1.942,-1.604 -2.541,-2.826c-0.599,-1.222 -0.906,-2.637 -0.922,-4.248l0,-1.511c0,-2.609 0.609,-4.632 1.827,-6.068c1.217,-1.435 2.928,-2.153 5.134,-2.153c1.808,0 3.264,0.462 4.366,1.386c1.103,0.924 1.777,2.235 2.023,3.932l-2.285,0c-0.428,-2.292 -1.792,-3.438 -4.093,-3.438c-1.53,0 -2.69,0.537 -3.48,1.612c-0.789,1.075 -1.188,2.631 -1.195,4.67l0,1.416c0,1.943 0.444,3.488 1.332,4.634c0.889,1.146 2.09,1.719 3.605,1.719c0.857,0 1.606,-0.095 2.249,-0.285c0.642,-0.191 1.174,-0.512 1.594,-0.964l0,-3.891l-4.009,0l0,-1.856l6.282,0l0,6.354Z" style="fill:#fff;fill-rule:nonzero;"/><path d="M539.006,127.319l5.663,14.135l5.664,-14.135l2.963,0l0,17.323l-2.285,0l0,-6.746l0.214,-7.282l-5.687,14.028l-1.749,0l-5.675,-13.992l0.226,7.246l0,6.746l-2.285,0l0,-17.323l2.951,0Z" style="fill:#fff;fill-rule:nonzero;"/><path d="M557.329,144.642l0,-17.323l5.663,0c1.88,0 3.294,0.388 4.242,1.166c0.948,0.777 1.422,1.927 1.422,3.45c0,0.809 -0.23,1.525 -0.69,2.148c-0.46,0.622 -1.087,1.104 -1.88,1.445c0.936,0.262 1.676,0.76 2.219,1.494c0.543,0.733 0.815,1.608 0.815,2.623c0,1.555 -0.504,2.776 -1.511,3.665c-1.007,0.888 -2.431,1.332 -4.271,1.332l-6.009,0Zm2.284,-8.102l0,6.234l3.772,0c1.063,0 1.902,-0.275 2.517,-0.827c0.614,-0.551 0.922,-1.31 0.922,-2.278c0,-2.086 -1.135,-3.129 -3.403,-3.129l-3.808,0Zm0,-1.833l3.451,0c0.999,0 1.798,-0.249 2.397,-0.749c0.599,-0.5 0.899,-1.178 0.899,-2.035c0,-0.952 -0.278,-1.644 -0.833,-2.076c-0.555,-0.432 -1.4,-0.648 -2.535,-0.648l-3.379,0l0,5.508Z" style="fill:#fff;fill-rule:nonzero;"/><path d="M585.813,144.642l-2.296,0l0,-8.007l-8.734,0l0,8.007l-2.284,0l0,-17.323l2.284,0l0,7.448l8.734,0l0,-7.448l2.296,0l0,17.323Z" style="fill:#fff;fill-rule:nonzero;"/></g></g></svg>