<svg xlink="http://www.w3.org/1999/xlink" viewBox="0 0 6400 4800" xmlns="http://www.w3.org/2000/svg" style="transform: scale(1);"><defs><filter id="goo"><feGaussianBlur in="SourceGraphic" stdDeviation="0" result="blur"></feGaussianBlur><feColorMatrix in="blur" type="matrix" values="1 0 0 0 0 0 1 0 0 0 0 0 1 0 0 0 0 0 19 -9" result="good"></feColorMatrix><feComposite in="SourceGraphic" in2="goo" operator="atop"></feComposite></filter><path d="M296,313C266,332 229,331 204,313C177,290 167,255 176,226C189,193 219,172 250,172C286,174 314,197 324,226C333,260 320,295 296,313z" id="P0"></path><path d="M301,247C301,270 287,290 269,297C247,304 224,298 211,283C197,264 196,240 207,223C221,204 243,196 263,201C285,208 299,227 301,247z" id="P1"></path><path d="M208,264C203,244 210,225 224,214C241,204 262,204 276,214C291,227 297,247 292,264C284,282 267,294 250,294C230,293 214,280 208,264z" id="P2"></path></defs><rect id="RECT" width="6400" height="4800" fill="#FFFFFF"></rect><g id="group" fill="#0094DD" filter=""><use x="787" y="574" href="#P2"></use><use x="-35" y="1302" href="#P1"></use><use x="-40" y="2738" href="#P0"></use><use x="396" y="3547" href="#P1"></use><use x="819" y="4513" href="#P1"></use><use x="1902" y="149" href="#P0"></use><use x="1614" y="1022" href="#P0"></use><use x="1689" y="2205" href="#P2"></use><use x="1528" y="4389" href="#P0"></use><use x="1761" y="5186" href="#P2"></use><use x="3036" y="566" href="#P1"></use><use x="2730" y="1359" href="#P2"></use><use x="2212" y="2319" href="#P2"></use><use x="2451" y="3553" href="#P0"></use><use x="2562" y="5109" href="#P0"></use><use x="3964" y="422" href="#P1"></use><use x="3973" y="1054" href="#P1"></use><use x="3269" y="2767" href="#P0"></use><use x="4179" y="3953" href="#P1"></use><use x="3702" y="5125" href="#P2"></use><use x="4666" y="782" href="#P0"></use><use x="5187" y="1577" href="#P2"></use><use x="4363" y="2149" href="#P2"></use><use x="5042" y="3458" href="#P0"></use><use x="4684" y="5407" href="#P2"></use><use x="6266" y="800" href="#P0"></use><use x="6446" y="1739" href="#P2"></use><use x="6075" y="2719" href="#P1"></use><use x="6474" y="4163" href="#P0"></use><use x="6440" y="4984" href="#P0"></use></g></svg>