<svg viewBox="0 0 767 423" fill="none" xmlns="http://www.w3.org/2000/svg">
<path fill-rule="evenodd" clip-rule="evenodd" d="M766.51 40.4835C455.64 3.27345 429.59 381.333 167.99 419.663C459.98 459.433 508.03 82.0235 766.51 40.4835Z" fill="#EFF6FF"/>
<path fill-rule="evenodd" clip-rule="evenodd" d="M115.53 109.443C143.35 112.853 170.81 119.603 196.44 130.923C226.03 143.993 253.09 163.473 272.82 189.293C303.18 229.043 309.38 273.963 305.52 323.243C295.02 332.543 284.12 341.263 272.73 349.193C268.63 352.053 264.48 354.783 260.3 357.393C270.06 279.343 254.87 208.143 177.44 173.933C131.81 153.773 77.46 150.993 28.42 155.533L0 158.163L18.29 136.253C58.37 88.2335 107.6 52.2535 165.6 28.8735C277.54 -16.2565 448.95 -11.4665 547.67 64.5235C440.94 39.8835 287.45 30.4535 183.18 72.4835C159.11 82.1835 136.47 94.4935 115.53 109.443Z" fill="#EFF6FF"/>
</svg>
