<svg width="493" height="123" viewBox="0 0 493 123" fill="none" xmlns="http://www.w3.org/2000/svg">
<path d="M112.652 31.8796C87.9212 31.8796 67.9009 51.9613 67.9009 76.7681C67.9009 101.575 87.9212 121.656 112.652 121.656C137.383 121.656 157.403 101.575 157.403 76.7681C157.403 51.9613 137.383 31.8796 112.652 31.8796ZM112.652 97.5584C101.818 97.5584 93.3384 90.2346 93.3384 77.0043C93.3384 63.774 101.818 56.45 112.652 56.45C123.487 56.45 131.966 63.774 131.966 77.0043C131.966 90.2346 123.487 97.5584 112.652 97.5584Z" fill="white"/>
<path d="M81.0892 1.40283H0.772461V30.2259H81.0892V1.40283Z" fill="white"/>
<path d="M29.5074 90.2346H0.772461V119.058H29.5074V90.2346Z" fill="white"/>
<path d="M52.3543 45.8188H0.772461V74.6418H52.3543V45.8188Z" fill="white"/>
<path d="M408.479 31.8796C383.749 31.8796 363.729 51.9613 363.729 76.7681C363.729 101.575 383.749 121.656 408.479 121.656C433.209 121.656 453.23 101.575 453.23 76.7681C453.23 51.9613 433.209 31.8796 408.479 31.8796ZM408.479 97.5584C397.646 97.5584 389.165 90.2346 389.165 77.0043C389.165 63.774 397.646 56.45 408.479 56.45C419.315 56.45 427.794 63.774 427.794 77.0043C427.794 90.2346 419.078 97.5584 408.479 97.5584Z" fill="white"/>
<path d="M491.148 90.2346H462.411V119.058H491.148V90.2346Z" fill="white"/>
<path d="M219.814 31.8796C208.273 31.8796 199.087 38.2586 195.083 44.8737V34.7147H169.41V119.058H195.083V74.4055C195.083 61.4114 200.736 56.2138 209.922 56.2138C219.814 56.2138 224.525 61.8841 224.525 74.8779V119.058H250.198V69.2079C249.963 43.9286 235.36 31.8796 219.814 31.8796Z" fill="white"/>
<path d="M325.805 40.6212C319.211 34.9509 311.909 32.1158 303.195 32.1158C280.347 32.1158 261.74 52.1975 261.74 77.0043C261.74 101.811 280.111 121.893 302.722 121.893C311.203 121.893 318.738 119.294 325.805 112.442V119.294H351.479V1.40283H325.805V40.6212ZM307.669 97.5584C296.598 97.5584 287.414 90.2346 287.414 77.0043C287.414 63.774 296.598 56.45 307.669 56.45C318.738 56.45 327.219 63.774 327.219 77.0043C327.219 90.2346 318.738 97.5584 307.669 97.5584Z" fill="white"/>
</svg>
