<?xml version="1.0" encoding="iso-8859-1"?>
<!-- Generator: Adobe Illustrator 19.0.0, SVG Export Plug-In . SVG Version: 6.00 Build 0)  -->
<svg version="1.1" id="Layer_1" xmlns="http://www.w3.org/2000/svg" xmlns:xlink="http://www.w3.org/1999/xlink" x="0px" y="0px"
	 viewBox="0 0 512 512" style="enable-background:new 0 0 512 512;" xml:space="preserve">
<path style="fill:#7DFAA0;" d="M204.693,230.347H33.67c-14.168,0-25.653-11.485-25.653-25.653V33.67
	c0-14.168,11.485-25.653,25.653-25.653h171.023c14.168,0,25.653,11.485,25.653,25.653v171.023
	C230.347,218.861,218.861,230.347,204.693,230.347z"/>
<path style="fill:#FF4B4B;" d="M478.33,230.347H307.307c-14.168,0-25.653-11.485-25.653-25.653V33.67
	c0-14.168,11.485-25.653,25.653-25.653H478.33c14.168,0,25.653,11.485,25.653,25.653v171.023
	C503.983,218.861,492.498,230.347,478.33,230.347z"/>
<path style="fill:#FFDC64;" d="M204.693,503.983H33.67c-14.168,0-25.653-11.485-25.653-25.653V307.307
	c0-14.168,11.485-25.653,25.653-25.653h171.023c14.168,0,25.653,11.485,25.653,25.653V478.33
	C230.347,492.498,218.861,503.983,204.693,503.983z"/>
<path style="fill:#00C3FF;" d="M478.33,503.983H307.307c-14.168,0-25.653-11.485-25.653-25.653V307.307
	c0-14.168,11.485-25.653,25.653-25.653H478.33c14.168,0,25.653,11.485,25.653,25.653V478.33
	C503.983,492.498,492.498,503.983,478.33,503.983z"/>
<path d="M204.693,0H33.67C15.105,0,0,15.105,0,33.67v171.023c0,18.566,15.105,33.67,33.67,33.67h171.023
	c18.566,0,33.67-15.105,33.67-33.67V33.67C238.363,15.105,223.259,0,204.693,0z M222.33,204.693c0,9.725-7.912,17.637-17.637,17.637
	H33.67c-9.725,0-17.637-7.912-17.637-17.637V33.67c0-9.725,7.912-17.637,17.637-17.637h171.023c9.725,0,17.637,7.912,17.637,17.637
	V204.693z"/>
<path d="M478.33,0H307.307c-18.566,0-33.67,15.105-33.67,33.67v171.023c0,18.566,15.105,33.67,33.67,33.67H478.33
	c18.566,0,33.67-15.105,33.67-33.67V33.67C512,15.105,496.895,0,478.33,0z M495.967,204.693c0,9.725-7.912,17.637-17.637,17.637
	H307.307c-9.725,0-17.637-7.912-17.637-17.637V33.67c0-9.725,7.912-17.637,17.637-17.637H478.33c9.725,0,17.637,7.912,17.637,17.637
	V204.693z"/>
<path d="M204.693,273.637H33.67c-18.566,0-33.67,15.105-33.67,33.67V478.33C0,496.895,15.105,512,33.67,512h171.023
	c18.566,0,33.67-15.105,33.67-33.67V307.307C238.363,288.741,223.259,273.637,204.693,273.637z M222.33,478.33
	c0,9.725-7.912,17.637-17.637,17.637H33.67c-9.725,0-17.637-7.912-17.637-17.637V307.307c0-9.725,7.912-17.637,17.637-17.637
	h171.023c9.725,0,17.637,7.912,17.637,17.637V478.33z"/>
<path d="M478.33,273.637H307.307c-18.566,0-33.67,15.105-33.67,33.67V478.33c0,18.566,15.105,33.67,33.67,33.67H478.33
	c18.566,0,33.67-15.105,33.67-33.67V307.307C512,288.741,496.895,273.637,478.33,273.637z M495.967,478.33
	c0,9.725-7.912,17.637-17.637,17.637H307.307c-9.725,0-17.637-7.912-17.637-17.637V307.307c0-9.725,7.912-17.637,17.637-17.637
	H478.33c9.725,0,17.637,7.912,17.637,17.637V478.33z"/>
<path d="M170.489,111.165h-43.29v-43.29c0-4.427-3.589-8.017-8.017-8.017c-4.427,0-8.017,3.589-8.017,8.017v43.29h-43.29
	c-4.427,0-8.017,3.589-8.017,8.017c0,4.427,3.589,8.017,8.017,8.017h43.29v43.29c0,4.427,3.589,8.017,8.017,8.017
	c4.427,0,8.017-3.589,8.017-8.017v-43.29h43.29c4.427,0,8.017-3.589,8.017-8.017C178.505,114.754,174.916,111.165,170.489,111.165z"
	/>
<path d="M444.125,111.165H341.511c-4.427,0-8.017,3.589-8.017,8.017c0,4.427,3.589,8.017,8.017,8.017h102.614
	c4.427,0,8.017-3.589,8.017-8.017C452.142,114.754,448.553,111.165,444.125,111.165z"/>
<path d="M444.125,384.802H341.511c-4.427,0-8.017,3.589-8.017,8.017c0,4.427,3.589,8.017,8.017,8.017h102.614
	c4.427,0,8.017-3.589,8.017-8.017C452.142,388.391,448.553,384.802,444.125,384.802z"/>
<path d="M167.606,344.394c-3.131-3.131-8.207-3.131-11.337,0l-37.087,37.087l-37.087-37.087c-3.131-3.131-8.207-3.131-11.337,0
	c-3.131,3.131-3.131,8.207,0,11.337l37.087,37.087l-37.087,37.087c-3.131,3.131-3.131,8.207,0,11.337
	c1.565,1.566,3.617,2.348,5.668,2.348c2.051,0,4.103-0.782,5.668-2.348l37.087-37.087l37.087,37.087
	c1.565,1.565,3.617,2.348,5.668,2.348c2.051,0,4.103-0.782,5.668-2.348c3.131-3.131,3.131-8.207,0-11.337l-37.087-37.087
	l37.087-37.087C170.736,352.601,170.736,347.524,167.606,344.394z"/>
<path d="M392.861,349.614c4.427,0,8.059-3.632,8.059-8.059c0-4.427-3.632-8.059-8.059-8.059s-8.059,3.632-8.059,8.059
	C384.802,345.982,388.434,349.614,392.861,349.614z"/>
<path d="M392.861,436.023c-4.427,0-8.059,3.632-8.059,8.059c0,4.427,3.632,8.059,8.059,8.059s8.059-3.632,8.059-8.059
	C400.921,439.655,397.289,436.023,392.861,436.023z"/>
<g>
</g>
<g>
</g>
<g>
</g>
<g>
</g>
<g>
</g>
<g>
</g>
<g>
</g>
<g>
</g>
<g>
</g>
<g>
</g>
<g>
</g>
<g>
</g>
<g>
</g>
<g>
</g>
<g>
</g>
</svg>
