<?xml version="1.0" encoding="utf-8"?>
<!-- Generator: Adobe Illustrator 25.2.3, SVG Export Plug-In . SVG Version: 6.00 Build 0)  -->
<svg version="1.1" id="Layer_1" xmlns="http://www.w3.org/2000/svg" xmlns:xlink="http://www.w3.org/1999/xlink" x="0px" y="0px"
	 viewBox="0 0 2560 1440" style="enable-background:new 0 0 2560 1440;" xml:space="preserve">
<style type="text/css">
	.st0{fill:#FFFFFF;}
	.st1{fill-rule:evenodd;clip-rule:evenodd;fill:#0095DA;}
</style>
<g>
	<g>
		<path class="st0" d="M813.46,868.8c5.66,0,11.42-0.37,17.19-1.12c5.77-0.8,11.53-2.14,17.19-4.06c5.66-1.92,11.21-4.59,16.55-7.96
			c7.63-5.07,13.67-10.73,18.05-17.03c4.43-6.25,7.53-12.71,9.4-19.33c1.82-6.67,2.72-13.13,2.67-19.38
			c0.05-7.58-0.91-14.73-2.78-21.51c-1.87-6.78-4.86-13.35-8.97-19.81c-4.11-6.46-9.5-12.97-16.23-19.59
			c-6.73-6.62-14.89-13.51-24.56-20.77l-8.97-6.73c-8.81-6.67-15.64-12.55-20.61-17.67c-4.96-5.13-8.43-9.93-10.46-14.42
			c-1.97-4.54-2.94-9.24-2.88-14.04c0.05-6.46,1.55-12.17,4.59-17.08c3.04-4.97,7.42-8.81,13.13-11.64
			c5.66-2.77,12.44-4.22,20.39-4.27c6.89,0.05,12.65,0.96,17.24,2.72c4.59,1.71,8.28,3.79,11.1,6.19c2.83,2.4,5.02,4.64,6.57,6.78
			c2.24,2.83,3.95,5.66,5.18,8.54c1.17,2.88,2.03,5.45,2.51,7.69c0.43,2.24,0.7,3.9,0.64,4.91c0,1.92,0.27,3.36,0.75,4.33
			c0.53,0.96,1.34,1.44,2.46,1.44c1.28,0.05,2.19-0.69,2.72-2.19c0.53-1.44,0.8-3.95,0.8-7.42c0-8.27,0.11-15,0.32-20.18
			c0.21-5.12,0.43-9.13,0.64-12.01c0.21-2.83,0.32-4.91,0.32-6.25c0-1.12-0.37-1.98-1.17-2.51c-0.75-0.59-1.87-1.01-3.31-1.34
			c-4.11-1.23-9.66-2.4-16.6-3.58c-6.99-1.18-15.64-1.76-26-1.87c-11.16,0.05-21.3,1.55-30.32,4.48
			c-9.08,2.99-16.87,7.15-23.38,12.54c-6.51,5.45-11.48,11.8-15,19.17c-3.47,7.37-5.23,15.48-5.29,24.34
			c-0.05,8.59,1.44,16.98,4.48,25.09c3.04,8.12,8.01,16.34,14.95,24.66c6.99,8.33,16.28,17.03,27.97,26.16l14.73,11.53
			c6.62,5.18,11.96,10.04,16.12,14.57c4.16,4.54,7.31,8.86,9.56,12.97c2.19,4.11,3.74,8.12,4.54,12.01c0.85,3.9,1.23,7.8,1.17,11.69
			c0,4.32-0.86,8.59-2.67,12.87c-1.76,4.27-4.43,8.22-7.95,11.75c-3.58,3.58-8.06,6.46-13.4,8.6c-5.39,2.13-11.69,3.26-18.9,3.31
			c-6.67,0.05-13.08-1.01-19.11-3.1c-6.09-2.14-11.48-5.55-16.12-10.36c-4.64-4.75-8.17-11.05-10.57-18.9
			c-0.8-2.78-1.49-5.66-2.03-8.65c-0.53-2.94-0.85-5.5-0.85-7.69c0.05-1.33-0.11-2.56-0.53-3.68c-0.37-1.12-1.28-1.71-2.67-1.76
			c-1.28,0.05-2.19,0.85-2.78,2.35c-0.59,1.55-0.91,3.52-1.07,5.98c-0.11,1.34-0.21,3.42-0.37,6.25c-0.16,2.83-0.37,6.19-0.53,10.04
			c-0.21,3.9-0.37,8.01-0.48,12.44c-0.16,4.38-0.21,8.81-0.21,13.24c0,2.3,0.11,4.11,0.43,5.45c0.32,1.33,0.91,2.4,1.82,3.2
			c0.85,0.8,2.13,1.55,3.84,2.24c6.83,2.99,13.99,5.18,21.57,6.46C795.84,868.21,804.22,868.85,813.46,868.8L813.46,868.8z
			 M997.65,747.08c-0.48,0-0.96-0.11-1.34-0.37c-0.37-0.27-0.59-0.75-0.59-1.55v-5.77c0-10.25,0-18.79,0-25.57
			c0-6.78,0.05-12.33,0.05-16.66c0.05-4.27,0.11-7.74,0.21-10.46c0.11-2.72,0.21-5.12,0.37-7.21c0.21-4.75,1.12-8.22,2.62-10.52
			c1.55-2.24,4.16-3.63,7.96-4.22c1.6-0.32,3.04-0.59,4.38-0.75c1.28-0.16,2.51-0.21,3.63-0.21c1.76,0,3.04-0.27,3.9-0.75
			c0.8-0.48,1.23-1.17,1.23-2.13c0-0.96-0.48-1.6-1.44-2.03c-0.96-0.37-2.4-0.53-4.32-0.53c-2.88,0-6.09,0.05-9.66,0.11
			c-3.52,0.05-7.15,0.11-10.73,0.21c-3.63,0.11-6.94,0.16-9.98,0.21c-2.99,0.05-5.34,0.11-7.1,0.11c-2.67,0-6.25-0.05-10.78-0.16
			c-4.54-0.11-9.5-0.21-14.84-0.32c-5.34-0.11-10.57-0.16-15.7-0.16c-1.92,0-3.42,0.16-4.48,0.53c-1.07,0.43-1.6,1.07-1.6,2.03
			c0,0.96,0.48,1.66,1.33,2.13c0.86,0.48,2.03,0.75,3.47,0.75c2.13,0,4.27,0.05,6.35,0.21c2.03,0.16,3.68,0.43,4.86,0.75
			c2.99,0.8,5.29,1.76,6.99,2.88c1.71,1.12,2.94,2.62,3.74,4.48c0.8,1.82,1.28,4.32,1.44,7.37c0.05,1.65,0.11,3.47,0.16,5.34
			c0.05,1.87,0.05,4.17,0.11,6.78c0,2.67,0.05,5.93,0.05,9.88c0,3.95,0,8.81,0,14.63c0,5.82,0,12.81,0,21.04v48.05
			c0,8.38,0,16.23-0.05,23.6c-0.05,7.31-0.16,13.93-0.32,19.75c-0.16,5.87-0.48,10.73-0.91,14.63c-0.43,4-1.17,7.26-2.35,9.72
			c-1.17,2.46-3.15,4.06-5.98,4.7c-1.28,0.32-2.72,0.59-4.38,0.75c-1.6,0.16-3.47,0.21-5.55,0.21c-1.71,0.05-2.94,0.37-3.58,0.96
			c-0.64,0.59-0.96,1.23-0.91,1.92c0,0.96,0.48,1.66,1.39,2.13c0.96,0.48,2.3,0.75,4.06,0.75c2.88,0,6.03-0.05,9.5-0.16
			c3.47-0.11,6.94-0.21,10.41-0.32c3.47-0.11,6.62-0.21,9.5-0.32c2.88-0.11,5.13-0.16,6.78-0.16c2.78,0,6.57,0.11,11.37,0.27
			c4.86,0.16,10.25,0.27,16.23,0.42c5.98,0.16,12.06,0.27,18.2,0.27c1.76,0,3.2-0.27,4.22-0.75c1.02-0.48,1.55-1.17,1.55-2.13
			c0-0.69-0.32-1.33-1.02-1.92c-0.75-0.59-1.87-0.91-3.47-0.96c-1.44,0-2.99-0.05-4.75-0.11c-1.71-0.05-3.42-0.16-5.12-0.32
			c-1.71-0.16-3.2-0.32-4.54-0.53c-2.72-0.43-4.86-1.28-6.3-2.51c-1.5-1.23-2.56-2.83-3.2-4.8c-0.64-1.92-1.12-4.22-1.39-6.78
			c-0.43-4.01-0.75-8.86-0.96-14.68c-0.27-5.77-0.43-12.28-0.53-19.54c-0.05-7.26-0.11-15.11-0.11-23.44v-20.82
			c0-0.64,0.21-1.07,0.59-1.28c0.37-0.21,0.85-0.32,1.34-0.32h106.35c0.37,0,0.69,0.16,1.07,0.43c0.32,0.27,0.53,0.7,0.53,1.18
			v20.82c0,8.38,0,16.18-0.05,23.38c0,7.26-0.16,13.77-0.32,19.54c-0.16,5.71-0.48,10.52-0.91,14.41c-0.37,4-1.18,7.26-2.35,9.72
			c-1.18,2.46-3.15,4.06-5.98,4.7c-1.28,0.32-2.72,0.59-4.38,0.75c-1.71,0.16-3.63,0.21-5.87,0.21c-1.6,0.05-2.72,0.37-3.42,0.96
			c-0.75,0.59-1.07,1.23-1.07,1.92c0,0.96,0.53,1.66,1.6,2.13c1.07,0.48,2.56,0.75,4.48,0.75c2.78,0,5.98-0.05,9.5-0.16
			c3.58-0.11,7.15-0.21,10.78-0.32c3.63-0.11,6.94-0.21,9.93-0.32c2.99-0.11,5.29-0.16,6.94-0.16c2.67,0,6.3,0.11,10.89,0.27
			c4.64,0.16,9.88,0.27,15.7,0.42c5.82,0.16,11.8,0.27,17.94,0.27c1.82,0,3.2-0.27,4.22-0.75c1.01-0.48,1.55-1.17,1.55-2.13
			c0-0.69-0.37-1.33-1.17-1.92c-0.75-0.59-1.87-0.91-3.31-0.96c-2.3,0-4.8-0.05-7.42-0.21c-2.67-0.16-4.97-0.43-6.99-0.75
			c-2.83-0.43-5.02-1.28-6.51-2.51c-1.55-1.23-2.62-2.83-3.26-4.8c-0.69-1.92-1.17-4.22-1.44-6.78c-0.43-4.01-0.69-8.92-0.91-14.84
			c-0.16-5.87-0.27-12.49-0.32-19.86c-0.05-7.37-0.05-15.22-0.05-23.6v-48.05c0-8.22,0-15.22,0-21.04c0-5.82,0-10.68,0.05-14.63
			c0-3.95,0.05-7.21,0.11-9.88c0.05-2.61,0.11-4.91,0.16-6.78c0.11-1.87,0.21-3.68,0.32-5.34c0.27-4.75,1.12-8.22,2.62-10.52
			c1.5-2.24,4-3.63,7.63-4.22c1.76-0.32,3.31-0.59,4.64-0.75c1.34-0.16,2.56-0.21,3.68-0.21c1.6,0,2.88-0.27,3.79-0.75
			c0.85-0.48,1.33-1.17,1.33-2.13c0-0.96-0.48-1.6-1.49-2.03c-0.96-0.37-2.51-0.53-4.59-0.53c-2.78,0-5.87,0.05-9.29,0.11
			c-3.42,0.05-6.89,0.11-10.36,0.21c-3.47,0.11-6.67,0.16-9.56,0.21c-2.94,0.05-5.23,0.11-6.99,0.11c-1.87,0-4.43-0.05-7.58-0.11
			c-3.2-0.05-6.73-0.11-10.68-0.21c-3.9-0.11-7.95-0.16-12.07-0.21c-4.16-0.05-8.11-0.11-11.96-0.11c-2.08,0-3.58,0.16-4.59,0.53
			c-1.02,0.43-1.49,1.07-1.49,2.03c0,1.92,1.6,2.88,4.8,2.88c2.03,0,4,0.05,6.03,0.21c2.08,0.16,3.68,0.43,4.86,0.75
			c2.99,0.8,5.29,1.76,6.99,2.88c1.71,1.12,2.94,2.62,3.74,4.48c0.8,1.82,1.28,4.32,1.44,7.37c0.11,2.08,0.16,4.49,0.27,7.21
			c0.05,2.72,0.11,6.19,0.16,10.46c0.11,4.32,0.11,9.88,0.16,16.66c0.05,6.78,0.05,15.32,0.05,25.57v5.77c0,0.8-0.21,1.28-0.53,1.55
			c-0.37,0.27-0.69,0.37-1.07,0.37H997.65L997.65,747.08z M1314.12,795.77h-66.31c-0.75,0-1.34,0.11-1.65,0.37
			c-0.32,0.27-0.64,0.75-0.91,1.55l-15.06,36.51c-1.44,3.42-2.51,6.67-3.15,9.66c-0.69,2.99-1.02,5.34-1.02,6.99
			c-0.05,2.4,0.69,4.32,2.35,5.66c1.66,1.34,4.59,2.03,8.86,2.03h4.16c1.71,0,2.83,0.32,3.42,0.85c0.53,0.53,0.8,1.23,0.75,2.03
			c0,1.12-0.37,1.87-1.17,2.3c-0.75,0.43-1.87,0.59-3.31,0.59c-3.15,0-6.57-0.11-10.25-0.27c-3.74-0.16-7.42-0.27-11.05-0.42
			c-3.68-0.16-7.05-0.27-10.09-0.27c-1.01,0-3.2,0.11-6.46,0.27c-3.31,0.16-7.21,0.27-11.85,0.42c-4.59,0.16-9.4,0.27-14.36,0.27
			c-1.76,0-3.04-0.16-3.9-0.59c-0.8-0.43-1.23-1.17-1.23-2.3c0-0.8,0.27-1.49,0.75-2.03c0.53-0.53,1.33-0.85,2.46-0.85
			c1.33,0,2.72-0.05,4.17-0.16c1.49-0.11,2.88-0.16,4.16-0.16c4.22-0.64,7.69-1.97,10.46-4c2.78-2.03,5.18-4.75,7.15-8.11
			c1.97-3.31,3.9-7.31,5.77-11.91l73.67-171.37c1.55-3.84,2.99-6.62,4.27-8.33c1.28-1.76,2.67-2.62,4.06-2.56
			c1.39,0,2.51,0.27,3.36,0.91c0.91,0.59,1.71,1.49,2.46,2.78c0.75,1.28,1.6,2.94,2.51,4.96c1.02,2.24,2.72,6.19,5.18,11.85
			c2.4,5.71,5.39,12.6,8.86,20.77c3.47,8.17,7.26,17.08,11.37,26.75c4.11,9.66,8.33,19.59,12.71,29.79
			c4.32,10.2,8.59,20.18,12.76,29.9c4.16,9.77,8.01,18.85,11.58,27.17c3.63,8.33,6.67,15.48,9.29,21.46
			c2.72,6.09,5.28,11,7.63,14.79c2.35,3.74,4.54,6.62,6.57,8.6c1.98,2.03,3.79,3.42,5.45,4.27c1.66,0.85,3.1,1.39,4.38,1.65
			c2.08,0.32,3.95,0.59,5.66,0.75c1.71,0.16,3.31,0.21,4.91,0.21c2.56,0,3.84,0.96,3.84,2.88c0.05,0.75-0.21,1.33-0.8,1.76
			c-0.59,0.43-1.76,0.69-3.52,0.85c-1.76,0.16-4.38,0.27-7.85,0.27c-3.36,0-7.74,0-13.19-0.05c-5.45,0-11.64-0.05-18.58-0.16
			c-6.94-0.05-14.42-0.21-22.37-0.43c-2.56-0.11-4.59-0.27-6.09-0.53c-1.44-0.21-2.19-0.8-2.24-1.71c-0.05-0.8,0.21-1.44,0.7-1.92
			c0.48-0.48,1.44-0.8,2.83-0.96c1.01-0.21,1.87-0.85,2.51-1.98c0.59-1.12,0.64-2.46,0.05-4.11L1317,797.69
			c-0.32-0.8-0.69-1.28-1.18-1.55C1315.35,795.87,1314.76,795.77,1314.12,795.77L1314.12,795.77z M1253.58,780.71h54.45
			c0.64,0,1.07-0.16,1.23-0.43c0.21-0.32,0.21-0.69,0.05-1.18l-26.59-69.19c-0.16-0.53-0.32-1.07-0.54-1.65
			c-0.16-0.53-0.43-0.85-0.75-0.91c-0.48,0.05-0.8,0.37-1.02,0.91c-0.27,0.59-0.43,1.12-0.59,1.65l-27.23,68.87
			c-0.32,0.64-0.32,1.12-0.11,1.44C1252.73,780.55,1253.1,780.71,1253.58,780.71L1253.58,780.71z M1438.08,785.2
			c0,8.38,0,16.23-0.05,23.6c-0.05,7.31-0.16,13.93-0.32,19.75c-0.16,5.87-0.48,10.73-0.91,14.63c-0.43,4-1.18,7.26-2.35,9.72
			c-1.17,2.46-3.15,4.06-5.98,4.7c-1.28,0.32-2.72,0.59-4.38,0.75c-1.6,0.16-3.47,0.21-5.55,0.21c-1.71,0.05-2.94,0.37-3.58,0.96
			c-0.64,0.59-0.96,1.23-0.91,1.92c0,0.96,0.48,1.66,1.39,2.13c0.96,0.48,2.3,0.75,4.06,0.75c2.88,0,5.98-0.05,9.4-0.16
			c3.36-0.11,6.73-0.21,10.09-0.32c3.31-0.11,6.3-0.21,8.97-0.32c2.67-0.11,4.75-0.16,6.14-0.16c1.12,0,3.2,0.05,6.3,0.16
			c3.1,0.11,6.83,0.21,11.1,0.32c4.27,0.11,8.7,0.21,13.35,0.32c4.59,0.11,8.97,0.16,13.13,0.16c1.76,0,3.2-0.27,4.22-0.75
			c1.01-0.48,1.55-1.17,1.55-2.13c0-0.69-0.32-1.33-0.91-1.92c-0.64-0.59-1.5-0.91-2.62-0.96c-1.18,0-2.62-0.05-4.22-0.11
			c-1.6-0.05-3.26-0.16-4.91-0.32c-1.66-0.16-3.2-0.32-4.65-0.53c-2.83-0.43-4.96-1.28-6.46-2.51c-1.44-1.28-2.51-2.88-3.1-4.91
			c-0.64-1.98-1.07-4.32-1.33-7c-0.43-3.9-0.75-8.7-0.96-14.52c-0.27-5.82-0.43-12.39-0.54-19.75c-0.05-7.31-0.11-15.22-0.11-23.7
			v-3.84c0-0.8,0.21-1.39,0.64-1.71c0.43-0.37,0.96-0.53,1.6-0.53l25.3,0.64c0.96,0,1.87,0.11,2.67,0.37
			c0.85,0.27,1.66,0.75,2.46,1.55c0.91,1.07,2.24,2.94,4.06,5.5c1.82,2.56,3.95,5.6,6.35,9.13c2.46,3.47,5.02,7.21,7.79,11.1
			c2.78,3.9,5.55,7.69,8.38,11.42c5.18,7.05,9.93,13.19,14.25,18.42c4.27,5.23,8.38,9.66,12.28,13.24c3.95,3.58,7.9,6.35,11.91,8.38
			c2.4,1.28,5.02,2.29,7.74,3.1c2.78,0.8,6.03,1.39,9.72,1.82c3.68,0.37,8.12,0.53,13.29,0.53h26.91c1.76,0,3.1-0.16,4.06-0.59
			c0.91-0.43,1.39-1.17,1.39-2.3c0-0.69-0.32-1.33-0.91-1.92c-0.64-0.59-1.49-0.91-2.62-0.96c-1.07,0-2.14,0-3.1-0.05
			c-1.02-0.11-2.24-0.27-3.63-0.59c-1.49-0.21-3.58-0.75-6.3-1.6c-2.72-0.8-6.09-2.46-10.04-4.91c-3.95-2.46-8.54-6.3-13.77-11.42
			c-8.43-8.54-17.72-18.85-27.92-31.02c-10.14-12.17-21.46-25.94-33.9-41.37c9.18-7.31,16.6-14.31,22.37-20.93
			c5.77-6.67,9.98-13.19,12.71-19.65c2.72-6.4,4.06-12.97,4-19.65c-0.05-4.59-0.69-8.86-1.98-12.81c-1.28-3.95-2.94-7.53-4.96-10.73
			c-2.03-3.2-4.16-5.98-6.46-8.38c-2.24-2.35-4.43-4.16-6.46-5.55c-5.07-3.26-10.57-5.77-16.55-7.42
			c-5.98-1.66-12.12-2.78-18.42-3.31c-6.35-0.59-12.49-0.85-18.52-0.8c-2.24,0-5.29,0.05-9.13,0.11c-3.9,0.05-8.01,0.11-12.44,0.21
			s-8.65,0.16-12.6,0.21c-4,0.05-7.21,0.11-9.72,0.11c-1.5,0-3.58-0.05-6.35-0.11c-2.77-0.05-5.93-0.11-9.5-0.21
			c-3.58-0.11-7.26-0.16-11.16-0.21c-3.9-0.05-7.69-0.11-11.42-0.11c-2.08,0-3.68,0.16-4.75,0.53c-1.12,0.43-1.65,1.07-1.65,2.03
			c0,0.96,0.48,1.66,1.33,2.13c0.85,0.48,2.03,0.75,3.47,0.75c2.14,0,4.27,0.05,6.35,0.21c2.03,0.16,3.68,0.43,4.86,0.75
			c2.99,0.8,5.29,1.76,6.99,2.88c1.71,1.12,2.94,2.62,3.74,4.48c0.8,1.82,1.28,4.32,1.44,7.37c0.05,1.65,0.11,3.47,0.16,5.34
			c0.06,1.87,0.06,4.17,0.11,6.78c0,2.67,0.05,5.93,0.05,9.88c0,3.95,0,8.81,0,14.63c0,5.82,0,12.81,0,21.04V785.2L1438.08,785.2z
			 M1473.96,677.25c0-1.12,0.16-1.98,0.53-2.51c0.43-0.59,1.07-1.07,2.03-1.33c1.49-0.32,3.79-0.59,6.78-0.75
			c2.99-0.16,6.3-0.21,9.88-0.21c3.36-0.05,6.99,0.43,10.84,1.33c3.9,0.91,7.69,2.46,11.48,4.59c3.74,2.19,7.21,5.13,10.3,8.81
			c3.1,3.68,5.61,8.33,7.42,13.83c1.87,5.55,2.83,12.12,2.88,19.81c-0.05,7.42-1.01,13.83-2.83,19.06
			c-1.76,5.29-4.06,9.66-6.83,13.13c-2.78,3.42-5.66,6.19-8.6,8.17c-1.55,1.18-3.15,2.08-4.8,2.72c-1.65,0.64-3.63,1.12-5.98,1.39
			c-2.35,0.27-5.39,0.37-9.08,0.37c-3.58,0-7.31-0.16-11.1-0.53c-3.79-0.43-7.26-1.07-10.36-2.03c-0.96-0.43-1.6-1.01-2.03-1.71
			c-0.37-0.64-0.53-1.71-0.53-3.1V677.25L1473.96,677.25z M1657.82,785.2v-48.05c0-8.22,0-15.22,0-21.04c0-5.82,0-10.68,0-14.63
			c0-3.95-0.05-7.21-0.05-9.88c-0.05-2.61-0.05-4.91-0.11-6.78c-0.05-1.87-0.11-3.68-0.16-5.34c-0.16-3.04-0.64-5.55-1.44-7.37
			c-0.8-1.87-2.03-3.36-3.74-4.48c-1.71-1.12-4-2.08-6.99-2.88c-1.17-0.32-2.83-0.59-4.86-0.75c-2.08-0.16-4.22-0.21-6.35-0.21
			c-1.44,0-2.62-0.27-3.47-0.75c-0.85-0.48-1.33-1.17-1.33-2.13c0-0.96,0.53-1.6,1.65-2.03c1.07-0.37,2.67-0.53,4.75-0.53
			c5.02,0,10.09,0.05,15.32,0.16c5.23,0.11,10.04,0.21,14.52,0.32c4.48,0.11,8.12,0.16,10.84,0.16c2.94,0,6.41-0.05,10.36-0.11
			c4-0.05,8.17-0.11,12.54-0.21c4.38-0.11,8.65-0.16,12.76-0.21c4.16-0.05,7.85-0.11,11.11-0.11c8.76,0.05,16.28,0.69,22.42,1.87
			c6.19,1.18,11.32,2.62,15.38,4.38c4.06,1.71,7.26,3.42,9.61,5.07c2.35,1.71,4.06,3.04,5.12,4.06c2.08,1.92,4.22,4.54,6.35,7.74
			c2.13,3.26,3.95,6.94,5.44,11.21c1.49,4.22,2.24,8.76,2.3,13.72c-0.05,9.66-1.87,18.47-5.45,26.53c-3.52,8.01-8.54,15-14.95,20.87
			c-6.41,5.87-13.88,10.46-22.42,13.67c-8.6,3.2-17.88,4.86-27.97,4.91c-0.48,0-1.28,0-2.46,0c-1.12-0.05-2.3-0.05-3.42-0.11
			c-1.18-0.05-1.98-0.11-2.46-0.21c-0.85,0-1.66-0.27-2.35-0.75c-0.75-0.48-1.12-1.18-1.18-2.14c0-1.12,0.8-1.97,2.35-2.62
			c1.6-0.59,3.9-0.91,6.94-0.91c4.01,0,8.17-1.01,12.55-2.99c4.32-1.98,8.43-4.86,12.22-8.65c3.84-3.79,6.94-8.43,9.34-13.88
			c2.4-5.5,3.63-11.69,3.68-18.69c0.11-3.1-0.16-6.89-0.8-11.48c-0.64-4.54-2.19-9.4-4.54-14.41c-2.4-5.07-6.14-9.93-11.32-14.47
			c-3.47-2.94-6.94-5.18-10.41-6.67c-3.53-1.44-6.83-2.46-9.88-2.94c-3.1-0.48-5.71-0.7-7.9-0.64c-2.19,0-4.38,0.05-6.67,0.27
			c-2.3,0.21-4.11,0.53-5.5,1.01c-0.8,0.32-1.39,0.85-1.71,1.71c-0.37,0.85-0.53,1.98-0.53,3.42V785.2c0,8.38,0,16.23,0.05,23.6
			c0.05,7.37,0.16,13.99,0.32,19.86c0.21,5.93,0.48,10.84,0.91,14.84c0.27,2.56,0.75,4.86,1.39,6.78c0.64,1.97,1.71,3.58,3.2,4.8
			c1.44,1.23,3.58,2.08,6.3,2.51c2.19,0.32,4.59,0.59,7.21,0.75c2.67,0.16,5.07,0.21,7.21,0.21c1.6,0.05,2.72,0.37,3.47,0.96
			c0.69,0.59,1.01,1.23,1.01,1.92c-0.05,0.96-0.53,1.66-1.49,2.13c-0.96,0.48-2.14,0.75-3.63,0.75c-6.35,0-12.6-0.11-18.74-0.27
			c-6.09-0.16-11.53-0.27-16.34-0.42c-4.8-0.16-8.49-0.27-11.05-0.27c-1.65,0-3.9,0.05-6.67,0.16c-2.83,0.11-5.93,0.21-9.29,0.32
			c-3.42,0.11-6.78,0.21-10.2,0.32c-3.42,0.11-6.57,0.16-9.4,0.16c-1.76,0-3.1-0.27-4.06-0.75c-0.91-0.48-1.39-1.17-1.39-2.13
			c-0.05-0.69,0.27-1.33,0.91-1.92c0.64-0.59,1.87-0.91,3.58-0.96c2.08,0,3.95-0.05,5.55-0.21c1.65-0.16,3.1-0.43,4.38-0.75
			c2.83-0.64,4.8-2.24,5.98-4.7c1.17-2.46,1.92-5.71,2.35-9.72c0.43-3.9,0.75-8.75,0.91-14.63c0.16-5.82,0.27-12.44,0.32-19.75
			C1657.82,801.43,1657.82,793.58,1657.82,785.2z"/>
		<path class="st0" d="M1886.53,763.74c0-0.96,0.16-1.55,0.48-1.87c0.32-0.27,0.8-0.43,1.44-0.37c1.01,0,2.99,0,5.87,0.05
			c2.88,0,6.25,0.05,10.09,0.11c3.84,0.05,7.69,0.11,11.64,0.16c3.95,0.11,7.47,0.16,10.62,0.27c3.15,0.11,5.44,0.21,6.94,0.37
			c2.88,0.27,5.23,0.91,7.05,1.98c1.81,1.12,3.26,2.35,4.27,3.79c1.02,1.44,1.71,2.83,2.14,4.16c0.64,1.6,1.12,3.15,1.44,4.65
			c0.32,1.44,0.48,2.67,0.48,3.68c0,1.02,0.27,1.87,0.69,2.62c0.43,0.8,1.07,1.17,1.87,1.23c0.96-0.05,1.66-0.37,2.14-1.07
			c0.43-0.69,0.75-1.5,0.85-2.46c0.16-0.91,0.21-1.76,0.21-2.56c0-0.53,0-1.6,0.05-3.15c0.05-1.6,0.11-3.42,0.21-5.45
			c0.05-2.08,0.16-4.11,0.27-6.14c0.11-2.03,0.27-3.74,0.43-5.12c0.32-2.94,0.69-5.61,1.01-8.06c0.32-2.46,0.64-4.54,0.86-6.19
			c0.27-1.71,0.37-2.78,0.37-3.36c0-0.8-0.16-1.44-0.43-1.87c-0.32-0.48-0.7-0.69-1.17-0.69c-0.75,0-1.39,0.32-1.92,0.85
			c-0.53,0.54-1.17,1.23-1.92,2.03c-1.28,1.71-2.94,2.94-4.96,3.58c-2.03,0.69-4.32,1.12-6.89,1.23c-2.03,0.16-4.11,0.27-6.14,0.27
			c-2.08,0.05-4.27,0.05-6.67,0.05l-39.4,0.32c-0.8,0-1.28-0.22-1.55-0.7c-0.27-0.43-0.37-1.07-0.37-1.87v-65.99
			c0-1.55,0.21-2.62,0.69-3.15c0.43-0.48,1.07-0.75,1.87-0.69l46.77,0.96c5.23,0.21,9.34,1.17,12.22,2.83
			c2.88,1.66,4.81,3.47,5.71,5.5c0.91,1.98,1.44,3.84,1.55,5.71c0.11,1.87,0.11,3.36,0.05,4.54c0.05,1.6,0.37,2.72,1.07,3.42
			c0.64,0.75,1.49,1.07,2.46,1.07c0.96-0.11,1.6-0.7,2.03-1.87c0.43-1.18,0.69-2.35,0.85-3.58c0.11-0.85,0.16-2.35,0.27-4.38
			c0.16-2.08,0.27-4.32,0.37-6.78c0.11-2.46,0.21-4.7,0.37-6.73c0.11-2.03,0.16-3.42,0.27-4.22c0.53-3.47,1.01-6.14,1.49-8.01
			c0.48-1.87,0.7-3.26,0.75-4.16c0-0.69-0.21-1.28-0.59-1.76c-0.37-0.53-0.86-0.8-1.34-0.8c-0.8,0.05-1.55,0.27-2.24,0.69
			c-0.69,0.37-1.44,0.7-2.24,0.91c-1.44,0.32-3.04,0.59-4.91,0.75c-1.87,0.21-4.06,0.37-6.62,0.53c-1.18,0.05-3.68,0.11-7.53,0.11
			c-3.79,0-8.38,0.05-13.78,0.05c-5.45,0-11.16-0.05-17.19-0.05c-5.98,0-11.85,0-17.46-0.05c-5.66,0-10.62,0-14.89-0.05
			c-4.27,0-7.31,0-9.24,0c-2.77,0-6.35-0.05-10.84-0.16c-4.43-0.11-9.24-0.21-14.41-0.32c-5.18-0.11-10.2-0.16-15.11-0.16
			c-2.24,0-3.9,0.16-5.02,0.53c-1.12,0.43-1.71,1.07-1.71,2.03c0.05,0.96,0.53,1.66,1.44,2.13c0.91,0.48,2.03,0.75,3.36,0.75
			c2.14,0,4.27,0.05,6.35,0.21c2.03,0.16,3.68,0.43,4.86,0.75c2.99,0.69,5.29,1.6,6.99,2.72c1.71,1.12,2.94,2.67,3.74,4.54
			c0.8,1.92,1.28,4.38,1.44,7.47c0.05,1.65,0.11,3.47,0.16,5.34c0.05,1.87,0.05,4.17,0.11,6.78c0,2.67,0.05,5.93,0.05,9.88
			c0,3.95,0,8.81,0,14.63c0,5.82,0,12.81,0,21.04v48.05c0.05,13.19,0,24.66-0.16,34.49c-0.11,9.88-0.48,17.67-1.12,23.49
			c-0.43,4-1.17,7.26-2.35,9.72c-1.17,2.46-3.15,4.06-5.98,4.7c-1.28,0.32-2.72,0.59-4.38,0.75c-1.6,0.16-3.47,0.21-5.55,0.21
			c-1.55,0.05-2.67,0.37-3.26,0.96c-0.64,0.59-0.91,1.23-0.91,1.92c0,1.12,0.48,1.87,1.44,2.3c0.96,0.43,2.4,0.59,4.32,0.59
			c2.67,0,5.71-0.05,9.02-0.16c3.36-0.11,6.73-0.21,10.14-0.32c3.36-0.11,6.57-0.21,9.5-0.32c2.94-0.11,5.34-0.16,7.21-0.16
			c2.56,0,6.19,0.11,11,0.27c4.81,0.16,10.14,0.27,16.12,0.42c5.98,0.16,11.96,0.27,18.05,0.27c2.08,0,3.63-0.27,4.59-0.75
			c1.01-0.48,1.5-1.17,1.5-2.13c0-0.69-0.32-1.33-1.07-1.92c-0.75-0.59-1.97-0.91-3.74-0.96c-1.28,0-2.77-0.05-4.43-0.11
			c-1.66-0.05-3.26-0.16-4.91-0.32c-1.65-0.16-3.1-0.32-4.43-0.53c-2.72-0.43-4.86-1.28-6.41-2.51c-1.5-1.28-2.62-2.88-3.31-4.91
			c-0.69-1.98-1.23-4.32-1.5-7c-0.64-5.76-1.07-13.45-1.28-23.01c-0.21-9.5-0.32-20.87-0.32-34.01V763.74L1886.53,763.74z
			 M2023.94,785.2c0,8.81,0,16.98-0.05,24.56c-0.05,7.58-0.16,14.31-0.32,20.18c-0.16,5.93-0.48,10.73-0.91,14.52
			c-0.43,3.95-1.17,6.99-2.35,9.08c-1.17,2.08-3.15,3.47-5.98,4.06c-1.28,0.32-2.72,0.59-4.38,0.75c-1.6,0.16-3.47,0.21-5.55,0.21
			c-1.71,0.05-2.94,0.37-3.58,0.96c-0.64,0.59-0.96,1.23-0.91,1.92c0,0.96,0.48,1.66,1.39,2.13c0.96,0.48,2.3,0.75,4.06,0.75
			c2.88,0,6.03-0.05,9.61-0.16c3.52-0.11,7.05-0.21,10.62-0.32c3.53-0.11,6.78-0.21,9.72-0.32c2.94-0.11,5.23-0.16,6.89-0.16
			c2.62,0,6.35,0.11,11.1,0.27c4.75,0.16,10.09,0.27,16.02,0.42c5.98,0.16,12.12,0.27,18.36,0.27c1.66,0,2.94-0.27,3.9-0.75
			c1.02-0.48,1.5-1.17,1.55-2.13c0-0.69-0.32-1.33-1.07-1.92c-0.69-0.59-1.82-0.91-3.42-0.96c-1.44,0-2.99-0.05-4.75-0.11
			c-1.71-0.05-3.42-0.16-5.12-0.32c-1.71-0.16-3.2-0.32-4.54-0.53c-2.72-0.43-4.86-1.17-6.41-2.24c-1.49-1.07-2.62-2.51-3.31-4.27
			c-0.69-1.76-1.23-3.84-1.5-6.3c-0.43-3.9-0.69-8.81-0.91-14.73c-0.16-5.93-0.27-12.71-0.32-20.29
			c-0.05-7.58-0.05-15.75-0.05-24.56v-48.05c0-8.22,0-15.22,0-21.04c0-5.82,0-10.68,0.05-14.63c0-3.95,0.05-7.26,0.11-9.88
			c0-2.61,0.11-4.91,0.16-6.78c0.11-1.87,0.21-3.68,0.32-5.34c0.21-4.75,1.12-8.22,2.62-10.52c1.55-2.24,4.16-3.63,7.95-4.22
			c1.55-0.32,2.99-0.59,4.27-0.75c1.28-0.16,2.67-0.21,4.06-0.21c1.44,0,2.56-0.21,3.31-0.64c0.8-0.48,1.17-1.33,1.17-2.56
			c0-0.8-0.53-1.39-1.55-1.71c-1.01-0.37-2.46-0.53-4.22-0.53c-2.78,0-5.87,0.05-9.23,0.11c-3.42,0.05-6.83,0.11-10.3,0.21
			s-6.62,0.16-9.56,0.21c-2.94,0.05-5.28,0.11-7.1,0.11c-2.03,0-4.65-0.05-7.79-0.11c-3.15-0.05-6.51-0.11-10.14-0.21
			c-3.63-0.11-7.15-0.16-10.62-0.21c-3.47-0.05-6.51-0.11-9.24-0.11c-2.24,0-3.9,0.16-5.02,0.53c-1.12,0.32-1.71,0.91-1.71,1.71
			c0,1.23,0.37,2.08,1.18,2.56c0.75,0.43,1.87,0.64,3.31,0.64c1.76,0,3.52,0.05,5.23,0.27c1.76,0.21,3.42,0.53,5.02,1.01
			c2.03,0.59,3.74,1.44,5.07,2.51c1.33,1.07,2.4,2.56,3.1,4.48c0.75,1.87,1.23,4.32,1.44,7.42c0.05,1.65,0.1,3.47,0.16,5.34
			c0.06,1.87,0.06,4.17,0.11,6.78c0,2.62,0.05,5.93,0.05,9.88c0,3.95,0,8.81,0,14.63c0,5.82,0,12.81,0,21.04V785.2L2023.94,785.2z
			 M2168.73,716.01h0.96c1.44,1.28,4.16,4.06,8.27,8.38c4.11,4.32,9.18,9.66,15.21,16.02c6.09,6.35,12.71,13.19,19.97,20.61
			c7.26,7.37,14.79,14.79,22.53,22.26c7.42,7.21,15.05,14.52,22.85,21.99c7.74,7.47,15.38,14.74,22.74,21.78
			c7.42,7.1,14.31,13.61,20.61,19.54c6.3,5.98,11.69,11,16.12,15.16c1.44,1.49,3.15,2.83,5.07,3.95c1.92,1.18,4.06,1.76,6.46,1.82
			c1.17,0,2.19-0.64,3.1-2.03c0.85-1.39,1.34-3.58,1.39-6.62l3.2-171.69c0.11-5.07,0.43-9.13,1.12-12.17
			c0.64-2.99,1.65-5.28,3.15-6.89c1.44-1.55,3.42-2.67,5.98-3.36c1.71-0.48,3.26-0.75,4.59-0.85c1.28-0.11,2.67-0.16,4.06-0.11
			c1.6-0.05,2.83-0.32,3.63-0.85c0.8-0.53,1.18-1.23,1.18-2.03c0-1.07-0.59-1.82-1.76-2.14c-1.12-0.32-2.67-0.48-4.65-0.43
			c-6.94,0-12.87,0.11-17.72,0.32c-4.86,0.21-8.11,0.32-9.82,0.32c-2.08,0-4.96-0.05-8.7-0.16c-3.74-0.11-7.95-0.21-12.65-0.32
			c-4.7-0.11-9.56-0.16-14.52-0.16c-2.08-0.05-3.79,0.11-5.07,0.43c-1.28,0.32-1.92,1.07-1.97,2.14c0,0.8,0.27,1.49,0.91,2.03
			c0.69,0.53,1.87,0.8,3.58,0.85c1.33,0,2.88,0,4.59,0.05c1.76,0.05,3.52,0.16,5.34,0.43c1.76,0.21,3.42,0.59,4.8,1.12
			c2.24,0.8,4.06,2.03,5.45,3.63c1.33,1.65,2.35,4.11,3.04,7.31c0.64,3.2,1.02,7.58,1.12,13.08l2.88,121.08h-1.28
			c-0.91-0.85-2.94-2.83-6.08-6.03c-3.15-3.15-7-7.1-11.59-11.75c-4.59-4.64-9.45-9.56-14.68-14.84
			c-5.18-5.23-10.25-10.36-15.21-15.32c-4.97-4.97-9.4-9.4-13.29-13.24c-8.27-8.06-16.39-16.07-24.45-24.08
			c-8.01-7.95-15.64-15.53-22.8-22.74c-7.21-7.21-13.61-13.72-19.27-19.43c-5.71-5.77-10.3-10.41-13.83-14.04
			c-3.58-3.58-5.71-5.76-6.46-6.51c-2.4-2.46-4.59-4.59-6.57-6.3c-1.98-1.71-3.84-2.62-5.61-2.67c-1.44,0.05-2.61,0.91-3.47,2.62
			c-0.85,1.66-1.33,3.9-1.33,6.67l-2.56,161.44c-0.05,7.85-0.32,14.04-0.75,18.69c-0.43,4.59-1.23,8.01-2.46,10.2
			c-1.23,2.14-3.04,3.52-5.44,4.11c-1.98,0.48-4.11,0.8-6.41,1.02c-2.3,0.16-4.43,0.27-6.41,0.27c-1.28,0-2.35,0.32-3.2,0.85
			c-0.8,0.53-1.23,1.23-1.28,2.03c0.05,1.23,0.64,2.03,1.76,2.4c1.17,0.37,2.72,0.53,4.64,0.48c4.86,0,9.45-0.11,13.72-0.27
			c4.27-0.16,7.9-0.27,10.89-0.42c2.99-0.16,4.91-0.27,5.82-0.27c2.61,0.05,7.05,0.21,13.35,0.48c6.25,0.27,13.99,0.43,23.17,0.48
			c1.98,0,3.52-0.16,4.64-0.59c1.18-0.43,1.76-1.17,1.76-2.3c0-0.8-0.37-1.49-1.18-2.03c-0.8-0.53-2.03-0.85-3.63-0.85
			c-2.3,0-4.7-0.11-7.26-0.37c-2.56-0.27-5.02-0.75-7.48-1.55c-1.81-0.59-3.42-1.82-4.75-3.79c-1.39-1.98-2.46-4.97-3.31-9.08
			c-0.8-4.06-1.33-9.61-1.55-16.6L2168.73,716.01z"/>
	</g>
	<g>
		<path class="st1" d="M889.01,524.67c-310.87-37.21-336.92,340.85-598.52,379.18C582.48,943.62,630.53,566.21,889.01,524.67z"/>
		<path class="st1" d="M238.03,593.63c27.82,3.41,55.28,10.16,80.91,21.48c29.59,13.07,56.65,32.55,76.38,58.37
			c30.36,39.75,36.56,84.67,32.7,133.95c-10.5,9.3-21.4,18.02-32.79,25.95c-4.1,2.86-8.25,5.59-12.43,8.2
			c9.76-78.05-5.43-149.25-82.86-183.46c-45.63-20.16-99.98-22.94-149.02-18.4l-28.42,2.63l18.29-21.91
			c40.08-48.02,89.31-84,147.31-107.38c111.94-45.13,283.35-40.34,382.07,35.65c-106.73-24.64-260.22-34.07-364.49,7.96
			C281.61,566.37,258.97,578.68,238.03,593.63z"/>
	</g>
</g>
</svg>