<svg width="2239" height="423" viewBox="0 0 2239 423" fill="none" xmlns="http://www.w3.org/2000/svg">
<path d="M691.46 384.8C697.12 384.8 702.88 384.43 708.65 383.68C714.42 382.88 720.18 381.54 725.84 379.62C731.5 377.7 737.05 375.03 742.39 371.66C750.02 366.59 756.06 360.93 760.44 354.63C764.87 348.38 767.97 341.92 769.84 335.3C771.66 328.63 772.56 322.17 772.51 315.92C772.56 308.34 771.6 301.19 769.73 294.41C767.86 287.63 764.87 281.06 760.76 274.6C756.65 268.14 751.26 261.63 744.53 255.01C737.8 248.39 729.64 241.5 719.97 234.24L711 227.51C702.19 220.84 695.36 214.96 690.39 209.84C685.43 204.71 681.96 199.91 679.93 195.42C677.96 190.88 676.99 186.18 677.05 181.38C677.1 174.92 678.6 169.21 681.64 164.3C684.68 159.33 689.06 155.49 694.77 152.66C700.43 149.89 707.21 148.44 715.16 148.39C722.05 148.44 727.81 149.35 732.4 151.11C736.99 152.82 740.68 154.9 743.5 157.3C746.33 159.7 748.52 161.94 750.07 164.08C752.31 166.91 754.02 169.74 755.25 172.62C756.42 175.5 757.28 178.07 757.76 180.31C758.19 182.55 758.46 184.21 758.4 185.22C758.4 187.14 758.67 188.58 759.15 189.55C759.68 190.51 760.49 190.99 761.61 190.99C762.89 191.04 763.8 190.3 764.33 188.8C764.86 187.36 765.13 184.85 765.13 181.38C765.13 173.11 765.24 166.38 765.45 161.2C765.66 156.08 765.88 152.07 766.09 149.19C766.3 146.36 766.41 144.28 766.41 142.94C766.41 141.82 766.04 140.96 765.24 140.43C764.49 139.84 763.37 139.42 761.93 139.09C757.82 137.86 752.27 136.69 745.33 135.51C738.34 134.33 729.69 133.75 719.33 133.64C708.17 133.69 698.03 135.19 689.01 138.12C679.93 141.11 672.14 145.27 665.63 150.66C659.12 156.11 654.15 162.46 650.63 169.83C647.16 177.2 645.4 185.31 645.34 194.17C645.29 202.76 646.78 211.15 649.82 219.26C652.86 227.38 657.83 235.6 664.77 243.92C671.76 252.25 681.05 260.95 692.74 270.08L707.47 281.61C714.09 286.79 719.43 291.65 723.59 296.18C727.75 300.72 730.9 305.04 733.15 309.15C735.34 313.26 736.89 317.27 737.69 321.16C738.54 325.06 738.92 328.96 738.86 332.85C738.86 337.17 738 341.44 736.19 345.72C734.43 349.99 731.76 353.94 728.24 357.47C724.66 361.05 720.18 363.93 714.84 366.07C709.45 368.2 703.15 369.33 695.94 369.38C689.27 369.43 682.86 368.37 676.83 366.28C670.74 364.14 665.35 360.73 660.71 355.92C656.07 351.17 652.54 344.87 650.14 337.02C649.34 334.24 648.65 331.36 648.11 328.37C647.58 325.43 647.26 322.87 647.26 320.68C647.31 319.35 647.15 318.12 646.73 317C646.36 315.88 645.45 315.29 644.06 315.24C642.78 315.29 641.87 316.09 641.28 317.59C640.69 319.14 640.37 321.11 640.21 323.57C640.1 324.91 640 326.99 639.84 329.82C639.68 332.65 639.47 336.01 639.31 339.86C639.1 343.76 638.94 347.87 638.83 352.3C638.67 356.68 638.62 361.11 638.62 365.54C638.62 367.84 638.73 369.65 639.05 370.99C639.37 372.32 639.96 373.39 640.87 374.19C641.72 374.99 643 375.74 644.71 376.43C651.54 379.42 658.7 381.61 666.28 382.89C673.84 384.21 682.22 384.85 691.46 384.8ZM875.65 263.08C875.17 263.08 874.69 262.97 874.31 262.71C873.94 262.44 873.72 261.96 873.72 261.16V255.39C873.72 245.14 873.72 236.6 873.72 229.82C873.72 223.04 873.77 217.49 873.77 213.16C873.82 208.89 873.88 205.42 873.98 202.7C874.09 199.98 874.19 197.58 874.35 195.49C874.56 190.74 875.47 187.27 876.97 184.97C878.52 182.73 881.13 181.34 884.93 180.75C886.53 180.43 887.97 180.16 889.31 180C890.59 179.84 891.82 179.79 892.94 179.79C894.7 179.79 895.98 179.52 896.84 179.04C897.64 178.56 898.07 177.87 898.07 176.91C898.07 175.95 897.59 175.31 896.63 174.88C895.67 174.51 894.23 174.35 892.31 174.35C889.43 174.35 886.22 174.4 882.65 174.46C879.13 174.51 875.5 174.57 871.92 174.67C868.29 174.78 864.98 174.83 861.94 174.88C858.95 174.93 856.6 174.99 854.84 174.99C852.17 174.99 848.59 174.94 844.06 174.83C839.52 174.72 834.56 174.62 829.22 174.51C823.88 174.4 818.65 174.35 813.52 174.35C811.6 174.35 810.1 174.51 809.04 174.88C807.97 175.31 807.44 175.95 807.44 176.91C807.44 177.87 807.92 178.57 808.77 179.04C809.63 179.52 810.8 179.79 812.24 179.79C814.37 179.79 816.51 179.84 818.59 180C820.62 180.16 822.27 180.43 823.45 180.75C826.44 181.55 828.74 182.51 830.44 183.63C832.15 184.75 833.38 186.25 834.18 188.11C834.98 189.93 835.46 192.43 835.62 195.48C835.67 197.13 835.73 198.95 835.78 200.82C835.83 202.69 835.83 204.99 835.89 207.6C835.89 210.27 835.94 213.53 835.94 217.48C835.94 221.43 835.94 226.29 835.94 232.11C835.94 237.93 835.94 244.92 835.94 253.15V301.2C835.94 309.58 835.94 317.43 835.89 324.8C835.84 332.11 835.73 338.73 835.57 344.55C835.41 350.42 835.09 355.28 834.66 359.18C834.23 363.18 833.49 366.44 832.31 368.9C831.14 371.36 829.16 372.96 826.33 373.6C825.05 373.92 823.61 374.19 821.95 374.35C820.35 374.51 818.48 374.56 816.4 374.56C814.69 374.61 813.46 374.93 812.82 375.52C812.18 376.11 811.86 376.75 811.91 377.44C811.91 378.4 812.39 379.1 813.3 379.57C814.26 380.05 815.6 380.32 817.36 380.32C820.24 380.32 823.39 380.27 826.86 380.16C830.33 380.05 833.8 379.95 837.27 379.84C840.74 379.73 843.89 379.63 846.77 379.52C849.65 379.41 851.9 379.36 853.55 379.36C856.33 379.36 860.12 379.47 864.92 379.63C869.78 379.79 875.17 379.9 881.15 380.05C887.13 380.21 893.21 380.32 899.35 380.32C901.11 380.32 902.55 380.05 903.57 379.57C904.59 379.09 905.12 378.4 905.12 377.44C905.12 376.75 904.8 376.11 904.1 375.52C903.35 374.93 902.23 374.61 900.63 374.56C899.19 374.56 897.64 374.51 895.88 374.45C894.17 374.4 892.46 374.29 890.76 374.13C889.05 373.97 887.56 373.81 886.22 373.6C883.5 373.17 881.36 372.32 879.92 371.09C878.42 369.86 877.36 368.26 876.72 366.29C876.08 364.37 875.6 362.07 875.33 359.51C874.9 355.5 874.58 350.65 874.37 344.83C874.1 339.06 873.94 332.55 873.84 325.29C873.79 318.03 873.73 310.18 873.73 301.85V281.03C873.73 280.39 873.94 279.96 874.32 279.75C874.69 279.54 875.17 279.43 875.66 279.43H982.01C982.38 279.43 982.7 279.59 983.08 279.86C983.4 280.13 983.61 280.56 983.61 281.04V301.86C983.61 310.24 983.61 318.04 983.56 325.24C983.56 332.5 983.4 339.01 983.24 344.78C983.08 350.49 982.76 355.3 982.33 359.19C981.96 363.19 981.15 366.45 979.98 368.91C978.8 371.37 976.83 372.97 974 373.61C972.72 373.93 971.28 374.2 969.62 374.36C967.91 374.52 965.99 374.57 963.75 374.57C962.15 374.62 961.03 374.94 960.33 375.53C959.58 376.12 959.26 376.76 959.26 377.45C959.26 378.41 959.79 379.11 960.86 379.58C961.93 380.06 963.42 380.33 965.34 380.33C968.12 380.33 971.32 380.28 974.84 380.17C978.42 380.06 981.99 379.96 985.62 379.85C989.25 379.74 992.56 379.64 995.55 379.53C998.54 379.42 1000.84 379.37 1002.49 379.37C1005.16 379.37 1008.79 379.48 1013.38 379.64C1018.02 379.8 1023.26 379.91 1029.08 380.06C1034.9 380.22 1040.88 380.33 1047.02 380.33C1048.84 380.33 1050.22 380.06 1051.24 379.58C1052.25 379.1 1052.79 378.41 1052.79 377.45C1052.79 376.76 1052.42 376.12 1051.62 375.53C1050.87 374.94 1049.75 374.62 1048.31 374.57C1046.01 374.57 1043.51 374.52 1040.89 374.36C1038.22 374.2 1035.92 373.93 1033.9 373.61C1031.07 373.18 1028.88 372.33 1027.39 371.1C1025.84 369.87 1024.77 368.27 1024.13 366.3C1023.44 364.38 1022.96 362.08 1022.69 359.52C1022.26 355.51 1022 350.6 1021.78 344.68C1021.62 338.81 1021.51 332.19 1021.46 324.82C1021.41 317.45 1021.41 309.6 1021.41 301.22V253.17C1021.41 244.95 1021.41 237.95 1021.41 232.13C1021.41 226.31 1021.41 221.45 1021.46 217.5C1021.46 213.55 1021.51 210.29 1021.57 207.62C1021.62 205.01 1021.68 202.71 1021.73 200.84C1021.84 198.97 1021.94 197.16 1022.05 195.5C1022.32 190.75 1023.17 187.28 1024.67 184.98C1026.17 182.74 1028.67 181.35 1032.3 180.76C1034.06 180.44 1035.61 180.17 1036.94 180.01C1038.28 179.85 1039.5 179.8 1040.62 179.8C1042.22 179.8 1043.5 179.53 1044.41 179.05C1045.26 178.57 1045.74 177.88 1045.74 176.92C1045.74 175.96 1045.26 175.32 1044.25 174.89C1043.29 174.52 1041.74 174.36 1039.66 174.36C1036.88 174.36 1033.79 174.41 1030.37 174.47C1026.95 174.52 1023.48 174.58 1020.01 174.68C1016.54 174.79 1013.34 174.84 1010.45 174.89C1007.51 174.94 1005.22 175 1003.46 175C1001.59 175 999.03 174.95 995.88 174.89C992.68 174.84 989.15 174.78 985.2 174.68C981.3 174.57 977.25 174.52 973.13 174.47C968.97 174.42 965.02 174.36 961.17 174.36C959.09 174.36 957.59 174.52 956.58 174.89C955.56 175.32 955.09 175.96 955.09 176.92C955.09 178.84 956.69 179.8 959.89 179.8C961.92 179.8 963.89 179.85 965.92 180.01C968 180.17 969.6 180.44 970.78 180.76C973.77 181.56 976.07 182.52 977.77 183.64C979.48 184.76 980.71 186.26 981.51 188.12C982.31 189.94 982.79 192.44 982.95 195.49C983.06 197.57 983.11 199.98 983.22 202.7C983.27 205.42 983.33 208.89 983.38 213.16C983.49 217.48 983.49 223.04 983.54 229.82C983.59 236.6 983.59 245.14 983.59 255.39V261.16C983.59 261.96 983.38 262.44 983.06 262.71C982.69 262.98 982.37 263.08 981.99 263.08H875.65ZM1192.12 311.77H1125.81C1125.06 311.77 1124.47 311.88 1124.16 312.14C1123.84 312.41 1123.52 312.89 1123.25 313.69L1108.19 350.2C1106.75 353.62 1105.68 356.87 1105.04 359.86C1104.35 362.85 1104.02 365.2 1104.02 366.85C1103.97 369.25 1104.71 371.17 1106.37 372.51C1108.03 373.85 1110.96 374.54 1115.23 374.54H1119.39C1121.1 374.54 1122.22 374.86 1122.81 375.39C1123.34 375.92 1123.61 376.62 1123.56 377.42C1123.56 378.54 1123.19 379.29 1122.39 379.72C1121.64 380.15 1120.52 380.31 1119.08 380.31C1115.93 380.31 1112.51 380.2 1108.83 380.04C1105.09 379.88 1101.41 379.77 1097.78 379.62C1094.1 379.46 1090.73 379.35 1087.69 379.35C1086.68 379.35 1084.49 379.46 1081.23 379.62C1077.92 379.78 1074.02 379.89 1069.38 380.04C1064.79 380.2 1059.98 380.31 1055.02 380.31C1053.26 380.31 1051.98 380.15 1051.12 379.72C1050.32 379.29 1049.89 378.55 1049.89 377.42C1049.89 376.62 1050.16 375.93 1050.64 375.39C1051.17 374.86 1051.97 374.54 1053.1 374.54C1054.43 374.54 1055.82 374.49 1057.27 374.38C1058.76 374.27 1060.15 374.22 1061.43 374.22C1065.65 373.58 1069.12 372.25 1071.89 370.22C1074.67 368.19 1077.07 365.47 1079.04 362.11C1081.01 358.8 1082.94 354.8 1084.81 350.2L1158.48 178.83C1160.03 174.99 1161.47 172.21 1162.75 170.5C1164.03 168.74 1165.42 167.88 1166.81 167.94C1168.2 167.94 1169.32 168.21 1170.17 168.85C1171.08 169.44 1171.88 170.34 1172.63 171.63C1173.38 172.91 1174.23 174.57 1175.14 176.59C1176.16 178.83 1177.86 182.78 1180.32 188.44C1182.72 194.15 1185.71 201.04 1189.18 209.21C1192.65 217.38 1196.44 226.29 1200.55 235.96C1204.66 245.62 1208.88 255.55 1213.26 265.75C1217.58 275.95 1221.85 285.93 1226.02 295.65C1230.18 305.42 1234.03 314.5 1237.6 322.82C1241.23 331.15 1244.27 338.3 1246.89 344.28C1249.61 350.37 1252.17 355.28 1254.52 359.07C1256.87 362.81 1259.06 365.69 1261.09 367.67C1263.07 369.7 1264.88 371.09 1266.54 371.94C1268.2 372.79 1269.64 373.33 1270.92 373.59C1273 373.91 1274.87 374.18 1276.58 374.34C1278.29 374.5 1279.89 374.55 1281.49 374.55C1284.05 374.55 1285.33 375.51 1285.33 377.43C1285.38 378.18 1285.12 378.76 1284.53 379.19C1283.94 379.62 1282.77 379.88 1281.01 380.04C1279.25 380.2 1276.63 380.31 1273.16 380.31C1269.8 380.31 1265.42 380.31 1259.97 380.26C1254.52 380.26 1248.33 380.21 1241.39 380.1C1234.45 380.05 1226.97 379.89 1219.02 379.67C1216.46 379.56 1214.43 379.4 1212.93 379.14C1211.49 378.93 1210.74 378.34 1210.69 377.43C1210.64 376.63 1210.9 375.99 1211.39 375.51C1211.87 375.03 1212.83 374.71 1214.22 374.55C1215.23 374.34 1216.09 373.7 1216.73 372.57C1217.32 371.45 1217.37 370.11 1216.78 368.46L1195 313.69C1194.68 312.89 1194.31 312.41 1193.82 312.14C1193.35 311.87 1192.76 311.77 1192.12 311.77ZM1131.58 296.71H1186.03C1186.67 296.71 1187.1 296.55 1187.26 296.28C1187.47 295.96 1187.47 295.59 1187.31 295.1L1160.72 225.91C1160.56 225.38 1160.4 224.84 1160.18 224.26C1160.02 223.73 1159.75 223.41 1159.43 223.35C1158.95 223.4 1158.63 223.72 1158.41 224.26C1158.14 224.85 1157.98 225.38 1157.82 225.91L1130.59 294.78C1130.27 295.42 1130.27 295.9 1130.48 296.22C1130.73 296.55 1131.1 296.71 1131.58 296.71ZM1316.08 301.2C1316.08 309.58 1316.08 317.43 1316.03 324.8C1315.98 332.11 1315.87 338.73 1315.71 344.55C1315.55 350.42 1315.23 355.28 1314.8 359.18C1314.37 363.18 1313.62 366.44 1312.45 368.9C1311.28 371.36 1309.3 372.96 1306.47 373.6C1305.19 373.92 1303.75 374.19 1302.09 374.35C1300.49 374.51 1298.62 374.56 1296.54 374.56C1294.83 374.61 1293.6 374.93 1292.96 375.52C1292.32 376.11 1292 376.75 1292.05 377.44C1292.05 378.4 1292.53 379.1 1293.44 379.57C1294.4 380.05 1295.74 380.32 1297.5 380.32C1300.38 380.32 1303.48 380.27 1306.9 380.16C1310.26 380.05 1313.63 379.95 1316.99 379.84C1320.3 379.73 1323.29 379.63 1325.96 379.52C1328.63 379.41 1330.71 379.36 1332.1 379.36C1333.22 379.36 1335.3 379.41 1338.4 379.52C1341.5 379.63 1345.23 379.73 1349.5 379.84C1353.77 379.95 1358.2 380.05 1362.85 380.16C1367.44 380.27 1371.82 380.32 1375.98 380.32C1377.74 380.32 1379.18 380.05 1380.2 379.57C1381.21 379.09 1381.75 378.4 1381.75 377.44C1381.75 376.75 1381.43 376.11 1380.84 375.52C1380.2 374.93 1379.34 374.61 1378.22 374.56C1377.04 374.56 1375.6 374.51 1374 374.45C1372.4 374.4 1370.74 374.29 1369.09 374.13C1367.43 373.97 1365.89 373.81 1364.44 373.6C1361.61 373.17 1359.48 372.32 1357.98 371.09C1356.54 369.81 1355.47 368.21 1354.88 366.18C1354.24 364.2 1353.81 361.86 1353.55 359.18C1353.12 355.28 1352.8 350.48 1352.59 344.66C1352.32 338.84 1352.16 332.27 1352.05 324.91C1352 317.6 1351.94 309.69 1351.94 301.21V297.37C1351.94 296.57 1352.15 295.98 1352.58 295.66C1353.01 295.29 1353.54 295.13 1354.18 295.13L1379.48 295.77C1380.44 295.77 1381.35 295.88 1382.15 296.14C1383 296.41 1383.81 296.89 1384.61 297.69C1385.52 298.76 1386.85 300.63 1388.67 303.19C1390.49 305.75 1392.62 308.79 1395.02 312.32C1397.48 315.79 1400.04 319.53 1402.81 323.42C1405.59 327.32 1408.36 331.11 1411.19 334.84C1416.37 341.89 1421.12 348.03 1425.44 353.26C1429.71 358.49 1433.82 362.92 1437.72 366.5C1441.67 370.08 1445.62 372.85 1449.63 374.88C1452.03 376.16 1454.65 377.17 1457.37 377.98C1460.15 378.78 1463.4 379.37 1467.09 379.8C1470.77 380.17 1475.21 380.33 1480.38 380.33H1507.29C1509.05 380.33 1510.39 380.17 1511.35 379.74C1512.26 379.31 1512.74 378.57 1512.74 377.44C1512.74 376.75 1512.42 376.11 1511.83 375.52C1511.19 374.93 1510.34 374.61 1509.21 374.56C1508.14 374.56 1507.07 374.56 1506.11 374.51C1505.09 374.4 1503.87 374.24 1502.48 373.92C1500.99 373.71 1498.9 373.17 1496.18 372.32C1493.46 371.52 1490.09 369.86 1486.14 367.41C1482.19 364.95 1477.6 361.11 1472.37 355.99C1463.94 347.45 1454.65 337.14 1444.45 324.97C1434.31 312.8 1422.99 299.03 1410.55 283.6C1419.73 276.29 1427.15 269.29 1432.92 262.67C1438.69 256 1442.9 249.48 1445.63 243.02C1448.35 236.62 1449.69 230.05 1449.63 223.37C1449.58 218.78 1448.94 214.51 1447.65 210.56C1446.37 206.61 1444.71 203.03 1442.69 199.83C1440.66 196.63 1438.53 193.85 1436.23 191.45C1433.99 189.1 1431.8 187.29 1429.77 185.9C1424.7 182.64 1419.2 180.13 1413.22 178.48C1407.24 176.82 1401.1 175.7 1394.8 175.17C1388.45 174.58 1382.31 174.32 1376.28 174.37C1374.04 174.37 1370.99 174.42 1367.15 174.48C1363.25 174.53 1359.14 174.59 1354.71 174.69C1350.28 174.79 1346.06 174.85 1342.11 174.9C1338.11 174.95 1334.9 175.01 1332.39 175.01C1330.89 175.01 1328.81 174.96 1326.04 174.9C1323.27 174.85 1320.11 174.79 1316.54 174.69C1312.96 174.58 1309.28 174.53 1305.38 174.48C1301.48 174.43 1297.69 174.37 1293.96 174.37C1291.88 174.37 1290.28 174.53 1289.21 174.9C1288.09 175.33 1287.56 175.97 1287.56 176.93C1287.56 177.89 1288.04 178.59 1288.89 179.06C1289.74 179.54 1290.92 179.81 1292.36 179.81C1294.5 179.81 1296.63 179.86 1298.71 180.02C1300.74 180.18 1302.39 180.45 1303.57 180.77C1306.56 181.57 1308.86 182.53 1310.56 183.65C1312.27 184.77 1313.5 186.27 1314.3 188.13C1315.1 189.95 1315.58 192.45 1315.74 195.5C1315.79 197.15 1315.85 198.97 1315.9 200.84C1315.96 202.71 1315.96 205.01 1316.01 207.62C1316.01 210.29 1316.06 213.55 1316.06 217.5C1316.06 221.45 1316.06 226.31 1316.06 232.13C1316.06 237.95 1316.06 244.94 1316.06 253.17V301.2H1316.08ZM1351.96 193.25C1351.96 192.13 1352.12 191.27 1352.49 190.74C1352.92 190.15 1353.56 189.67 1354.52 189.41C1356.01 189.09 1358.31 188.82 1361.3 188.66C1364.29 188.5 1367.6 188.45 1371.18 188.45C1374.54 188.4 1378.17 188.88 1382.02 189.78C1385.92 190.69 1389.71 192.24 1393.5 194.37C1397.24 196.56 1400.71 199.5 1403.8 203.18C1406.9 206.86 1409.41 211.51 1411.22 217.01C1413.09 222.56 1414.05 229.13 1414.1 236.82C1414.05 244.24 1413.09 250.65 1411.27 255.88C1409.51 261.17 1407.21 265.54 1404.44 269.01C1401.66 272.43 1398.78 275.2 1395.84 277.18C1394.29 278.36 1392.69 279.26 1391.04 279.9C1389.39 280.54 1387.41 281.02 1385.06 281.29C1382.71 281.56 1379.67 281.66 1375.98 281.66C1372.4 281.66 1368.67 281.5 1364.88 281.13C1361.09 280.7 1357.62 280.06 1354.52 279.1C1353.56 278.67 1352.92 278.09 1352.49 277.39C1352.12 276.75 1351.96 275.68 1351.96 274.29V193.25V193.25ZM1535.82 301.2V253.15C1535.82 244.93 1535.82 237.93 1535.82 232.11C1535.82 226.29 1535.82 221.43 1535.82 217.48C1535.82 213.53 1535.77 210.27 1535.77 207.6C1535.72 204.99 1535.72 202.69 1535.66 200.82C1535.61 198.95 1535.55 197.14 1535.5 195.48C1535.34 192.44 1534.86 189.93 1534.06 188.11C1533.26 186.24 1532.03 184.75 1530.32 183.63C1528.61 182.51 1526.32 181.55 1523.33 180.75C1522.16 180.43 1520.5 180.16 1518.47 180C1516.39 179.84 1514.25 179.79 1512.12 179.79C1510.68 179.79 1509.5 179.52 1508.65 179.04C1507.8 178.56 1507.32 177.87 1507.32 176.91C1507.32 175.95 1507.85 175.31 1508.97 174.88C1510.04 174.51 1511.64 174.35 1513.72 174.35C1518.74 174.35 1523.81 174.4 1529.04 174.51C1534.27 174.62 1539.08 174.72 1543.56 174.83C1548.04 174.94 1551.68 174.99 1554.4 174.99C1557.34 174.99 1560.81 174.94 1564.76 174.88C1568.76 174.83 1572.93 174.77 1577.3 174.67C1581.68 174.56 1585.95 174.51 1590.06 174.46C1594.22 174.41 1597.91 174.35 1601.17 174.35C1609.93 174.4 1617.45 175.04 1623.59 176.22C1629.78 177.4 1634.91 178.84 1638.97 180.6C1643.03 182.31 1646.23 184.02 1648.58 185.67C1650.93 187.38 1652.64 188.71 1653.7 189.73C1655.78 191.65 1657.92 194.27 1660.05 197.47C1662.18 200.73 1664 204.41 1665.49 208.68C1666.98 212.9 1667.73 217.44 1667.79 222.4C1667.74 232.06 1665.92 240.87 1662.34 248.93C1658.82 256.94 1653.8 263.93 1647.39 269.8C1640.98 275.67 1633.51 280.26 1624.97 283.47C1616.37 286.67 1607.09 288.33 1597 288.38C1596.52 288.38 1595.72 288.38 1594.54 288.38C1593.42 288.33 1592.24 288.33 1591.12 288.27C1589.94 288.22 1589.14 288.16 1588.66 288.06C1587.81 288.06 1587 287.79 1586.31 287.31C1585.56 286.83 1585.19 286.13 1585.13 285.17C1585.13 284.05 1585.93 283.2 1587.48 282.55C1589.08 281.96 1591.38 281.64 1594.42 281.64C1598.43 281.64 1602.59 280.63 1606.97 278.65C1611.29 276.67 1615.4 273.79 1619.19 270C1623.03 266.21 1626.13 261.57 1628.53 256.12C1630.93 250.62 1632.16 244.43 1632.21 237.43C1632.32 234.33 1632.05 230.54 1631.41 225.95C1630.77 221.41 1629.22 216.55 1626.87 211.54C1624.47 206.47 1620.73 201.61 1615.55 197.07C1612.08 194.13 1608.61 191.89 1605.14 190.4C1601.61 188.96 1598.31 187.94 1595.26 187.46C1592.16 186.98 1589.55 186.76 1587.36 186.82C1585.17 186.82 1582.98 186.87 1580.69 187.09C1578.39 187.3 1576.58 187.62 1575.19 188.1C1574.39 188.42 1573.8 188.95 1573.48 189.81C1573.11 190.66 1572.95 191.79 1572.95 193.23V301.2C1572.95 309.58 1572.95 317.43 1573 324.8C1573.05 332.17 1573.16 338.79 1573.32 344.66C1573.53 350.59 1573.8 355.5 1574.23 359.5C1574.5 362.06 1574.98 364.36 1575.62 366.28C1576.26 368.25 1577.33 369.86 1578.82 371.08C1580.26 372.31 1582.4 373.16 1585.12 373.59C1587.31 373.91 1589.71 374.18 1592.33 374.34C1595 374.5 1597.4 374.55 1599.54 374.55C1601.14 374.6 1602.26 374.92 1603.01 375.51C1603.7 376.1 1604.02 376.74 1604.02 377.43C1603.97 378.39 1603.49 379.09 1602.53 379.56C1601.57 380.04 1600.39 380.31 1598.9 380.31C1592.55 380.31 1586.3 380.2 1580.16 380.04C1574.07 379.88 1568.63 379.77 1563.82 379.62C1559.02 379.46 1555.33 379.35 1552.77 379.35C1551.12 379.35 1548.87 379.4 1546.1 379.51C1543.27 379.62 1540.17 379.72 1536.81 379.83C1533.39 379.94 1530.03 380.04 1526.61 380.15C1523.19 380.26 1520.04 380.31 1517.21 380.31C1515.45 380.31 1514.11 380.04 1513.15 379.56C1512.24 379.08 1511.76 378.39 1511.76 377.43C1511.71 376.74 1512.03 376.1 1512.67 375.51C1513.31 374.92 1514.54 374.6 1516.25 374.55C1518.33 374.55 1520.2 374.5 1521.8 374.34C1523.45 374.18 1524.9 373.91 1526.18 373.59C1529.01 372.95 1530.98 371.35 1532.16 368.89C1533.33 366.43 1534.08 363.18 1534.51 359.17C1534.94 355.27 1535.26 350.42 1535.42 344.54C1535.58 338.72 1535.69 332.1 1535.74 324.79C1535.82 317.43 1535.82 309.58 1535.82 301.2Z" fill="white"/>
<path d="M1764.53 279.74C1764.53 278.78 1764.69 278.19 1765.01 277.87C1765.33 277.6 1765.81 277.44 1766.45 277.5C1767.46 277.5 1769.44 277.5 1772.32 277.55C1775.2 277.55 1778.57 277.6 1782.41 277.66C1786.25 277.71 1790.1 277.77 1794.05 277.82C1798 277.93 1801.52 277.98 1804.67 278.09C1807.82 278.2 1810.11 278.3 1811.61 278.46C1814.49 278.73 1816.84 279.37 1818.66 280.44C1820.47 281.56 1821.92 282.79 1822.93 284.23C1823.95 285.67 1824.64 287.06 1825.07 288.39C1825.71 289.99 1826.19 291.54 1826.51 293.04C1826.83 294.48 1826.99 295.71 1826.99 296.72C1826.99 297.74 1827.26 298.59 1827.68 299.34C1828.11 300.14 1828.75 300.51 1829.55 300.57C1830.51 300.52 1831.21 300.2 1831.69 299.5C1832.12 298.81 1832.44 298 1832.54 297.04C1832.7 296.13 1832.75 295.28 1832.75 294.48C1832.75 293.95 1832.75 292.88 1832.8 291.33C1832.85 289.73 1832.91 287.91 1833.01 285.88C1833.06 283.8 1833.17 281.77 1833.28 279.74C1833.39 277.71 1833.55 276 1833.71 274.62C1834.03 271.68 1834.4 269.01 1834.72 266.56C1835.04 264.1 1835.36 262.02 1835.58 260.37C1835.85 258.66 1835.95 257.59 1835.95 257.01C1835.95 256.21 1835.79 255.57 1835.52 255.14C1835.2 254.66 1834.82 254.45 1834.35 254.45C1833.6 254.45 1832.96 254.77 1832.43 255.3C1831.9 255.84 1831.26 256.53 1830.51 257.33C1829.23 259.04 1827.57 260.27 1825.55 260.91C1823.52 261.6 1821.23 262.03 1818.66 262.14C1816.63 262.3 1814.55 262.41 1812.52 262.41C1810.44 262.46 1808.25 262.46 1805.85 262.46L1766.45 262.78C1765.65 262.78 1765.17 262.56 1764.9 262.08C1764.63 261.65 1764.53 261.01 1764.53 260.21V194.22C1764.53 192.67 1764.74 191.6 1765.22 191.07C1765.65 190.59 1766.29 190.32 1767.09 190.38L1813.86 191.34C1819.09 191.55 1823.2 192.51 1826.08 194.17C1828.96 195.83 1830.89 197.64 1831.79 199.67C1832.7 201.65 1833.23 203.51 1833.34 205.38C1833.45 207.25 1833.45 208.74 1833.39 209.92C1833.44 211.52 1833.76 212.64 1834.46 213.34C1835.1 214.09 1835.95 214.41 1836.92 214.41C1837.88 214.3 1838.52 213.71 1838.95 212.54C1839.38 211.36 1839.64 210.19 1839.8 208.96C1839.91 208.11 1839.96 206.61 1840.07 204.58C1840.23 202.5 1840.34 200.26 1840.44 197.8C1840.55 195.34 1840.65 193.1 1840.81 191.07C1840.92 189.04 1840.97 187.65 1841.08 186.85C1841.61 183.38 1842.09 180.71 1842.57 178.84C1843.05 176.97 1843.27 175.58 1843.32 174.68C1843.32 173.99 1843.11 173.4 1842.73 172.92C1842.36 172.39 1841.87 172.12 1841.39 172.12C1840.59 172.17 1839.84 172.39 1839.15 172.81C1838.46 173.18 1837.71 173.51 1836.91 173.72C1835.47 174.04 1833.87 174.31 1832 174.47C1830.13 174.68 1827.94 174.84 1825.38 175C1824.2 175.05 1821.7 175.11 1817.85 175.11C1814.06 175.11 1809.47 175.16 1804.07 175.16C1798.62 175.16 1792.91 175.11 1786.88 175.11C1780.9 175.11 1775.03 175.11 1769.42 175.06C1763.76 175.06 1758.8 175.06 1754.53 175.01C1750.26 175.01 1747.22 175.01 1745.29 175.01C1742.52 175.01 1738.94 174.96 1734.45 174.85C1730.02 174.74 1725.21 174.64 1720.04 174.53C1714.86 174.42 1709.84 174.37 1704.93 174.37C1702.69 174.37 1701.03 174.53 1699.91 174.9C1698.79 175.33 1698.2 175.97 1698.2 176.93C1698.25 177.89 1698.73 178.59 1699.64 179.06C1700.55 179.54 1701.67 179.81 1703 179.81C1705.14 179.81 1707.27 179.86 1709.35 180.02C1711.38 180.18 1713.03 180.45 1714.21 180.77C1717.2 181.46 1719.5 182.37 1721.2 183.49C1722.91 184.61 1724.14 186.16 1724.94 188.03C1725.74 189.95 1726.22 192.41 1726.38 195.5C1726.43 197.15 1726.49 198.97 1726.54 200.84C1726.59 202.71 1726.59 205.01 1726.65 207.62C1726.65 210.29 1726.7 213.55 1726.7 217.5C1726.7 221.45 1726.7 226.31 1726.7 232.13C1726.7 237.95 1726.7 244.94 1726.7 253.17V301.22C1726.75 314.41 1726.7 325.88 1726.54 335.71C1726.43 345.59 1726.06 353.38 1725.42 359.2C1724.99 363.2 1724.25 366.46 1723.07 368.92C1721.9 371.38 1719.92 372.98 1717.09 373.62C1715.81 373.94 1714.37 374.21 1712.71 374.37C1711.11 374.53 1709.24 374.58 1707.16 374.58C1705.61 374.63 1704.49 374.95 1703.9 375.54C1703.26 376.13 1702.99 376.77 1702.99 377.46C1702.99 378.58 1703.47 379.33 1704.43 379.76C1705.39 380.19 1706.83 380.35 1708.75 380.35C1711.42 380.35 1714.46 380.3 1717.77 380.19C1721.13 380.08 1724.5 379.98 1727.91 379.87C1731.27 379.76 1734.48 379.66 1737.41 379.55C1740.35 379.44 1742.75 379.39 1744.62 379.39C1747.18 379.39 1750.81 379.5 1755.62 379.66C1760.43 379.82 1765.76 379.93 1771.74 380.08C1777.72 380.24 1783.7 380.35 1789.79 380.35C1791.87 380.35 1793.42 380.08 1794.38 379.6C1795.39 379.12 1795.88 378.43 1795.88 377.47C1795.88 376.78 1795.56 376.14 1794.81 375.55C1794.06 374.96 1792.84 374.64 1791.07 374.59C1789.79 374.59 1788.3 374.54 1786.64 374.48C1784.98 374.43 1783.38 374.32 1781.73 374.16C1780.08 374 1778.63 373.84 1777.3 373.63C1774.58 373.2 1772.44 372.35 1770.89 371.12C1769.39 369.84 1768.27 368.24 1767.58 366.21C1766.89 364.23 1766.35 361.89 1766.08 359.21C1765.44 353.45 1765.01 345.76 1764.8 336.2C1764.59 326.7 1764.48 315.33 1764.48 302.19V279.74H1764.53ZM1901.94 301.2C1901.94 310.01 1901.94 318.18 1901.89 325.76C1901.84 333.34 1901.73 340.07 1901.57 345.94C1901.41 351.87 1901.09 356.67 1900.66 360.46C1900.23 364.41 1899.49 367.45 1898.31 369.54C1897.14 371.62 1895.16 373.01 1892.33 373.6C1891.05 373.92 1889.61 374.19 1887.95 374.35C1886.35 374.51 1884.48 374.56 1882.4 374.56C1880.69 374.61 1879.46 374.93 1878.82 375.52C1878.18 376.11 1877.86 376.75 1877.91 377.44C1877.91 378.4 1878.39 379.1 1879.3 379.57C1880.26 380.05 1881.6 380.32 1883.36 380.32C1886.24 380.32 1889.39 380.27 1892.97 380.16C1896.49 380.05 1900.02 379.95 1903.59 379.84C1907.12 379.73 1910.37 379.63 1913.31 379.52C1916.25 379.41 1918.54 379.36 1920.2 379.36C1922.82 379.36 1926.55 379.47 1931.3 379.63C1936.05 379.79 1941.39 379.9 1947.32 380.05C1953.3 380.21 1959.44 380.32 1965.68 380.32C1967.34 380.32 1968.62 380.05 1969.58 379.57C1970.6 379.09 1971.08 378.4 1971.13 377.44C1971.13 376.75 1970.81 376.11 1970.06 375.52C1969.37 374.93 1968.24 374.61 1966.64 374.56C1965.2 374.56 1963.65 374.51 1961.89 374.45C1960.18 374.4 1958.47 374.29 1956.77 374.13C1955.06 373.97 1953.57 373.81 1952.23 373.6C1949.51 373.17 1947.37 372.43 1945.82 371.36C1944.33 370.29 1943.2 368.85 1942.51 367.09C1941.82 365.33 1941.28 363.25 1941.01 360.79C1940.58 356.89 1940.32 351.98 1940.1 346.06C1939.94 340.13 1939.83 333.35 1939.78 325.77C1939.73 318.19 1939.73 310.02 1939.73 301.21V253.16C1939.73 244.94 1939.73 237.94 1939.73 232.12C1939.73 226.3 1939.73 221.44 1939.78 217.49C1939.78 213.54 1939.83 210.23 1939.89 207.61C1939.89 205 1940 202.7 1940.05 200.83C1940.16 198.96 1940.26 197.15 1940.37 195.49C1940.58 190.74 1941.49 187.27 1942.99 184.97C1944.54 182.73 1947.15 181.34 1950.94 180.75C1952.49 180.43 1953.93 180.16 1955.21 180C1956.49 179.84 1957.88 179.79 1959.27 179.79C1960.71 179.79 1961.83 179.58 1962.58 179.15C1963.38 178.67 1963.75 177.82 1963.75 176.59C1963.75 175.79 1963.22 175.2 1962.2 174.88C1961.19 174.51 1959.74 174.35 1957.98 174.35C1955.2 174.35 1952.11 174.4 1948.75 174.46C1945.33 174.51 1941.92 174.57 1938.45 174.67C1934.98 174.77 1931.83 174.83 1928.89 174.88C1925.95 174.93 1923.61 174.99 1921.79 174.99C1919.76 174.99 1917.14 174.94 1914 174.88C1910.85 174.83 1907.49 174.77 1903.86 174.67C1900.23 174.56 1896.71 174.51 1893.24 174.46C1889.77 174.41 1886.73 174.35 1884 174.35C1881.76 174.35 1880.1 174.51 1878.98 174.88C1877.86 175.2 1877.27 175.79 1877.27 176.59C1877.27 177.82 1877.64 178.67 1878.45 179.15C1879.2 179.58 1880.32 179.79 1881.76 179.79C1883.52 179.79 1885.28 179.84 1886.99 180.06C1888.75 180.27 1890.41 180.59 1892.01 181.07C1894.04 181.66 1895.75 182.51 1897.08 183.58C1898.41 184.65 1899.48 186.14 1900.18 188.06C1900.93 189.93 1901.41 192.38 1901.62 195.48C1901.67 197.13 1901.72 198.95 1901.78 200.82C1901.84 202.69 1901.84 204.99 1901.89 207.6C1901.89 210.22 1901.94 213.53 1901.94 217.48C1901.94 221.43 1901.94 226.29 1901.94 232.11C1901.94 237.93 1901.94 244.92 1901.94 253.15V301.2V301.2ZM2046.73 232.01H2047.69C2049.13 233.29 2051.85 236.07 2055.96 240.39C2060.07 244.71 2065.14 250.05 2071.17 256.41C2077.26 262.76 2083.88 269.6 2091.14 277.02C2098.4 284.39 2105.93 291.81 2113.67 299.28C2121.09 306.49 2128.72 313.8 2136.52 321.27C2144.26 328.74 2151.9 336.01 2159.26 343.05C2166.68 350.15 2173.57 356.66 2179.87 362.59C2186.17 368.57 2191.56 373.59 2195.99 377.75C2197.43 379.24 2199.14 380.58 2201.06 381.7C2202.98 382.88 2205.12 383.46 2207.52 383.52C2208.69 383.52 2209.71 382.88 2210.62 381.49C2211.47 380.1 2211.96 377.91 2212.01 374.87L2215.21 203.18C2215.32 198.11 2215.64 194.05 2216.33 191.01C2216.97 188.02 2217.98 185.73 2219.48 184.12C2220.92 182.57 2222.9 181.45 2225.46 180.76C2227.17 180.28 2228.72 180.01 2230.05 179.91C2231.33 179.8 2232.72 179.75 2234.11 179.8C2235.71 179.75 2236.94 179.48 2237.74 178.95C2238.54 178.42 2238.92 177.72 2238.92 176.92C2238.92 175.85 2238.33 175.1 2237.16 174.78C2236.04 174.46 2234.49 174.3 2232.51 174.35C2225.57 174.35 2219.64 174.46 2214.79 174.67C2209.93 174.88 2206.68 174.99 2204.97 174.99C2202.89 174.99 2200.01 174.94 2196.27 174.83C2192.53 174.72 2188.32 174.62 2183.62 174.51C2178.92 174.4 2174.06 174.35 2169.1 174.35C2167.02 174.3 2165.31 174.46 2164.03 174.78C2162.75 175.1 2162.11 175.85 2162.06 176.92C2162.06 177.72 2162.33 178.41 2162.97 178.95C2163.66 179.48 2164.84 179.75 2166.55 179.8C2167.88 179.8 2169.43 179.8 2171.14 179.85C2172.9 179.9 2174.66 180.01 2176.48 180.28C2178.24 180.49 2179.9 180.87 2181.28 181.4C2183.52 182.2 2185.34 183.43 2186.73 185.03C2188.06 186.68 2189.08 189.14 2189.77 192.34C2190.41 195.54 2190.79 199.92 2190.89 205.42L2193.77 326.5H2192.49C2191.58 325.65 2189.55 323.67 2186.41 320.47C2183.26 317.32 2179.41 313.37 2174.82 308.72C2170.23 304.08 2165.37 299.16 2160.14 293.88C2154.96 288.65 2149.89 283.52 2144.93 278.56C2139.96 273.59 2135.53 269.16 2131.64 265.32C2123.37 257.26 2115.25 249.25 2107.19 241.24C2099.18 233.29 2091.55 225.71 2084.39 218.5C2077.18 211.29 2070.78 204.78 2065.12 199.07C2059.41 193.3 2054.82 188.66 2051.29 185.03C2047.71 181.45 2045.58 179.27 2044.83 178.52C2042.43 176.06 2040.24 173.93 2038.26 172.22C2036.28 170.51 2034.42 169.6 2032.65 169.55C2031.21 169.6 2030.04 170.46 2029.18 172.17C2028.33 173.83 2027.85 176.07 2027.85 178.84L2025.29 340.28C2025.24 348.13 2024.97 354.32 2024.54 358.97C2024.11 363.56 2023.31 366.98 2022.08 369.17C2020.85 371.31 2019.04 372.69 2016.64 373.28C2014.66 373.76 2012.53 374.08 2010.23 374.3C2007.93 374.46 2005.8 374.57 2003.82 374.57C2002.54 374.57 2001.47 374.89 2000.62 375.42C1999.82 375.95 1999.39 376.65 1999.34 377.45C1999.39 378.68 1999.98 379.48 2001.1 379.85C2002.27 380.22 2003.82 380.38 2005.74 380.33C2010.6 380.33 2015.19 380.22 2019.46 380.06C2023.73 379.9 2027.36 379.79 2030.35 379.64C2033.34 379.48 2035.26 379.37 2036.17 379.37C2038.78 379.42 2043.22 379.58 2049.52 379.85C2055.77 380.12 2063.51 380.28 2072.69 380.33C2074.67 380.33 2076.21 380.17 2077.33 379.74C2078.51 379.31 2079.09 378.57 2079.09 377.44C2079.09 376.64 2078.72 375.95 2077.91 375.41C2077.11 374.88 2075.88 374.56 2074.28 374.56C2071.98 374.56 2069.58 374.45 2067.02 374.19C2064.46 373.92 2062 373.44 2059.54 372.64C2057.73 372.05 2056.12 370.82 2054.79 368.85C2053.4 366.87 2052.33 363.88 2051.48 359.77C2050.68 355.71 2050.15 350.16 2049.93 343.17L2046.73 232.01Z" fill="white"/>
<path fill-rule="evenodd" clip-rule="evenodd" d="M767.01 40.67C456.14 3.45998 430.09 381.52 168.49 419.85C460.48 459.62 508.53 82.21 767.01 40.67Z" fill="#0095DA"/>
<path fill-rule="evenodd" clip-rule="evenodd" d="M116.03 109.63C143.85 113.04 171.31 119.79 196.94 131.11C226.53 144.18 253.59 163.66 273.32 189.48C303.68 229.23 309.88 274.15 306.02 323.43C295.52 332.73 284.62 341.45 273.23 349.38C269.13 352.24 264.98 354.97 260.8 357.58C270.56 279.53 255.37 208.33 177.94 174.12C132.31 153.96 77.96 151.18 28.92 155.72L0.5 158.35L18.79 136.44C58.87 88.42 108.1 52.44 166.1 29.06C278.04 -16.07 449.45 -11.28 548.17 64.71C441.44 40.07 287.95 30.64 183.68 72.67C159.61 82.37 136.97 94.68 116.03 109.63Z" fill="#0095DA"/>
</svg>
