<svg  viewBox="0 0 103 93" fill="none" xmlns="http://www.w3.org/2000/svg">
<path d="M62.6574 30.1257C68.3912 31.8841 75.3113 32.9391 80.3532 36.4119C85.3456 39.8407 88.3608 45.7312 87.9653 51.402C87.5699 57.1167 83.7638 62.5676 80.452 68.6779C77.1897 74.7443 74.4216 81.47 69.0832 85.2505C63.7448 89.031 55.8361 89.9102 47.8779 89.9981C39.9198 90.0421 31.9122 89.3387 27.9578 84.8549C23.954 80.3711 23.954 72.1507 20.2468 65.9964C16.5396 59.7982 9.07568 55.71 6.30763 50.2151C3.53957 44.6762 5.46732 37.7307 9.2734 31.7083C13.0795 25.6858 18.7639 20.5426 25.4863 19.3118C32.2582 18.0809 40.1175 20.7185 46.2467 23.312C52.4254 25.8617 56.9235 28.3674 62.6574 30.1257Z" fill="#BFDBFE"/>
<path d="M47.0343 63.295C47.0294 63.2936 47.0245 63.2923 47.0196 63.2911L44.0508 62.52C43.7992 62.446 43.6004 62.3157 43.5575 62.2476L43.5555 60.6328C43.5579 60.6298 43.5605 60.6271 43.563 60.6242C44.581 59.4076 45.1415 57.8312 45.1415 56.1854V54.9828C46.1571 51.6744 45.4414 48.8061 45.0741 47.9714C45.0729 47.9686 45.0713 47.966 45.07 47.9632C45.063 47.9476 45.0552 47.9326 45.0472 47.9177C45.0426 47.9089 45.0381 47.8999 45.0332 47.8914C45.0255 47.8782 45.0172 47.8657 45.0088 47.853C45.0023 47.8433 44.9961 47.8333 44.9893 47.824C44.982 47.814 44.9741 47.8045 44.9664 47.7949C44.9575 47.7838 44.9488 47.7726 44.9395 47.7621C44.933 47.7548 44.9259 47.7481 44.9192 47.741C44.9079 47.7293 44.8968 47.7176 44.8849 47.7066C44.8785 47.7008 44.8718 47.6955 44.8653 47.6899C44.8524 47.6789 44.8397 47.6677 44.8262 47.6575C44.8189 47.652 44.8111 47.647 44.8035 47.6416C44.7904 47.6324 44.7774 47.6231 44.7638 47.6146C44.7542 47.6086 44.7442 47.6036 44.7344 47.598C44.7224 47.5912 44.7104 47.5842 44.698 47.5781C44.6857 47.572 44.6732 47.5669 44.6606 47.5614C44.65 47.5569 44.6394 47.5519 44.6286 47.5478C44.6148 47.5425 44.6008 47.5382 44.5867 47.5337C44.5764 47.5305 44.5662 47.5268 44.5558 47.5239C44.5422 47.5201 44.5283 47.5173 44.5144 47.5143C44.5029 47.5118 44.4914 47.509 44.4798 47.507C44.4676 47.5049 44.4553 47.5037 44.443 47.5021C44.4291 47.5003 44.4151 47.4985 44.401 47.4975C44.3908 47.4968 44.3805 47.4968 44.3702 47.4964C44.3537 47.4959 44.3373 47.4954 44.3206 47.4959C44.3118 47.4962 44.3029 47.497 44.2939 47.4976C44.2761 47.4988 44.2584 47.5001 44.2405 47.5025C44.2377 47.5028 44.2349 47.5028 44.2321 47.5032C43.4643 47.6131 42.5277 47.3887 41.5362 47.1513C39.7824 46.7313 37.8041 46.2588 36.0711 47.5083C34.3954 47.6523 33.2071 49.0605 33.2071 50.9639C33.2071 52.348 33.8494 54.8201 33.9966 55.3687V56.034C33.9966 57.7519 34.5911 59.3398 35.5441 60.5242L35.5419 62.2492C35.499 62.3173 35.3002 62.4476 35.0485 62.5217L32.0798 63.2927C32.0749 63.294 32.07 63.2953 32.0651 63.2967C30.1757 63.8262 29.187 65.6787 29.187 67.2351V68.0955C29.187 69.0375 30.0113 69.8037 31.0246 69.8037L39.5313 69.8028C39.5375 69.8029 39.5435 69.8037 39.5498 69.8037C39.5561 69.8037 39.5622 69.8029 39.5684 69.8028L48.0752 69.8018C49.0884 69.8018 49.9128 69.0356 49.9128 68.0937V67.2333C49.9126 65.677 48.9239 63.8244 47.0343 63.295ZM39.5531 64.893L36.7901 63.2352C37.0008 62.9687 37.1354 62.6449 37.1354 62.2611L37.1358 61.9188C37.8728 62.3532 38.6963 62.6 39.5585 62.6C40.4048 62.6 41.2215 62.3809 41.9636 61.9662L41.964 62.2583C41.964 62.6534 42.1064 62.9846 42.3275 63.2555L39.5531 64.893ZM35.5903 55.7621C35.5903 54.9701 35.9254 53.8121 36.1759 53.0795C39.7857 53.1623 42.5096 54.0293 43.5482 54.4137V54.8559C43.5482 54.8583 43.5482 54.8608 43.5482 54.8632V56.1852C43.5482 57.5899 43.0199 58.8768 42.1958 59.7672C42.194 59.7691 42.1923 59.771 42.1905 59.7729C41.4821 60.5358 40.5563 61.0064 39.5586 61.0064C37.4445 61.0064 35.5903 58.6829 35.5903 56.034V55.7621V55.7621ZM36.3567 49.0888C36.3623 49.0888 36.3677 49.0881 36.3732 49.088C36.3938 49.0876 36.4142 49.0869 36.4346 49.0849C36.4447 49.0839 36.4544 49.0821 36.4644 49.0807C36.4802 49.0786 36.4961 49.0765 36.5119 49.0734C36.5235 49.0711 36.5348 49.068 36.5462 49.0652C36.56 49.0618 36.5738 49.0587 36.5875 49.0546C36.5997 49.0509 36.6115 49.0463 36.6234 49.0422C36.6359 49.0378 36.6484 49.0336 36.6607 49.0285C36.6733 49.0233 36.6856 49.0172 36.6978 49.0114C36.709 49.0061 36.7201 49.0011 36.7311 48.9953C36.7447 48.9881 36.7578 48.9799 36.7708 48.9718C36.7799 48.9663 36.7892 48.9612 36.7981 48.9552C36.8141 48.9446 36.8295 48.9327 36.8447 48.921C36.85 48.9169 36.8555 48.9134 36.8606 48.9092C38.0329 47.9513 39.5543 48.3155 41.165 48.7012C42.032 48.9087 42.9223 49.1214 43.7867 49.1246C43.9945 49.8922 44.1987 51.2523 43.9793 52.8723C42.6828 52.3999 39.6401 51.479 35.6212 51.479C35.6192 51.479 35.6175 51.4792 35.6155 51.4792C35.5969 51.4793 35.5786 51.4806 35.5603 51.482C35.5517 51.4827 35.5431 51.4829 35.5346 51.4839C35.5195 51.4856 35.5045 51.4882 35.4896 51.4908C35.4781 51.4928 35.4665 51.4943 35.4551 51.4967C35.4448 51.4989 35.4347 51.502 35.4244 51.5046C35.4091 51.5085 35.3937 51.5122 35.3787 51.517C35.373 51.5189 35.3675 51.5212 35.3618 51.5233C35.3431 51.5297 35.3245 51.5363 35.3063 51.5441C35.3025 51.5457 35.2991 51.5478 35.2953 51.5494C35.2759 51.5581 35.2566 51.5672 35.238 51.5774C35.231 51.5812 35.2246 51.5857 35.2177 51.5898C35.2029 51.5986 35.1879 51.6071 35.1737 51.6168C35.1603 51.6258 35.1477 51.6359 35.1348 51.6459C35.1278 51.6513 35.1203 51.6563 35.1134 51.662C35.0975 51.6751 35.0823 51.6894 35.0674 51.7037C35.0641 51.707 35.0604 51.7099 35.0572 51.7132C35.0435 51.7268 35.0307 51.7416 35.0179 51.7563C35.0137 51.7611 35.0092 51.7656 35.0053 51.7706C34.9954 51.7826 34.9863 51.7955 34.9771 51.8082C34.9708 51.8168 34.9642 51.8251 34.9584 51.834C34.9519 51.8437 34.9462 51.854 34.9401 51.864C34.9323 51.8769 34.9243 51.8897 34.9172 51.9031C34.9131 51.9108 34.9097 51.9189 34.9059 51.9267C34.9006 51.9375 34.8951 51.948 34.8903 51.9591C34.8353 51.5834 34.8007 51.238 34.8007 50.9642C34.8008 50.0989 35.2082 49.0888 36.3567 49.0888ZM31.0245 68.2103C30.8618 68.2103 30.7804 68.1175 30.7804 68.0956V67.2352C30.7804 66.2813 31.3671 65.1512 32.4884 64.8332L35.1878 64.1322L38.753 66.2713V68.2096L31.0245 68.2103ZM48.3191 68.0937C48.3191 68.1156 48.2377 68.2084 48.0749 68.2084L40.3464 68.2093V66.275L43.9595 64.1426L46.6111 64.8312C47.7324 65.1492 48.319 66.2793 48.319 67.2332V68.0937H48.3191Z" fill="black"/>
<path d="M70.9361 63.2951C70.9313 63.2937 70.9264 63.2924 70.9215 63.2911L67.9527 62.5201C67.701 62.4461 67.5022 62.3157 67.4593 62.2477L67.4573 60.6328C67.4598 60.6298 67.4624 60.6271 67.4649 60.6242C68.4828 59.4076 69.0434 57.8312 69.0434 56.1855V54.9828C70.0589 51.6745 69.3433 48.8062 68.976 47.9714C68.9748 47.9686 68.9732 47.9661 68.972 47.9634C68.9648 47.9477 68.957 47.9323 68.9488 47.9172C68.9442 47.9087 68.9399 47.9001 68.9351 47.8918C68.9273 47.8784 68.9188 47.8654 68.9103 47.8525C68.904 47.843 68.8979 47.8335 68.8913 47.8243C68.8839 47.814 68.8758 47.8043 68.8678 47.7944C68.8592 47.7837 68.8507 47.7727 68.8415 47.7624C68.8348 47.7549 68.8276 47.7479 68.8206 47.7406C68.8096 47.7292 68.7986 47.7176 68.787 47.7069C68.7805 47.7008 68.7735 47.6954 68.7668 47.6896C68.7542 47.6788 68.7415 47.6678 68.7282 47.6578C68.7207 47.6521 68.7129 47.6471 68.7052 47.6416C68.6921 47.6325 68.6792 47.6232 68.6657 47.6149C68.6561 47.6089 68.646 47.6038 68.6362 47.5982C68.6241 47.5914 68.6122 47.5845 68.5997 47.5783C68.5876 47.5722 68.5751 47.5671 68.5627 47.5618C68.5519 47.5571 68.5413 47.5521 68.5303 47.5479C68.5168 47.5428 68.5027 47.5385 68.4889 47.5341C68.4784 47.5307 68.4682 47.527 68.4575 47.5241C68.4441 47.5204 68.4302 47.5177 68.4165 47.5147C68.4048 47.5121 68.3933 47.5093 68.3814 47.5072C68.3694 47.5051 68.3571 47.5039 68.3449 47.5024C68.3308 47.5006 68.3169 47.4987 68.3026 47.4977C68.2925 47.497 68.2822 47.497 68.272 47.4966C68.2554 47.4961 68.239 47.4956 68.2224 47.4961C68.2135 47.4964 68.2045 47.4972 68.1957 47.4978C68.178 47.499 68.1601 47.5003 68.1424 47.5027C68.1395 47.5031 68.1367 47.5031 68.1339 47.5035C67.3663 47.6135 66.4295 47.3891 65.438 47.1517C63.6842 46.7317 61.7059 46.2591 59.9729 47.5086C58.2972 47.6526 57.109 49.0608 57.109 50.9642C57.109 52.3483 57.7513 54.8205 57.8985 55.369V56.0344C57.8985 57.7522 58.4929 59.3401 59.4459 60.5245L59.4437 62.2496C59.4009 62.3177 59.202 62.4479 58.9503 62.522L55.9816 63.2931C55.9767 63.2944 55.9719 63.2957 55.967 63.2971C54.0775 63.8262 53.0888 65.6788 53.0888 67.2351V68.0956C53.0888 69.0374 53.9131 69.8036 54.9265 69.8036L63.4331 69.8027C63.4393 69.8028 63.4454 69.8036 63.4517 69.8036C63.4579 69.8036 63.464 69.8028 63.4703 69.8027L71.9771 69.8018C72.9903 69.8018 73.8146 69.0355 73.8146 68.0937V67.2332C73.8144 65.677 72.8258 63.8244 70.9361 63.2951ZM63.4549 64.893L60.692 63.2352C60.9026 62.9687 61.0373 62.6449 61.0373 62.2611L61.0377 61.9188C61.7746 62.3532 62.5982 62.6 63.4603 62.6C64.3066 62.6 65.1234 62.3809 65.8654 61.9662L65.8658 62.2583C65.8658 62.6534 66.0083 62.9846 66.2294 63.2555L63.4549 64.893ZM59.4921 55.7621C59.4921 54.9702 59.8272 53.8121 60.0777 53.0795C63.6876 53.1624 66.4114 54.0293 67.45 54.4137V54.8559C67.45 54.8583 67.45 54.8608 67.45 54.8632V56.1853C67.45 57.5899 66.9217 58.8768 66.0977 59.7673C66.0958 59.7691 66.0941 59.771 66.0923 59.7729C65.3839 60.5358 64.4581 61.0065 63.4604 61.0065C61.3464 61.0065 59.4921 58.6829 59.4921 56.0341V55.7621ZM60.2586 49.0888C60.264 49.0888 60.2694 49.0881 60.2749 49.088C60.2954 49.0876 60.3159 49.0869 60.3364 49.0849C60.3463 49.0839 60.3561 49.0821 60.3659 49.0807C60.3819 49.0786 60.3979 49.0766 60.4137 49.0735C60.4253 49.0712 60.4364 49.0681 60.4477 49.0653C60.4616 49.0619 60.4756 49.0587 60.4893 49.0546C60.5014 49.051 60.5131 49.0465 60.5249 49.0423C60.5375 49.0378 60.5502 49.0336 60.5626 49.0284C60.5752 49.0233 60.5871 49.0172 60.5994 49.0114C60.6106 49.006 60.622 49.0011 60.6331 48.9952C60.6466 48.988 60.6594 48.9799 60.6724 48.972C60.6816 48.9663 60.6911 48.9611 60.7002 48.9551C60.7162 48.9445 60.7313 48.9327 60.7466 48.921C60.7518 48.9168 60.7574 48.9133 60.7627 48.9091C61.935 47.9513 63.4563 48.3155 65.067 48.7011C65.9341 48.9086 66.8243 49.1214 67.6888 49.1246C67.8965 49.8921 68.1008 51.2522 67.8814 52.8723C66.5846 52.3999 63.5419 51.479 59.5231 51.479C59.5211 51.479 59.5193 51.4793 59.5173 51.4793C59.4988 51.4794 59.4805 51.4807 59.4621 51.4821C59.4536 51.4828 59.4449 51.483 59.4364 51.484C59.4213 51.4857 59.4064 51.4882 59.3914 51.4908C59.38 51.4928 59.3683 51.4943 59.357 51.4967C59.3466 51.4989 59.3366 51.502 59.3263 51.5047C59.311 51.5086 59.2955 51.5122 59.2806 51.517C59.2748 51.5189 59.2693 51.5212 59.2637 51.5233C59.2449 51.5298 59.2262 51.5364 59.2082 51.5441C59.2044 51.5457 59.2008 51.5478 59.1971 51.5494C59.1777 51.5582 59.1585 51.5672 59.1399 51.5775C59.1329 51.5813 59.1264 51.5857 59.1195 51.5898C59.1047 51.5986 59.0898 51.6072 59.0755 51.6168C59.0622 51.6259 59.0495 51.6359 59.0367 51.6459C59.0296 51.6514 59.0221 51.6564 59.0153 51.662C58.9993 51.6752 58.9842 51.6894 58.9693 51.7038C58.966 51.707 58.9623 51.7099 58.959 51.7132C58.9454 51.7269 58.9325 51.7416 58.9199 51.7563C58.9157 51.7611 58.9112 51.7656 58.9072 51.7706C58.8974 51.7826 58.8883 51.7955 58.879 51.8082C58.8728 51.8168 58.8662 51.8252 58.8603 51.834C58.8538 51.8437 58.8482 51.854 58.8421 51.864C58.8342 51.877 58.8263 51.8897 58.8192 51.9031C58.8151 51.9108 58.8116 51.919 58.8078 51.9267C58.8025 51.9375 58.7971 51.9481 58.7923 51.9591C58.7372 51.5835 58.7027 51.2381 58.7027 50.9642C58.7027 50.099 59.1101 49.0888 60.2586 49.0888ZM54.9264 68.2103C54.7636 68.2103 54.6823 68.1176 54.6823 68.0957V67.2352C54.6823 66.2813 55.269 65.1512 56.3903 64.8333L59.0897 64.1322L62.6548 66.2713V68.2096L54.9264 68.2103ZM72.221 68.0938C72.221 68.1157 72.1396 68.2084 71.9768 68.2084L64.2483 68.2093V66.275L67.8614 64.1426L70.5131 64.8313C71.6344 65.1493 72.221 66.2793 72.221 67.2332V68.0938V68.0938Z" fill="black"/>
<path d="M73.007 25.1869H57.0724C56.6324 25.1869 56.2757 25.5437 56.2757 25.9836C56.2757 26.4236 56.6324 26.7804 57.0724 26.7804H73.007C74.325 26.7804 75.3972 27.8527 75.3972 29.1706V40.3248C75.3972 41.6427 74.325 42.715 73.007 42.715H56.2757C55.8357 42.715 55.479 43.0717 55.479 43.5117V45.5719L52.8555 42.9484C52.5443 42.6372 52.0399 42.6372 51.7288 42.9484C51.4176 43.2595 51.4176 43.764 51.7288 44.0751L55.7124 48.0587C55.8648 48.2112 56.0686 48.2921 56.276 48.2921C56.3786 48.2921 56.4822 48.2722 56.5808 48.2314C56.8784 48.1081 57.0725 47.8175 57.0725 47.4953V44.3084H73.0071C75.2037 44.3084 76.9908 42.5214 76.9908 40.3248V29.1706C76.9907 26.974 75.2036 25.1869 73.007 25.1869Z" fill="black"/>
<path d="M54.6822 37.1379V25.9836C54.6822 23.7871 52.8952 22 50.6986 22H29.9836C27.7871 22 26 23.7871 26 25.9836V37.1379C26 39.3344 27.7871 41.1215 29.9836 41.1215H41.1379V44.3084C41.1379 44.6306 41.332 44.9212 41.6296 45.0445C41.7282 45.0853 41.8317 45.1051 41.9344 45.1051C42.1417 45.1051 42.3455 45.0242 42.498 44.8718L46.2482 41.1215H50.6986C52.8952 41.1215 54.6822 39.3344 54.6822 37.1379ZM53.0888 37.1379C53.0888 38.4557 52.0165 39.528 50.6986 39.528H45.9182C45.7069 39.528 45.5042 39.612 45.3548 39.7614L42.7313 42.385V40.3248C42.7313 39.8848 42.3746 39.528 41.9346 39.528H29.9836C28.6658 39.528 27.5935 38.4557 27.5935 37.1379V25.9836C27.5935 24.6658 28.6658 23.5935 29.9836 23.5935H50.6986C52.0165 23.5935 53.0888 24.6658 53.0888 25.9836V37.1379Z" fill="black"/>
<path d="M30.7804 27.5771H33.1706C33.6105 27.5771 33.9673 27.2204 33.9673 26.7804C33.9673 26.3404 33.6105 25.9836 33.1706 25.9836H30.7804C30.3404 25.9836 29.9836 26.3404 29.9836 26.7804C29.9836 27.2204 30.3404 27.5771 30.7804 27.5771Z" fill="black"/>
<path d="M49.9019 25.9836H36.3575C35.9175 25.9836 35.5607 26.3404 35.5607 26.7804C35.5607 27.2204 35.9175 27.5771 36.3575 27.5771H49.9019C50.3418 27.5771 50.6986 27.2204 50.6986 26.7804C50.6986 26.3404 50.3418 25.9836 49.9019 25.9836Z" fill="black"/>
<path d="M49.9019 29.1706H30.7804C30.3404 29.1706 29.9836 29.5273 29.9836 29.9673C29.9836 30.4073 30.3404 30.764 30.7804 30.764H49.9019C50.3419 30.764 50.6986 30.4073 50.6986 29.9673C50.6986 29.5273 50.3419 29.1706 49.9019 29.1706Z" fill="black"/>
<path d="M49.9018 32.3575H47.5116C47.0716 32.3575 46.7149 32.7142 46.7149 33.1542C46.7149 33.5942 47.0716 33.9509 47.5116 33.9509H49.9018C50.3418 33.9509 50.6986 33.5942 50.6986 33.1542C50.6986 32.7142 50.3418 32.3575 49.9018 32.3575Z" fill="black"/>
<path d="M30.7804 33.9509H44.3248C44.7648 33.9509 45.1215 33.5942 45.1215 33.1542C45.1215 32.7142 44.7648 32.3575 44.3248 32.3575H30.7804C30.3404 32.3575 29.9836 32.7142 29.9836 33.1542C29.9836 33.5942 30.3404 33.9509 30.7804 33.9509Z" fill="black"/>
<path d="M49.9019 35.5444H30.7804C30.3404 35.5444 29.9836 35.9011 29.9836 36.3411C29.9836 36.7811 30.3404 37.1378 30.7804 37.1378H49.9019C50.3419 37.1378 50.6986 36.7811 50.6986 36.3411C50.6986 35.9011 50.3419 35.5444 49.9019 35.5444Z" fill="black"/>
<path d="M57.0724 30.764H59.4626C59.9026 30.764 60.2594 30.4073 60.2594 29.9673C60.2594 29.5273 59.9026 29.1706 59.4626 29.1706H57.0724C56.6324 29.1706 56.2757 29.5273 56.2757 29.9673C56.2757 30.4073 56.6324 30.764 57.0724 30.764Z" fill="black"/>
<path d="M72.2103 30.764C72.6503 30.764 73.007 30.4073 73.007 29.9673C73.007 29.5273 72.6503 29.1706 72.2103 29.1706H62.6495C62.2095 29.1706 61.8528 29.5273 61.8528 29.9673C61.8528 30.4073 62.2095 30.764 62.6495 30.764H72.2103Z" fill="black"/>
<path d="M57.0724 33.9509H72.2103C72.6503 33.9509 73.007 33.5942 73.007 33.1542C73.007 32.7142 72.6503 32.3575 72.2103 32.3575H57.0724C56.6324 32.3575 56.2757 32.7142 56.2757 33.1542C56.2757 33.5942 56.6324 33.9509 57.0724 33.9509Z" fill="black"/>
<path d="M72.2103 35.5444H69.8201C69.3801 35.5444 69.0234 35.9011 69.0234 36.3411C69.0234 36.7811 69.3801 37.1378 69.8201 37.1378H72.2103C72.6503 37.1378 73.007 36.7811 73.007 36.3411C73.007 35.9011 72.6503 35.5444 72.2103 35.5444Z" fill="black"/>
<path d="M57.0724 37.1378H66.6332C67.0732 37.1378 67.4299 36.7811 67.4299 36.3411C67.4299 35.9011 67.0732 35.5444 66.6332 35.5444H57.0724C56.6324 35.5444 56.2757 35.9011 56.2757 36.3411C56.2757 36.7811 56.6324 37.1378 57.0724 37.1378Z" fill="black"/>
<path d="M57.0724 40.3248H72.2103C72.6503 40.3248 73.007 39.968 73.007 39.5281C73.007 39.0881 72.6503 38.7313 72.2103 38.7313H57.0724C56.6324 38.7313 56.2757 39.0881 56.2757 39.5281C56.2757 39.968 56.6324 40.3248 57.0724 40.3248Z" fill="black"/>
</svg>
