<svg viewBox="0 0 100 100" fill="none" xmlns="http://www.w3.org/2000/svg">
<g clip-path="url(#clip0)">
<g clip-path="url(#clip1)">
<path d="M45.6369 6.71215C52.7277 5.41108 60.2415 6.80973 65.5108 10.8431C70.7476 14.9089 73.7401 21.6095 75.8869 27.2041C78.0011 32.8313 79.2046 37.2874 81.6442 42.134C84.0837 46.9154 87.7592 52.0872 87.2713 56.5434C86.8159 61.0321 82.1971 64.8052 78.3915 70.4324C74.5533 76.027 71.5608 83.4431 66.2915 86.891C61.0221 90.2738 53.5409 89.6883 48.239 85.9477C42.9371 82.2071 39.8471 75.2789 36.3667 69.8469C32.8863 64.4149 29.0481 60.5117 26.8363 55.6326C24.592 50.7211 24.0065 44.8662 24.0065 38.1657C24.0065 31.4001 24.5594 23.7563 28.2024 17.9014C31.8455 12.1116 38.546 8.07828 45.6369 6.71215Z" fill="#A7F3D0"/>
</g>
<path d="M42.3279 61.3161C42.3229 61.3146 42.3179 61.3133 42.3129 61.312L39.2641 60.5202C39.0057 60.4441 38.8015 60.3103 38.7574 60.2404L38.7554 58.582C38.758 58.5789 38.7606 58.5762 38.7632 58.5732C39.8085 57.3238 40.3842 55.705 40.3842 54.0149V52.7799C41.4271 49.3825 40.6921 46.4369 40.315 45.5796C40.3136 45.5766 40.312 45.574 40.3107 45.5711C40.3035 45.5553 40.2956 45.5401 40.2875 45.5249C40.2826 45.5157 40.2779 45.5063 40.2727 45.4973C40.265 45.4842 40.2568 45.4717 40.2484 45.459C40.2414 45.4484 40.2348 45.4379 40.2274 45.4278C40.2205 45.4182 40.2129 45.4092 40.2055 45.4C40.1959 45.3878 40.1863 45.3756 40.1761 45.3642C40.1702 45.3576 40.164 45.3516 40.158 45.3453C40.1455 45.3322 40.133 45.3192 40.1198 45.307C40.1147 45.3023 40.1092 45.298 40.104 45.2935C40.0893 45.2807 40.0747 45.2681 40.0593 45.2566C40.0535 45.2523 40.0475 45.2484 40.0417 45.2443C40.0263 45.2334 40.011 45.2225 39.995 45.2127C39.9873 45.2079 39.9792 45.2038 39.9713 45.1993C39.9568 45.191 39.9424 45.1826 39.9273 45.1753C39.9169 45.1702 39.9062 45.1658 39.8955 45.1611C39.8824 45.1553 39.8696 45.1493 39.8562 45.1442C39.8439 45.1396 39.8313 45.1357 39.8188 45.1317C39.8064 45.1276 39.7941 45.1233 39.7815 45.1198C39.7689 45.1164 39.7561 45.1139 39.7434 45.1111C39.7302 45.1081 39.717 45.1049 39.7036 45.1026C39.6921 45.1006 39.6805 45.0994 39.6688 45.098C39.6536 45.096 39.6383 45.094 39.6229 45.0928C39.6131 45.0921 39.6031 45.0921 39.5932 45.0918C39.5757 45.0912 39.5581 45.0908 39.5405 45.0913C39.5319 45.0916 39.5232 45.0924 39.5145 45.0929C39.4957 45.0941 39.477 45.0956 39.4583 45.0981C39.4556 45.0985 39.4528 45.0985 39.45 45.0989C38.6617 45.2117 37.6997 44.9813 36.6815 44.7374C34.8805 44.3062 32.8489 43.821 31.0693 45.104C29.3485 45.2519 28.1282 46.698 28.1282 48.6527C28.1282 50.074 28.7878 52.6128 28.939 53.1761V53.8594C28.939 55.6235 29.5494 57.2541 30.5281 58.4705L30.5258 60.2419C30.4818 60.3118 30.2776 60.4456 30.0192 60.5217L26.9705 61.3135C26.9655 61.3148 26.9605 61.3162 26.9555 61.3176C25.0154 61.8616 24 63.764 24 65.3622V66.2458C24 67.2131 24.8465 68 25.8871 68L34.6231 67.9991C34.6294 67.9992 34.6354 68 34.6418 68C34.6481 68 34.6543 67.9992 34.6606 67.9991L43.3966 67.9982C44.4372 67.9982 45.2837 67.2113 45.2837 66.2441V65.3604C45.2837 63.7621 44.2684 61.8596 42.3279 61.3161ZM34.6453 62.957L31.8079 61.2546C32.0242 60.9808 32.1625 60.6484 32.1625 60.2543L32.1629 59.9028C32.9197 60.3489 33.7654 60.6023 34.6508 60.6023C35.5199 60.6023 36.3586 60.3773 37.1207 59.9514L37.1211 60.2514C37.1211 60.6571 37.2673 60.9973 37.4944 61.2755L34.6453 62.957ZM30.5757 53.5803C30.5757 52.7671 30.9199 51.5778 31.1771 50.8254C34.8842 50.9105 37.6813 51.8008 38.7479 52.1956V52.6497C38.7479 52.6521 38.7479 52.6547 38.7479 52.6571V54.0148C38.7479 55.4573 38.2054 56.7788 37.3592 57.6933C37.3572 57.6952 37.3555 57.6971 37.3536 57.6991C36.6262 58.4825 35.6755 58.9658 34.6509 58.9658C32.4799 58.9658 30.5757 56.5797 30.5757 53.8596V53.5803V53.5803ZM31.3628 46.7273C31.3685 46.7273 31.3741 46.7266 31.3798 46.7264C31.4008 46.726 31.4218 46.7253 31.4428 46.7233C31.4531 46.7223 31.4631 46.7204 31.4734 46.719C31.4897 46.7167 31.506 46.7147 31.5222 46.7115C31.5341 46.7092 31.5457 46.7059 31.5574 46.703C31.5716 46.6996 31.5858 46.6964 31.5998 46.6922C31.6124 46.6884 31.6244 46.6837 31.6367 46.6794C31.6495 46.6749 31.6624 46.6706 31.675 46.6654C31.6879 46.66 31.7005 46.6537 31.7131 46.6477C31.7246 46.6423 31.736 46.6373 31.7473 46.6312C31.7613 46.6238 31.7747 46.6153 31.7881 46.6071C31.7974 46.6014 31.807 46.5962 31.8161 46.59C31.8326 46.579 31.8483 46.5669 31.864 46.5548C31.8694 46.5506 31.875 46.5472 31.8803 46.5428C33.0842 45.5591 34.6465 45.9332 36.3005 46.3292C37.1909 46.5424 38.1051 46.7607 38.9929 46.764C39.2062 47.5522 39.416 48.9489 39.1907 50.6127C37.8593 50.1275 34.7346 49.1818 30.6075 49.1818C30.6054 49.1818 30.6033 49.1821 30.6012 49.1821C30.583 49.1822 30.5649 49.1834 30.5468 49.1849C30.5372 49.1856 30.5276 49.1859 30.518 49.1869C30.5034 49.1886 30.489 49.1911 30.4746 49.1936C30.4618 49.1957 30.449 49.1974 30.4364 49.2C30.4269 49.2021 30.4177 49.2048 30.4083 49.2073C30.3914 49.2115 30.3745 49.2156 30.358 49.2209C30.3535 49.2223 30.3491 49.2243 30.3447 49.2258C30.324 49.2328 30.3036 49.2402 30.2837 49.2487C30.2816 49.2496 30.2796 49.2507 30.2775 49.2517C30.2557 49.2613 30.2343 49.2715 30.2136 49.283C30.2082 49.2859 30.203 49.2895 30.1976 49.2927C30.1806 49.3025 30.1638 49.3124 30.1476 49.3234C30.1348 49.3321 30.1227 49.3418 30.1104 49.3512C30.1023 49.3574 30.0937 49.3631 30.0858 49.3697C30.0699 49.3828 30.0549 49.3971 30.0399 49.4114C30.0361 49.4151 30.0319 49.4185 30.0282 49.4222C30.0141 49.4362 30.0012 49.4511 29.9882 49.4662C29.9839 49.4712 29.9792 49.4758 29.975 49.481C29.9647 49.4934 29.9554 49.5067 29.9459 49.5198C29.9396 49.5286 29.9328 49.5371 29.9268 49.5461C29.9202 49.5561 29.9142 49.5668 29.908 49.5771C29.9 49.5903 29.8918 49.6034 29.8846 49.6171C29.8804 49.6251 29.8768 49.6333 29.8728 49.6415C29.8674 49.6526 29.8618 49.6633 29.8569 49.6746C29.8003 49.2888 29.7648 48.9341 29.7648 48.6529C29.765 47.7646 30.1834 46.7273 31.3628 46.7273ZM25.887 66.3636C25.7199 66.3636 25.6364 66.2683 25.6364 66.2459V65.3623C25.6364 64.3827 26.2389 63.2222 27.3903 62.8957L30.1624 62.1757L33.8236 64.3724V66.3628L25.887 66.3636ZM43.6473 66.244C43.6473 66.2665 43.5637 66.3617 43.3965 66.3617L35.46 66.3625V64.3762L39.1703 62.1863L41.8934 62.8935C43.0449 63.2201 43.6473 64.3806 43.6473 65.3601V66.244Z" fill="black"/>
<path d="M73.9091 32H36.2727C34.9192 32 33.8182 33.1011 33.8182 34.4545V41.8184C33.8182 42.2702 34.1845 42.6366 34.6364 42.6366C35.0882 42.6366 35.4545 42.2702 35.4545 41.8184V34.4545C35.4545 34.0034 35.8216 33.6364 36.2727 33.6364H73.9091C74.3602 33.6364 74.7273 34.0034 74.7273 34.4545V60.6364C74.7273 61.0875 74.3602 61.4545 73.9091 61.4545H46.9092C46.4573 61.4545 46.091 61.8209 46.091 62.2727C46.091 62.7246 46.4573 63.0909 46.9092 63.0909H73.9091C75.2626 63.0909 76.3636 61.9898 76.3636 60.6364V34.4545C76.3636 33.1011 75.2626 32 73.9091 32Z" fill="black"/>
<path d="M52.6364 51.6364C52.6364 51.1845 52.27 50.8182 51.8182 50.8182H46.9091C46.4572 50.8182 46.0909 51.1845 46.0909 51.6364V57.3637H42.8182C42.3663 57.3637 42 57.73 42 58.1818C42 58.6337 42.3663 59 42.8182 59H70.6364C71.0882 59 71.4545 58.6337 71.4545 58.1818C71.4545 57.73 71.0882 57.3637 70.6364 57.3637H69V43.4546C69 43.0027 68.6337 42.6364 68.1818 42.6364H63.2727C62.8209 42.6364 62.4545 43.0027 62.4545 43.4546V57.3637H60.8182V38.5455C60.8182 38.0936 60.4518 37.7273 60 37.7273H55.0909C54.6391 37.7273 54.2727 38.0936 54.2727 38.5455V57.3637H52.6364V51.6364ZM51 52.4546V54.0909H47.7273V52.4546H51ZM67.3636 44.2727V49.1818H64.0909V44.2727H67.3636ZM64.0909 50.8182H67.3636V57.3637H64.0909V50.8182ZM59.1818 39.3637V42.6364H55.9091V39.3637H59.1818ZM55.9091 44.2727H59.1818V57.3637H55.9091V44.2727ZM47.7273 57.3637V55.7273H51V57.3637H47.7273Z" fill="black"/>
</g>
<defs>
<clipPath id="clip0">
<rect width="100" height="100" fill="white"/>
</clipPath>
<clipPath id="clip1">
<rect width="92" height="92" fill="white" transform="translate(-8 48.0538) rotate(-45)"/>
</clipPath>
</defs>
</svg>
