<svg viewBox="0 0 100 100" fill="none" xmlns="http://www.w3.org/2000/svg">
<path d="M60.7407 21.0567C68.2829 25.38 75.3503 32.3395 76.7216 40.2479C78.1456 48.2091 73.9263 57.172 68.1774 63.5515C62.4812 69.931 55.3083 73.7798 48.6628 73.9907C41.9645 74.2016 35.8465 70.7746 28.0406 69.1929C20.182 67.5585 10.583 67.8221 5.15054 63.2879C-0.229154 58.8064 -1.49497 49.5272 1.82779 42.8314C5.0978 36.1355 12.9564 32.0231 19.6019 27.4889C26.1946 23.0075 31.6271 18.1042 38.3781 16.5753C45.1291 14.9936 53.1986 16.7334 60.7407 21.0567Z" fill="#FDE68A"/>
<path d="M40.8642 46.8698C40.8642 49.6294 41.8695 52.4241 43.6221 54.5373C45.4652 56.7595 47.8712 57.9833 50.3968 57.9833C52.9222 57.9833 55.3252 56.7602 57.1635 54.5392C58.9104 52.4285 59.9123 49.635 59.9123 46.8746V44.4433C60.6187 41.401 60.7669 38.7682 60.7658 37.0889C60.7643 34.9208 60.5285 33.4228 60.3084 32.7439C60.1914 32.3833 59.8407 32.1642 59.4781 32.1993C59.4183 32.194 59.3569 32.1946 59.2947 32.2034C57.8192 32.4142 56.0092 32.0507 54.0927 31.6658C50.9877 31.0424 47.4796 30.3389 44.7966 32.199C44.7727 32.1968 44.7486 32.1954 44.7241 32.1954C43.2183 32.1954 41.8814 32.7971 40.9595 33.8897C40.108 34.899 39.639 36.2876 39.639 37.7998C39.639 40.2764 40.6926 44.8533 40.8641 45.5823V46.8698H40.8642ZM55.9412 53.5276C54.4099 55.3778 52.4408 56.3968 50.3968 56.3968C48.3518 56.3968 46.3795 55.3767 44.8433 53.5245C43.3228 51.6912 42.4509 49.2657 42.4509 46.8699V45.9184C42.4509 43.9562 43.7685 41.2888 44.2685 40.3472C51.4031 39.532 56.1784 41.5021 57.2625 42.0094L58.3257 44.5145V46.8747C58.3257 49.2718 57.4566 51.6967 55.9412 53.5276ZM44.7242 33.782C44.7817 33.782 44.8378 33.7756 44.8918 33.7638C45.1098 33.8103 45.3458 33.7657 45.5373 33.6204C47.6763 31.9956 50.7795 32.6187 53.7805 33.2214C55.3865 33.5439 56.9228 33.8523 58.3507 33.8523C58.5485 33.8523 58.7441 33.8464 58.9377 33.8337C59.1768 35.177 59.3699 38.0691 58.8322 41.6463L58.6082 41.1185C58.5384 40.9541 58.4153 40.8181 58.2586 40.7324C58.0307 40.6077 52.5887 37.7 43.7318 38.8118C43.4721 38.825 43.2239 38.9648 43.0841 39.2068C43.0334 39.2947 42.3431 40.5001 41.7455 42.0417C41.4743 40.5725 41.2257 38.9202 41.2257 37.7996C41.2258 35.0243 42.9828 33.782 44.7242 33.782Z" fill="black"/>
<path d="M64.0594 59.7397C64.0424 59.7349 64.0251 59.7307 64.0077 59.7271L59.2877 58.7398L58.0399 56.8476C58.0312 56.8342 58.0219 56.8211 58.0123 56.8084C57.7854 56.5059 57.4401 56.3063 57.0647 56.2607C56.6895 56.2152 56.3062 56.3262 56.0135 56.5657C56.0083 56.5699 56.0032 56.5742 55.9982 56.5785L50.3862 61.4095L44.774 56.5786C44.769 56.5743 44.7639 56.5701 44.7589 56.5658C44.4661 56.3263 44.0829 56.2152 43.7076 56.2607C43.3323 56.3063 42.9868 56.5059 42.76 56.8084C42.7504 56.8211 42.7412 56.8342 42.7324 56.8476L41.4847 58.7398L36.7646 59.7271C36.7473 59.7307 36.73 59.7349 36.7129 59.7397C35.3405 60.1241 34.1729 60.9751 33.3364 62.2004C32.5732 63.3182 32.153 64.6677 32.153 66.0001V67.4917C32.153 68.8002 33.3181 69.8648 34.7504 69.8648H48.5799C48.5809 69.8648 48.5819 69.8649 48.5829 69.8649C48.584 69.8649 48.585 69.8648 48.5861 69.8648H52.1861C52.1872 69.8648 52.1883 69.8649 52.1894 69.8649C52.1904 69.8649 52.1914 69.8648 52.1924 69.8648H66.0219C67.4541 69.8648 68.6193 68.8003 68.6193 67.4917V66.0001C68.6193 64.6676 68.199 63.3182 67.4359 62.2004C66.5995 60.9752 65.4318 60.1242 64.0594 59.7397ZM56.8558 57.934L57.8407 59.4274L53.899 64.8471L51.5517 62.4999L56.8558 57.934ZM49.8658 66.6981H50.9066L51.2226 68.2783H49.5497L49.8658 66.6981ZM51.1795 64.6768C51.1795 64.938 51.0203 65.1113 50.915 65.1113H49.8572C49.7519 65.1113 49.5928 64.938 49.5928 64.6768V64.3715L50.3861 63.5781L51.1794 64.3715V64.6768H51.1795ZM43.9166 57.934L49.2207 62.4998L46.8734 64.847L42.9317 59.4273L43.9166 57.934ZM33.7395 67.4917V66.0001C33.7395 64.1287 34.8993 61.9094 37.1164 61.2743L41.6271 60.3309L46.1363 66.5311C46.2727 66.7188 46.4844 66.8372 46.7158 66.8554C46.7365 66.8571 46.7572 66.8578 46.7779 66.8578C46.9874 66.8578 47.1894 66.7748 47.3387 66.6255L48.2639 65.7004C48.3058 65.7779 48.3519 65.8523 48.4027 65.9227L47.9317 68.2781H34.7504C34.2024 68.2782 33.7395 67.918 33.7395 67.4917ZM67.0329 67.4917C67.0329 67.918 66.57 68.2782 66.0221 68.2782H52.8407L52.3697 65.9228C52.4204 65.8524 52.4666 65.778 52.5085 65.7005L53.4336 66.6256C53.5829 66.7749 53.7849 66.8579 53.9945 66.8579C54.0151 66.8579 54.0358 66.8571 54.0566 66.8555C54.2879 66.8374 54.4996 66.7189 54.6361 66.5312L59.1453 60.331L63.6559 61.2744C65.873 61.9095 67.0329 64.1288 67.0329 66.0002V67.4917V67.4917Z" fill="black"/>
<path d="M31.3629 48.3578C31.3629 50.2853 32.0188 52.094 33.2096 53.451C34.4184 54.8283 36.0326 55.5868 37.7548 55.5868C39.046 55.5868 40.2891 55.1559 41.3499 54.3406C41.6973 54.0737 41.7624 53.5756 41.4954 53.2282C41.2283 52.8808 40.7305 52.8156 40.3829 53.0826C39.602 53.6829 38.6932 54.0002 37.7548 54.0002C35.1051 54.0002 32.9494 51.469 32.9494 48.3578V47.8915C32.9494 46.6377 33.468 44.9779 33.7397 44.1939C35.4519 44.0422 36.9808 44.2667 38.2295 44.4511L38.371 44.4719C38.4102 44.4777 38.4491 44.4805 38.4876 44.4805C38.8745 44.4805 39.2134 44.197 39.2714 43.8026C39.3352 43.3691 39.0356 42.966 38.6021 42.9022L38.4612 42.8814C37.0033 42.6661 35.1893 42.3983 33.0703 42.6696C33.0678 42.6699 33.0653 42.6701 33.0628 42.6705C33.0625 42.6705 33.0622 42.6705 33.0619 42.6706C33.0591 42.6709 33.0564 42.6717 33.0537 42.6721C33.0309 42.6753 33.0083 42.6791 32.986 42.6843C32.9734 42.6872 32.9613 42.691 32.949 42.6945C32.9368 42.698 32.9246 42.701 32.9126 42.7049C32.8971 42.7101 32.8821 42.7162 32.867 42.7223C32.8586 42.7257 32.85 42.7287 32.8415 42.7325C32.8262 42.7393 32.8113 42.747 32.7965 42.7548C32.7886 42.759 32.7806 42.7627 32.7727 42.7672C32.7591 42.7748 32.7462 42.7833 32.7332 42.7917C32.7243 42.7974 32.7154 42.8028 32.7068 42.8088C32.6959 42.8166 32.6855 42.8249 32.675 42.833C32.6649 42.841 32.6547 42.8486 32.645 42.857C32.6367 42.8642 32.6289 42.8718 32.621 42.8794C32.61 42.8897 32.599 42.8999 32.5886 42.9108C32.5821 42.9176 32.5762 42.9249 32.5699 42.9318C32.5591 42.9441 32.5482 42.9562 32.5381 42.9692C32.5321 42.9767 32.5269 42.9848 32.5212 42.9925C32.512 43.0053 32.5026 43.018 32.4941 43.0315C32.487 43.0425 32.4808 43.0542 32.4743 43.0656C32.4683 43.0763 32.4618 43.0866 32.4562 43.0977C32.4455 43.1188 32.4358 43.1406 32.4269 43.1626C32.4261 43.1645 32.4252 43.1662 32.4245 43.1681C32.4245 43.1682 32.4243 43.1687 32.4242 43.1688C32.4235 43.1707 32.4228 43.1725 32.4221 43.1743C32.4083 43.2097 32.3511 43.3579 32.2695 43.5895C32.2061 43.085 32.1645 42.6099 32.1645 42.2293C32.1645 40.5147 32.992 39.7471 33.8121 39.7471C33.8508 39.7471 33.8886 39.7435 33.9259 39.7381C33.9635 39.7436 34.0014 39.7472 34.0395 39.7472C34.2068 39.7472 34.3754 39.6946 34.5188 39.5856C35.2593 39.0231 36.2145 38.8341 37.6157 38.9725C38.0514 39.0159 38.4401 38.697 38.4832 38.261C38.5263 37.825 38.2077 37.4366 37.7717 37.3936C36.6966 37.2874 35.1404 37.2592 33.7862 38.1613C31.896 38.1766 30.578 39.8448 30.578 42.2294C30.578 43.9002 31.2367 46.945 31.3629 47.5132V48.3578V48.3578Z" fill="black"/>
<path d="M30.5532 62.7268H27.0217C26.7727 62.7268 26.5866 62.5778 26.5866 62.4446V61.429C26.5866 60.2524 27.3102 58.8587 28.6937 58.4576L31.5826 57.8532L33.0745 60.0055C33.2286 60.2277 33.4757 60.3469 33.7272 60.3469C33.8831 60.3469 34.0407 60.301 34.1784 60.2055C34.5385 59.9559 34.628 59.4617 34.3784 59.1016L32.8925 56.958L33.3313 56.2926L36.4252 58.6025C36.7763 58.8647 37.2733 58.7925 37.5354 58.4415C37.7976 58.0904 37.7255 57.5933 37.3744 57.3312L33.9787 54.796C33.7287 54.5992 33.406 54.5085 33.0896 54.5468C32.7659 54.5861 32.468 54.7582 32.2723 55.0191C32.2627 55.0319 32.2536 55.045 32.2448 55.0584L31.4527 56.2596L28.3413 56.9104C28.3239 56.9141 28.3066 56.9182 28.2896 56.923C26.13 57.5279 25 59.6477 25 61.429V62.4446C25 63.4751 25.907 64.3134 27.0217 64.3134H30.5532C30.9913 64.3134 31.3465 63.9582 31.3465 63.5201C31.3465 63.082 30.9913 62.7268 30.5532 62.7268Z" fill="black"/>
<path d="M62.2701 38.1337C63.4365 38.1571 64.726 38.3658 65.9732 38.5676C66.9155 38.72 67.8181 38.8647 68.6019 38.9151C68.5742 40.7936 68.451 42.483 68.3112 43.8433C68.3096 43.8421 68.3079 43.8411 68.3063 43.8399C68.2939 43.8308 68.281 43.8222 68.268 43.8139C68.2619 43.81 68.2566 43.8057 68.2504 43.802C68.2436 43.7978 68.2364 43.794 68.2295 43.7898C68.2286 43.7893 68.2277 43.7887 68.2267 43.7882C66.6392 42.8321 64.7152 42.2804 62.3453 42.1027C61.908 42.0696 61.5277 42.3976 61.4948 42.8345C61.462 43.2714 61.7896 43.6522 62.2266 43.6849C64.248 43.8365 65.8848 44.2804 67.2213 45.0387C67.4092 45.4819 67.8228 46.6035 67.8228 47.8916V48.3578C67.8228 51.4691 65.6672 54.0002 63.0175 54.0002C62.0791 54.0002 61.1704 53.6829 60.3893 53.0826C60.042 52.8157 59.5439 52.8808 59.2769 53.2282C59.01 53.5756 59.075 54.0736 59.4224 54.3406C60.4832 55.156 61.7263 55.5868 63.0175 55.5868C64.7398 55.5868 66.354 54.8283 67.5626 53.451C68.7535 52.094 69.4094 50.2852 69.4094 48.3578V47.5005C69.5208 46.9074 70.1758 43.2144 70.1934 38.3333C70.2137 38.255 70.2226 38.1724 70.2176 38.0873C70.1928 37.664 69.8398 37.3385 69.4209 37.3416C69.4142 37.3414 69.4077 37.3406 69.4009 37.3406C69.3856 37.3406 69.3706 37.3421 69.3554 37.3429C68.5877 37.3828 67.4407 37.1977 66.2265 37.0013C64.9858 36.8006 63.5797 36.573 62.3017 36.5475C61.8608 36.5369 61.5015 36.8867 61.4927 37.3248C61.484 37.7628 61.8321 38.125 62.2701 38.1337Z" fill="black"/>
<path d="M72.4828 56.9229C72.4658 56.9181 72.4485 56.914 72.4312 56.9103L69.3198 56.2595L68.5277 55.0583C68.5188 55.045 68.5096 55.0319 68.5001 55.019C68.3044 54.7581 68.0065 54.586 67.6829 54.5467C67.3662 54.5084 67.0438 54.599 66.7938 54.7959L63.3981 57.3311C63.0469 57.5932 62.9748 58.0903 63.237 58.4414C63.4992 58.7925 63.9963 58.8646 64.3473 58.6024L67.4411 56.2925L67.8799 56.9579L66.3939 59.1014C66.1443 59.4615 66.2339 59.9557 66.5939 60.2053C66.7318 60.3008 66.8893 60.3467 67.0451 60.3467C67.2965 60.3467 67.5437 60.2275 67.6978 60.0053L69.1898 57.853L72.0786 58.4573C73.462 58.8585 74.1857 60.2523 74.1857 61.4288V62.4444C74.1857 62.5775 73.9997 62.7266 73.7507 62.7266H70.2191C69.781 62.7266 69.4258 63.0818 69.4258 63.5199C69.4258 63.958 69.781 64.3132 70.2191 64.3132H73.7507C74.8654 64.3132 75.7723 63.4749 75.7723 62.4444V61.4288C75.7723 59.6477 74.6423 57.5279 72.4828 56.9229Z" fill="black"/>
</svg>
