<?xml version="1.0" encoding="iso-8859-1"?>
<!-- Generator: Adobe Illustrator 19.0.0, SVG Export Plug-In . SVG Version: 6.00 Build 0)  -->
<svg version="1.1" id="Layer_1" xmlns="http://www.w3.org/2000/svg" xmlns:xlink="http://www.w3.org/1999/xlink" x="0px" y="0px"
	 viewBox="0 0 512 512" style="enable-background:new 0 0 512 512;" xml:space="preserve">
<g>
	<g>
		<path d="M482.062,91.22V24.513C482.062,10.996,471.066,0,457.549,0H54.451C40.934,0,29.938,10.996,29.938,24.513V91.22
			c0,10.653,6.832,19.734,16.342,23.107v19.153c-9.51,3.373-16.342,12.455-16.342,23.107v66.707
			c0,10.653,6.832,19.734,16.342,23.107v19.174c-9.51,3.373-16.342,12.455-16.342,23.107v66.707
			c0,10.653,6.832,19.734,16.342,23.107v19.174c-9.51,3.373-16.342,12.455-16.342,23.107v66.707
			c0,13.517,10.996,24.513,24.513,24.513h403.098c13.517,0,24.513-10.996,24.513-24.513V420.78c0-10.653-6.832-19.734-16.342-23.107
			v-19.174c9.51-3.373,16.342-12.455,16.342-23.107v-66.707c0-10.653-6.832-19.734-16.342-23.107v-19.174
			c9.51-3.373,16.342-12.455,16.342-23.107v-66.707c0-10.653-6.832-19.734-16.342-23.107v-19.153
			C475.23,110.954,482.062,101.873,482.062,91.22z M465.72,487.487c0,4.506-3.665,8.171-8.171,8.171H54.451
			c-4.506,0-8.171-3.665-8.171-8.171V420.78c0-4.506,3.665-8.171,8.171-8.171h403.098c4.506,0,8.171,3.665,8.171,8.171V487.487z
			 M62.622,396.267v-16.364h386.756v16.364H62.622z M465.72,355.391c0,4.506-3.665,8.171-8.171,8.171H54.451
			c-4.506,0-8.171-3.665-8.171-8.171v-66.707c0-4.506,3.665-8.171,8.171-8.171h403.098c4.506,0,8.171,3.665,8.171,8.171V355.391z
			 M465.72,223.295c0,4.506-3.665,8.171-8.171,8.171h-32.684c-4.513,0-8.171,3.658-8.171,8.171s3.658,8.171,8.171,8.171h24.513
			v16.364H62.622v-16.364h329.56c4.513,0,8.171-3.658,8.171-8.171s-3.658-8.171-8.171-8.171H54.451
			c-4.506,0-8.171-3.665-8.171-8.171v-66.707c0-4.506,3.665-8.171,8.171-8.171h403.098c4.506,0,8.171,3.665,8.171,8.171V223.295z
			 M62.622,132.075v-16.342h386.756v16.342H62.622z M457.549,99.391H54.451c-4.506,0-8.171-3.665-8.171-8.171V24.513
			c0-4.506,3.665-8.171,8.171-8.171h403.098c4.506,0,8.171,3.665,8.171,8.171V91.22C465.72,95.726,462.055,99.391,457.549,99.391z"
			/>
	</g>
</g>
<g>
	<g>
		<path d="M256,32.684H119.818c-4.513,0-8.171,3.658-8.171,8.171s3.658,8.171,8.171,8.171H256c4.512,0,8.171-3.658,8.171-8.171
			S260.512,32.684,256,32.684z"/>
	</g>
</g>
<g>
	<g>
		<path d="M87.135,32.684H70.793c-4.513,0-8.171,3.658-8.171,8.171s3.658,8.171,8.171,8.171h16.342c4.513,0,8.171-3.658,8.171-8.171
			S91.647,32.684,87.135,32.684z"/>
	</g>
</g>
<g>
	<g>
		<path d="M256,164.758H119.818c-4.513,0-8.171,3.658-8.171,8.171s3.658,8.171,8.171,8.171H256c4.512,0,8.171-3.658,8.171-8.171
			S260.512,164.758,256,164.758z"/>
	</g>
</g>
<g>
	<g>
		<path d="M87.135,164.758H70.793c-4.513,0-8.171,3.658-8.171,8.171s3.658,8.171,8.171,8.171h16.342
			c4.513,0,8.171-3.658,8.171-8.171S91.647,164.758,87.135,164.758z"/>
	</g>
</g>
<g>
	<g>
		<path d="M256,296.855H119.818c-4.513,0-8.171,3.658-8.171,8.171s3.658,8.171,8.171,8.171H256c4.512,0,8.171-3.658,8.171-8.171
			S260.512,296.855,256,296.855z"/>
	</g>
</g>
<g>
	<g>
		<path d="M87.135,296.855H70.793c-4.513,0-8.171,3.658-8.171,8.171s3.658,8.171,8.171,8.171h16.342
			c4.513,0,8.171-3.658,8.171-8.171S91.647,296.855,87.135,296.855z"/>
	</g>
</g>
<g>
	<g>
		<path d="M256,428.951H119.818c-4.513,0-8.171,3.658-8.171,8.171s3.658,8.171,8.171,8.171H256c4.512,0,8.171-3.658,8.171-8.171
			S260.512,428.951,256,428.951z"/>
	</g>
</g>
<g>
	<g>
		<path d="M87.135,428.951H70.793c-4.513,0-8.171,3.658-8.171,8.171s3.658,8.171,8.171,8.171h16.342
			c4.513,0,8.171-3.658,8.171-8.171S91.647,428.951,87.135,428.951z"/>
	</g>
</g>
<g>
</g>
<g>
</g>
<g>
</g>
<g>
</g>
<g>
</g>
<g>
</g>
<g>
</g>
<g>
</g>
<g>
</g>
<g>
</g>
<g>
</g>
<g>
</g>
<g>
</g>
<g>
</g>
<g>
</g>
</svg>
