<svg viewBox="0 0 100 100" fill="none" xmlns="http://www.w3.org/2000/svg">
<path d="M75.8182 27.6223C79.6182 33.6223 76.8682 43.6223 75.0682 54.7723C73.2182 65.8723 72.4182 78.1723 65.5682 83.6723C58.7182 89.1223 45.8182 87.8223 37.4682 81.9723C29.0682 76.1223 25.1682 65.6723 23.6682 55.6723C22.1682 45.7223 23.0182 36.1223 28.0182 29.8223C33.0182 23.5723 42.1682 20.5223 51.9182 20.0723C61.6682 19.5723 72.0182 21.6223 75.8182 27.6223Z" fill="#A7F3D0"/>
<path d="M89.0156 23.9375C86.8186 23.9375 85.0312 25.725 85.0312 27.9219C85.0312 28.0884 85.0427 28.2522 85.0626 28.4134L70.3307 35.7794C69.114 34.2315 67.2266 33.2344 65.1094 33.2344C61.4477 33.2344 58.4688 36.2134 58.4688 39.875C58.4688 41.3296 58.9401 42.6755 59.7364 43.7707L52.1773 52.0172C52.1381 52.0601 52.1034 52.1052 52.0708 52.1514C51.5886 51.9437 51.0576 51.8281 50.5 51.8281C49.7443 51.8281 49.0371 52.0396 48.4344 52.4065L39.6389 45.2101C39.7915 44.7881 39.875 44.3333 39.875 43.8594C39.875 41.6625 38.0877 39.875 35.8906 39.875C33.6936 39.875 31.9062 41.6625 31.9062 43.8594C31.9062 44.9704 32.3638 45.9761 33.0996 46.6994L26.9786 59.8158C26.8519 59.8037 26.7236 59.7969 26.5938 59.7969C24.3967 59.7969 22.6094 61.5844 22.6094 63.7812C22.6094 63.9966 22.6271 64.2077 22.6602 64.4141L14.6441 68.7865C13.9382 68.1523 13.0057 67.7656 11.9844 67.7656C9.78732 67.7656 8 69.5531 8 71.75C8 73.9469 9.78732 75.7344 11.9844 75.7344C14.1814 75.7344 15.9688 73.9469 15.9688 71.75C15.9688 71.5347 15.951 71.3235 15.9179 71.1171L23.934 66.7448C24.6399 67.379 25.5723 67.7655 26.5938 67.7655C28.7908 67.7655 30.5781 65.978 30.5781 63.7811C30.5781 62.6701 30.1206 61.6644 29.3848 60.9411L35.5058 47.8247C35.6325 47.8368 35.7608 47.8436 35.8908 47.8436C36.6465 47.8436 37.3537 47.6321 37.9564 47.2652L46.7519 54.4616C46.5991 54.8838 46.5156 55.3385 46.5156 55.8125C46.5156 58.0094 48.3029 59.7969 50.5 59.7969C52.6971 59.7969 54.4844 58.0094 54.4844 55.8125C54.4844 55.1322 54.3125 54.4912 54.0107 53.9304C54.0541 53.8939 54.0961 53.8553 54.1354 53.8125L61.6934 45.5673C62.692 46.1688 63.8609 46.5156 65.1094 46.5156C68.771 46.5156 71.75 43.5366 71.75 39.875C71.75 39.2797 71.67 38.7028 71.5224 38.1534L86.2525 30.7883C86.9693 31.4798 87.9433 31.9062 89.0156 31.9062C91.2127 31.9062 93 30.1188 93 27.9219C93 25.725 91.2127 23.9375 89.0156 23.9375ZM11.9844 73.0781C11.2521 73.0781 10.6562 72.4823 10.6562 71.75C10.6562 71.0177 11.2521 70.4219 11.9844 70.4219C12.7167 70.4219 13.3125 71.0177 13.3125 71.75C13.3125 72.4823 12.7167 73.0781 11.9844 73.0781ZM26.5938 65.1094C25.8615 65.1094 25.2656 64.5135 25.2656 63.7812C25.2656 63.049 25.8615 62.4531 26.5938 62.4531C27.326 62.4531 27.9219 63.049 27.9219 63.7812C27.9219 64.5135 27.326 65.1094 26.5938 65.1094ZM35.8906 45.1875C35.1583 45.1875 34.5625 44.5917 34.5625 43.8594C34.5625 43.1271 35.1583 42.5312 35.8906 42.5312C36.6229 42.5312 37.2188 43.1271 37.2188 43.8594C37.2188 44.5917 36.6229 45.1875 35.8906 45.1875ZM50.5 57.1406C49.7677 57.1406 49.1719 56.5448 49.1719 55.8125C49.1719 55.0802 49.7677 54.4844 50.5 54.4844C51.2323 54.4844 51.8281 55.0802 51.8281 55.8125C51.8281 56.5448 51.2323 57.1406 50.5 57.1406ZM65.1094 43.8594C62.9125 43.8594 61.125 42.0719 61.125 39.875C61.125 37.6781 62.9125 35.8906 65.1094 35.8906C67.3063 35.8906 69.0938 37.6781 69.0938 39.875C69.0938 42.0719 67.3063 43.8594 65.1094 43.8594ZM89.0156 29.25C88.2833 29.25 87.6875 28.6542 87.6875 27.9219C87.6875 27.1896 88.2833 26.5938 89.0156 26.5938C89.7479 26.5938 90.3438 27.1896 90.3438 27.9219C90.3438 28.6542 89.7479 29.25 89.0156 29.25Z" fill="black"/>
<path d="M65.1094 38.5469C64.7591 38.5469 64.4171 38.688 64.1697 38.9354C63.9224 39.1827 63.7812 39.5247 63.7812 39.875C63.7812 40.2251 63.9224 40.5673 64.1697 40.8146C64.4171 41.0618 64.7591 41.2031 65.1094 41.2031C65.4597 41.2031 65.8017 41.0618 66.049 40.8146C66.2964 40.5673 66.4375 40.2251 66.4375 39.875C66.4375 39.5247 66.2964 39.1827 66.049 38.9354C65.8017 38.688 65.4597 38.5469 65.1094 38.5469Z" fill="black"/>
<path d="M65.1094 30.5781C65.458 30.5781 65.8017 30.4368 66.049 30.1878C66.2947 29.9423 66.4375 29.6001 66.4375 29.25C66.4375 28.8997 66.2947 28.5577 66.049 28.3104C65.8017 28.063 65.458 27.9219 65.1094 27.9219C64.7591 27.9219 64.4171 28.063 64.1697 28.3104C63.9224 28.5577 63.7812 28.8997 63.7812 29.25C63.7812 29.5986 63.9224 29.9423 64.1697 30.1878C64.4171 30.4368 64.7591 30.5781 65.1094 30.5781Z" fill="black"/>
<path d="M65.1094 25.2656C65.4597 25.2656 65.8017 25.1243 66.049 24.8771C66.2964 24.6298 66.4375 24.2861 66.4375 23.9375C66.4375 23.5887 66.2964 23.2452 66.049 22.9979C65.8017 22.7505 65.4597 22.6094 65.1094 22.6094C64.7591 22.6094 64.4171 22.7505 64.1697 22.9979C63.9224 23.2452 63.7812 23.5872 63.7812 23.9375C63.7812 24.2876 63.9224 24.6298 64.1697 24.8771C64.4171 25.1243 64.7591 25.2656 65.1094 25.2656Z" fill="black"/>
<path d="M65.1094 19.9531C65.458 19.9531 65.8 19.8118 66.049 19.5646C66.2964 19.3156 66.4375 18.9736 66.4375 18.625C66.4375 18.2762 66.2964 17.9327 66.049 17.6854C65.8017 17.438 65.458 17.2969 65.1094 17.2969C64.7607 17.2969 64.4171 17.438 64.1697 17.6854C63.9224 17.9327 63.7812 18.2764 63.7812 18.625C63.7812 18.9736 63.9224 19.3173 64.1697 19.5646C64.4171 19.8118 64.7607 19.9531 65.1094 19.9531Z" fill="black"/>
<path d="M65.1094 14.6406C65.458 14.6406 65.8017 14.4993 66.049 14.2521C66.2964 14.0048 66.4375 13.6626 66.4375 13.3125C66.4375 12.9637 66.2964 12.6202 66.049 12.3729C65.8017 12.1255 65.4597 11.9844 65.1094 11.9844C64.7591 11.9844 64.4171 12.1255 64.1697 12.3729C63.9224 12.6202 63.7812 12.9639 63.7812 13.3125C63.7812 13.6626 63.9224 14.0048 64.1697 14.2521C64.4171 14.4993 64.7607 14.6406 65.1094 14.6406Z" fill="black"/>
<path d="M65.1094 65.1094C64.7591 65.1094 64.4171 65.2505 64.1697 65.4979C63.9224 65.7452 63.7812 66.0872 63.7812 66.4375C63.7812 66.7876 63.9224 67.1298 64.1697 67.3771C64.4171 67.6243 64.7591 67.7656 65.1094 67.7656C65.458 67.7656 65.8017 67.6243 66.049 67.3771C66.2964 67.1298 66.4375 66.7876 66.4375 66.4375C66.4375 66.0872 66.2964 65.7452 66.049 65.4979C65.8017 65.2505 65.4597 65.1094 65.1094 65.1094Z" fill="black"/>
<path d="M65.1094 59.7969C64.7591 59.7969 64.4171 59.938 64.1697 60.1854C63.9224 60.4327 63.7812 60.7764 63.7812 61.125C63.7812 61.4736 63.9224 61.8173 64.1697 62.0646C64.4171 62.3118 64.7607 62.4531 65.1094 62.4531C65.458 62.4531 65.8017 62.3118 66.049 62.0646C66.2964 61.8173 66.4375 61.4735 66.4375 61.125C66.4375 60.7762 66.2964 60.4327 66.049 60.1854C65.8017 59.938 65.4597 59.7969 65.1094 59.7969Z" fill="black"/>
<path d="M65.1094 54.4844C64.7591 54.4844 64.4171 54.6255 64.1697 54.8729C63.9224 55.1202 63.7812 55.4622 63.7812 55.8125C63.7812 56.1626 63.9224 56.5048 64.1697 56.7503C64.4171 56.9993 64.7591 57.1406 65.1094 57.1406C65.4597 57.1406 65.8017 56.9993 66.049 56.7503C66.2964 56.5048 66.4375 56.1626 66.4375 55.8125C66.4375 55.4622 66.2964 55.1202 66.049 54.8729C65.8017 54.6255 65.4597 54.4844 65.1094 54.4844Z" fill="black"/>
<path d="M65.1094 49.1719C64.7591 49.1719 64.4171 49.313 64.1697 49.5604C63.9224 49.8077 63.7812 50.1497 63.7812 50.5C63.7812 50.8501 63.9224 51.1923 64.1697 51.4378C64.4171 51.6868 64.7591 51.8281 65.1094 51.8281C65.458 51.8281 65.8017 51.6868 66.049 51.4378C66.2964 51.1923 66.4375 50.8501 66.4375 50.5C66.4375 50.1497 66.2964 49.8077 66.049 49.5604C65.8017 49.313 65.458 49.1719 65.1094 49.1719Z" fill="black"/>
<path d="M65.1094 86.3594C64.7591 86.3594 64.4171 86.5005 64.1697 86.7479C63.9224 86.9952 63.7812 87.3372 63.7812 87.6875C63.7812 88.0376 63.9224 88.3798 64.1697 88.6271C64.4171 88.8743 64.7591 89.0156 65.1094 89.0156C65.4597 89.0156 65.8017 88.8743 66.049 88.6271C66.2964 88.3798 66.4375 88.0376 66.4375 87.6875C66.4375 87.3372 66.2964 86.9952 66.049 86.7479C65.8017 86.5005 65.4597 86.3594 65.1094 86.3594Z" fill="black"/>
<path d="M65.1094 81.0469C64.7591 81.0469 64.4171 81.188 64.1697 81.4354C63.9224 81.6827 63.7812 82.0247 63.7812 82.375C63.7812 82.7251 63.9224 83.0673 64.1697 83.3146C64.4171 83.5618 64.7591 83.7031 65.1094 83.7031C65.4597 83.7031 65.8017 83.5618 66.049 83.3146C66.2964 83.0673 66.4375 82.7251 66.4375 82.375C66.4375 82.0262 66.2964 81.6827 66.049 81.4354C65.8017 81.188 65.4597 81.0469 65.1094 81.0469Z" fill="black"/>
<path d="M65.1094 75.7344C64.7591 75.7344 64.4171 75.877 64.1697 76.1229C63.9224 76.3702 63.7812 76.7122 63.7812 77.0625C63.7812 77.4111 63.9224 77.7548 64.1697 78.0021C64.4171 78.2493 64.7591 78.3906 65.1094 78.3906C65.4597 78.3906 65.8017 78.2493 66.049 78.0021C66.2964 77.7548 66.4375 77.411 66.4375 77.0625C66.4375 76.7122 66.2964 76.3702 66.049 76.1229C65.8017 75.877 65.4597 75.7344 65.1094 75.7344Z" fill="black"/>
<path d="M65.1094 70.4219C64.7591 70.4219 64.4171 70.563 64.1697 70.8104C63.924 71.0577 63.7812 71.3997 63.7812 71.75C63.7812 72.1001 63.924 72.4423 64.1697 72.6878C64.4171 72.9368 64.7607 73.0781 65.1094 73.0781C65.458 73.0781 65.8017 72.9368 66.049 72.6878C66.2947 72.4423 66.4375 72.1001 66.4375 71.75C66.4375 71.3997 66.2947 71.0577 66.049 70.8104C65.8017 70.563 65.4597 70.4219 65.1094 70.4219Z" fill="black"/>
</svg>
